<?xml version="1.0" encoding="UTF-8"?> <svg xmlns="http://www.w3.org/2000/svg" width="40" height="40" viewBox="0 0 40 40" fill="none"> <rect width="40" height="40" rx="20" fill="white"></rect> <path d="M19.86 20.7C21.252 20.7 22.14 21.348 22.14 23.1V23.7C22.14 25.428 21.252 26.1 19.86 26.1C18.492 26.1 17.58 25.428 17.58 23.7V22.74H14.7V23.94C14.7 27.06 17.004 28.74 19.86 28.74C22.716 28.74 25.02 27.06 25.02 23.94V22.74C25.02 20.916 24.036 19.644 22.572 18.972C23.772 18.3 24.54 17.148 24.54 15.54V14.58C24.54 11.772 22.452 10.26 19.86 10.26C17.268 10.26 15.18 11.772 15.18 14.58V15.54H18.06V14.82C18.06 13.428 18.78 12.9 19.86 12.9C20.964 12.9 21.66 13.428 21.66 14.82V15.66C21.66 17.244 20.964 17.82 19.86 17.82H18.42V20.7H19.86Z" fill="black"></path> </svg> 