<?xml version="1.0" encoding="UTF-8"?> <svg xmlns="http://www.w3.org/2000/svg" width="1352" height="796" viewBox="0 0 1352 796" fill="none"> <g clip-path="url(#clip0_7042_13987)"> <path d="M474.157 503.274C375.443 367.049 451.288 238.392 492.419 198.248C594.917 251.883 808.698 403.376 843.841 580.271C767.831 606.595 572.871 639.5 474.157 503.274Z" fill="#F9D8CA"></path> <path d="M518.447 214.275C430.067 230.453 418.164 306.343 414.951 340.69L469.046 331.394C460.41 292.814 491.895 268.138 523.326 265.122L518.447 214.275Z" fill="#D8CCFF" stroke="black"></path> <path d="M655.936 487.234V402.609L692.057 363.393L822.09 487.234C825.53 520.774 810.738 588.267 724.049 589.919C637.36 591.57 597.456 522.15 588.34 487.234H655.936Z" fill="#F9BA9D" stroke="#271A58"></path> <path d="M218.272 803.76C231.23 469.354 482.547 469.713 615.735 481.387C621.092 505.016 647.61 552.482 710.825 553.31C774.04 554.138 800.111 505.706 805.245 481.387C842.969 467.589 942.524 454.688 1038.95 513.468C1135.38 572.248 1141.91 755.64 1128.3 803.76H218.272Z" fill="#BCEC30" stroke="#271A58"></path> <path d="M548.86 155.838C548.86 155.838 511.845 190.989 500.491 221.571C485.015 253.036 475.833 290.447 475.834 333.851C474.159 369.243 487.904 409.126 529.368 429.83C570.843 450.523 616.643 449.875 627.815 449.07C638.988 448.266 668.012 444.411 668.012 444.411L692.915 436.903L667.151 310.231L651.179 199.682L548.86 155.838Z" fill="#F9BA9D"></path> <path d="M548.862 155.838L527.705 177.224L501.809 217.128L493.128 198.193C493.128 198.193 473.595 160.253 472.159 145.291C471.254 135.849 467.733 113.99 478.6 98.0901C489.467 82.2017 510.805 74.2506 530.773 73.0216C550.741 71.7925 606.253 78.7758 633.839 92.0944C662.534 105.949 691.999 126.441 691.999 126.441C691.999 126.441 733.062 117.938 772.992 124.553C797.204 128.564 818.528 135.777 828.787 141.439C839.045 147.101 853.928 156.81 853.928 156.81C885.508 183.298 895.609 202.374 902.002 242.856C902.002 242.856 903.393 273.918 901.22 286.432C899.046 298.946 896.531 313.125 896.531 313.125L1133.24 712.729H824.153C758.105 669.384 736.432 584.76 761.547 481.563C761.547 481.563 720.299 464.088 703.432 447.417C688.173 432.344 678.518 422.791 668.567 400.254C664.889 391.919 657.802 378.668 653.976 365.707C647.456 343.639 644.875 321.751 644.875 321.751L641.932 280.387C641.932 280.387 644.547 223.727 645.985 216.096C647.422 208.453 649.154 200.52 649.154 200.52C649.154 200.52 616.123 195.146 594.661 186.475C573.199 177.805 556.752 162.062 556.752 162.062L548.862 155.838Z" fill="#F9D8CA"></path> <path d="M717.896 270.351C717.896 270.351 737.344 235.859 767.93 245.714C798.515 255.569 791.735 292.43 791.735 292.43L781.015 313.693L762.349 329.425L747.69 335.09L733.676 335.626L727.79 334.095" fill="#F9BA9D"></path> <path d="M512.868 329.537L520.724 347.224L597.472 337.704L601.943 319.246L512.868 329.537Z" fill="white"></path> <path d="M520.724 347.225L597.471 337.705C597.471 337.705 589.106 360.063 581.85 365.795C574.594 371.527 567.678 377.27 560.728 377.471C553.777 377.672 549.023 377.214 549.023 377.214L536.096 370.432L526.361 358.946L520.724 347.225Z" fill="#271A58"></path> <path d="M550.005 154.91C550.005 154.91 473.076 213.95 475.669 340.711C477.989 454.511 618.716 463.26 693.256 436.947" stroke="#271A58" stroke-miterlimit="10" stroke-linecap="round"></path> <path d="M737.3 174.899C737.3 174.899 679.679 74.7034 547.204 72.8822C416.408 71.0841 492.418 198.249 492.418 198.249C483.051 207.392 471.882 221.203 461.386 238.69" stroke="#271A58" stroke-miterlimit="10" stroke-linecap="round"></path> <path d="M529.561 119.402C529.561 119.402 543.371 186.666 649.153 200.543C649.153 200.543 599.573 423.339 761.829 481.764C746.484 535.876 737.361 657.722 823.637 712.212H1100.73" stroke="#271A58" stroke-miterlimit="10" stroke-linecap="round"></path> <path d="M513.174 329.157L602.305 319.805C602.305 319.805 593.713 370.923 560.75 377.291C527.799 383.66 513.174 329.157 513.174 329.157Z" stroke="#271A58" stroke-miterlimit="10" stroke-linecap="round"></path> <path d="M728.639 335.045C772.695 343.28 816.876 281.279 777.936 252.151C744.43 227.089 717.433 270.475 717.433 270.475L730.337 349.973" stroke="#271A58" stroke-miterlimit="10" stroke-linecap="round"></path> <path d="M589.816 252.532C593.057 238.8 592.314 226.892 588.155 225.936C583.997 224.979 577.998 235.336 574.757 249.069C571.515 262.801 572.259 274.709 576.417 275.665C580.576 276.621 586.574 266.264 589.816 252.532Z" fill="#271A58"></path> <path d="M526.115 245.141C529.356 231.409 528.612 219.501 524.454 218.545C520.295 217.589 514.297 227.946 511.055 241.678C507.814 255.411 508.558 267.318 512.716 268.275C516.875 269.231 522.873 258.874 526.115 245.141Z" fill="#271A58"></path> <path d="M694.288 126.188C694.288 126.188 790.434 106.551 853.79 156.361C903.776 195 911 248.664 896.552 312.649L1126.53 703.956" stroke="#271A58" stroke-miterlimit="10" stroke-linecap="round"></path> <path d="M723.839 304.41C725.175 303.516 744.554 265.102 775.298 261.828" stroke="#271A58" stroke-miterlimit="10" stroke-linecap="round"></path> <path d="M520.159 347.191L597.156 337.537" stroke="#271A58" stroke-miterlimit="10" stroke-linecap="round"></path> <path d="M526.02 195.952C526.02 195.952 538.347 204.591 541.761 210.561" stroke="#271A58" stroke-miterlimit="10" stroke-linecap="round"></path> <path d="M583.854 217.704C583.854 217.704 597.44 205.715 605.526 203.256" stroke="#271A58" stroke-miterlimit="10" stroke-linecap="round"></path> <path d="M548.192 245.631C548.192 245.631 512.951 250.848 509.898 271.046C506.845 291.243 538.978 296.962 538.978 296.962" fill="#F9BA9D"></path> <path d="M548.192 245.631C548.192 245.631 512.951 250.848 509.898 271.046C506.845 291.243 538.978 296.962 538.978 296.962" stroke="#271A58" stroke-miterlimit="10" stroke-linecap="round"></path> <path d="M705.518 405.018C705.354 404.796 705.041 404.748 704.819 404.912C704.596 405.076 704.549 405.389 704.713 405.611L705.518 405.018ZM787.648 457.414C787.924 457.429 788.16 457.218 788.175 456.943C788.191 456.667 787.979 456.431 787.704 456.416L787.648 457.414ZM704.713 405.611C710.761 413.819 722.148 426.24 736.683 436.872C751.215 447.501 768.938 456.375 787.648 457.414L787.704 456.416C769.262 455.391 751.725 446.635 737.274 436.065C722.827 425.497 711.51 413.15 705.518 405.018L704.713 405.611Z" fill="#271A58"></path> <path d="M758.264 267.541C761.18 269.98 766.663 278.762 765.263 294.373" stroke="#271A58" stroke-linecap="round"></path> <path d="M525.635 219.768L541.631 230.088" stroke="#271A58"></path> <path d="M587.981 226.477L606.042 239.377" stroke="#271A58"></path> <path d="M466.891 496.333C487.322 482.312 500.107 440.75 503.946 421.722L483.917 325.71C519.469 317.198 530.486 287.153 492.93 291.66C491.777 291.798 490.619 292.012 489.436 292.161C489.436 290.158 488.093 288.234 487.422 287.523C470.397 267.994 372.251 313.192 345.21 350.616C321.536 383.383 339.344 440.847 357.438 473.43C355.007 482.777 314.957 609.474 314.957 613.88L256.149 813.228L387.358 814.599L466.891 496.333Z" fill="#F9BA9D"></path> <path d="M503.946 421.721C500.222 440.178 488.081 479.835 468.711 494.996C467.564 495.893 466.693 497.11 466.334 498.522L384.533 819.997C383.851 822.678 381.423 824.546 378.656 824.517L252.162 823.195M483.916 325.71C519.469 317.197 530.485 287.152 492.929 291.659C491.776 291.797 490.608 291.941 489.424 292.089" stroke="#271A58"></path> <path d="M450.366 317.198C422.807 327.176 417.942 337.305 420.797 342.022C421.102 342.526 421.448 343.008 421.694 343.543L471.624 452.302C471.806 452.7 471.936 453.127 472.07 453.543C475.248 463.426 499.383 455.651 514.462 445.389C550.515 420.852 496.095 300.641 450.366 317.198Z" fill="#D8CCFF" stroke="#271A58"></path> <path d="M398.289 419.349C376.689 373.4 403.698 347.76 420.809 340.165C421.483 339.866 422.084 339.458 422.674 339.015C429.777 333.681 448.668 334.069 474.402 374.783C500.703 416.394 486.197 446.015 475.081 456.298C474.632 456.713 474.13 457.027 473.563 457.256C456.936 463.98 419.95 465.428 398.289 419.349Z" fill="#D8CCFF" stroke="#271A58"></path> <path d="M423.953 408.041C427.96 415.864 429.991 423.736 430.053 430.127C430.116 436.513 428.222 441.256 424.585 443.163L407.075 446.333L383.861 401.883L395.847 386.994C399.516 385.178 404.46 386.415 409.593 390.187C414.743 393.972 419.946 400.219 423.953 408.041Z" fill="#BEA4FF" stroke="#271A58"></path> <path d="M407.234 418.437C410.478 424.769 412.119 431.137 412.17 436.301C412.221 441.499 410.669 445.31 407.735 446.813C404.802 448.316 400.802 447.348 396.613 444.27C392.452 441.212 388.242 436.16 384.998 429.828C381.754 423.496 380.113 417.127 380.063 411.963C380.012 406.766 381.563 402.954 384.497 401.451C387.431 399.948 391.431 400.916 395.619 403.994C399.781 407.052 403.99 412.105 407.234 418.437Z" fill="#BEA4FF" stroke="#271A58"></path> <path d="M487.421 287.523C470.396 267.994 372.25 313.192 345.21 350.616L385.77 366.271C388.775 365.269 398.389 361.437 412.81 354.122C443.356 338.432 501.042 303.146 487.421 287.523Z" fill="#F9BA9D"></path> <path d="M255.152 811.733L356.703 475.86C357.172 474.307 356.994 472.643 356.227 471.213C338.57 438.295 322.063 382.652 345.21 350.616C372.25 313.192 470.396 267.994 487.421 287.523C501.042 303.146 443.356 338.432 412.81 354.122C398.389 361.437 388.775 365.269 385.77 366.271" stroke="#271A58"></path> <path d="M435.655 683.821C461.447 744.154 465.109 810.515 463.715 836.153L193.855 818.173C193.378 758.239 238.208 667.704 297.745 651.356L311.472 605.906L448.193 640.368L435.655 683.821Z" fill="#BCEC30"></path> <path d="M435.655 683.821C461.447 744.154 465.109 810.515 463.715 836.153L193.855 818.173C193.378 758.239 238.208 667.704 297.745 651.356M435.655 683.821L297.745 651.356M435.655 683.821L448.193 640.368L311.472 605.906L297.745 651.356" stroke="black"></path> <path d="M249.06 825.383C236.635 709.512 301.717 530.832 398.915 433.233C400.045 432.098 400.712 430.567 400.563 428.972C399.908 421.946 396.523 418.519 393.788 417.005C392.249 416.153 390.445 416.638 389.09 417.758C299.413 491.908 209.099 669.575 220.906 822.904C221.103 825.469 222.945 827.589 225.446 828.193L241.542 832.078C245.671 833.074 249.513 829.607 249.06 825.383Z" fill="#D8CCFF" stroke="#271A58"></path> <path d="M504.893 480.396C475.969 601.927 625.14 689.574 710.474 589.393C716.374 599.595 736.327 622.146 768.939 630.737" stroke="#271A58"></path> <path d="M439.093 513.556L410.752 615.196" stroke="#271A58"></path> <path d="M1094.91 436.739L693.398 541.69C687.206 543.308 682.163 547.792 679.831 553.752L679.603 554.334C676.761 559.879 681.193 570.194 684.513 578.664L720.745 694.707L775.02 866.701L819.946 1009.63L1260.42 919.341L1196.64 708.614L1143.23 530.438L1119.12 450.326C1116.02 440.021 1105.32 434.017 1094.91 436.739Z" fill="#A576FF"></path> <path d="M1169.66 678.67L1108.03 468.444C1104.99 458.069 1094.25 451.989 1083.79 454.718L699.229 555.018C688.162 557.904 681.765 569.466 685.199 580.375L775.553 867.468L820.281 1009.59L1245.81 922.901L1196.78 761.637" stroke="#271A58"></path> <path d="M684.58 578.643L680.676 567.574C676.784 556.54 683.154 544.535 694.474 541.573L1095.25 436.704C1105.67 433.978 1116.38 439.994 1119.47 450.312L1186.11 672.689M1258.17 913.477L1209.08 751.796" stroke="#271A58"></path> <path d="M518.868 479.545C516.392 507.299 521.323 576.548 573.023 599.787C621.467 621.562 662.484 608.895 686.072 590.458" stroke="#271A58" stroke-dasharray="15 15"></path> <path d="M765.652 811.409L1246.95 678.388L1254.26 831.284L785.207 917.971L765.652 811.409Z" fill="#F9BA9D" stroke="#271A58"></path> <path d="M404.244 216.574L421.57 249.659L385.466 226.624C352.451 239.779 206.331 292.298 168.343 228.442C111.423 132.762 214.553 36.9145 371.448 70.3647C448.822 86.861 441.851 186.223 404.244 216.574Z" fill="white" stroke="#271A58" stroke-linecap="round"></path> <path d="M230.51 156.029L233.679 118.631L253.772 153.259" stroke="#271A58" stroke-width="2" stroke-linecap="round"></path> <path d="M232.386 141.287L244.07 137.537" stroke="#271A58" stroke-width="2" stroke-linecap="round"></path> <path d="M228.334 218.945L231.503 181.547L251.596 216.175" stroke="#271A58" stroke-width="2" stroke-linecap="round"></path> <path d="M230.209 204.203L241.894 200.453" stroke="#271A58" stroke-width="2" stroke-linecap="round"></path> <path d="M351.55 188.261L354.719 150.863L374.812 185.491" stroke="#271A58" stroke-width="2" stroke-linecap="round"></path> <path d="M353.426 173.52L365.11 169.769" stroke="#271A58" stroke-width="2" stroke-linecap="round"></path> <path d="M258.108 152.873C258.113 153.426 258.566 153.869 259.118 153.863C259.67 153.857 260.113 153.404 260.107 152.852L258.108 152.873ZM258.678 112.655L259.566 112.196L257.678 112.666L258.678 112.655ZM276.266 148.828C276.52 149.319 277.123 149.51 277.614 149.257C278.104 149.003 278.296 148.4 278.042 147.909L276.266 148.828ZM260.107 152.852L259.678 112.645L257.678 112.666L258.108 152.873L260.107 152.852ZM257.789 113.115L276.266 148.828L278.042 147.909L259.566 112.196L257.789 113.115Z" fill="#271A58"></path> <path d="M281.133 147.139C281.139 147.691 281.591 148.134 282.144 148.128C282.696 148.122 283.139 147.67 283.133 147.118L281.133 147.139ZM281.703 106.921L282.591 106.461L280.703 106.932L281.703 106.921ZM299.291 143.094C299.545 143.584 300.149 143.776 300.639 143.522C301.13 143.269 301.322 142.665 301.068 142.175L299.291 143.094ZM283.133 147.118L282.703 106.91L280.703 106.932L281.133 147.139L283.133 147.118ZM280.815 107.38L299.291 143.094L301.068 142.175L282.591 106.461L280.815 107.38Z" fill="#271A58"></path> <ellipse cx="312.255" cy="119.469" rx="10.9022" ry="20.8425" transform="rotate(-13.9838 312.255 119.469)" stroke="#271A58" stroke-width="2" stroke-linecap="round"></ellipse> <path d="M256.183 216.797C256.189 217.349 256.641 217.792 257.193 217.786C257.746 217.781 258.189 217.328 258.183 216.776L256.183 216.797ZM256.753 176.579L257.641 176.12L255.753 176.59L256.753 176.579ZM274.341 212.752C274.595 213.242 275.198 213.434 275.689 213.181C276.179 212.927 276.371 212.323 276.118 211.833L274.341 212.752ZM258.183 216.776L257.753 176.568L255.753 176.59L256.183 216.797L258.183 216.776ZM255.865 177.039L274.341 212.752L276.118 211.833L257.641 176.12L255.865 177.039Z" fill="#271A58"></path> <ellipse cx="287.305" cy="189.129" rx="10.9022" ry="20.8425" transform="rotate(-13.9838 287.305 189.129)" stroke="#271A58" stroke-width="2" stroke-linecap="round"></ellipse> <path d="M338.164 198.145C338.297 198.681 337.971 199.224 337.435 199.357C336.899 199.491 336.356 199.164 336.223 198.628L338.164 198.145ZM326.361 159.027C326.228 158.492 326.554 157.949 327.09 157.815C327.626 157.682 328.169 158.008 328.302 158.544L326.361 159.027ZM336.223 198.628L326.361 159.027L328.302 158.544L338.164 198.145L336.223 198.628Z" fill="#271A58"></path> <path d="M350.971 194.427C351.36 194.819 351.358 195.452 350.967 195.842C350.575 196.231 349.942 196.229 349.552 195.837L350.971 194.427ZM331.743 176.502L331.034 177.207L330.565 176.735L330.819 176.12L331.743 176.502ZM339.476 155.15C339.686 154.639 340.271 154.396 340.781 154.607C341.292 154.818 341.535 155.402 341.324 155.913L339.476 155.15ZM349.552 195.837L331.034 177.207L332.453 175.797L350.971 194.427L349.552 195.837ZM330.819 176.12L339.476 155.15L341.324 155.913L332.668 176.884L330.819 176.12Z" fill="#271A58"></path> <path d="M211.228 225.989L202.683 188.062L219.298 184.319" stroke="#271A58" stroke-width="2" stroke-linecap="round"></path> <path d="M317.895 160.693L327.78 200.389" stroke="#271A58" stroke-width="2" stroke-linecap="round"></path> <path d="M297.706 166.354C297.303 174.183 301.754 188.111 322.79 181.186" stroke="#271A58" stroke-width="2" stroke-linecap="round"></path> <circle cx="339.223" cy="134.362" r="2.04836" transform="rotate(-13.9838 339.223 134.362)" fill="#271A58"></circle> <path d="M340.933 134.639C341.283 136.042 341.528 139.288 339.713 141.041" stroke="#271A58" stroke-width="2" stroke-linecap="round"></path> <circle cx="394.4" cy="178.118" r="2.04836" transform="rotate(-13.9838 394.4 178.118)" fill="#271A58"></circle> <path d="M373.658 157.711C372.339 154.185 372.953 146.387 385.958 143.413C398.964 140.439 402.906 150.428 403.371 152.295C406.625 165.363 390.762 162.704 393.01 171.728" stroke="#271A58" stroke-width="2" stroke-linecap="round"></path> <path d="M874.49 294.775L830.196 328.706L886.512 309.835C905.308 363.724 1139.41 367.629 1161.28 303.725C1212.17 154.949 1004.94 139.621 922.075 176.299C856.937 205.13 862.837 258.843 874.49 294.775Z" fill="white" stroke="#271A58" stroke-linecap="round"></path> <path d="M995.636 224.553C994.056 217.54 990.381 212.625 986.1 212.625C980.377 212.625 975.737 221.41 975.737 232.248C975.737 243.085 980.377 251.871 986.1 251.871C990.263 251.871 993.852 247.224 995.5 240.52" stroke="#271A58" stroke-width="2" stroke-linecap="round"></path> <path d="M1121.11 224.553C1119.53 217.54 1115.86 212.625 1111.58 212.625C1105.85 212.625 1101.21 221.41 1101.21 232.248C1101.21 243.085 1105.85 251.871 1111.58 251.871C1115.74 251.871 1119.33 247.224 1120.98 240.52" stroke="#271A58" stroke-width="2" stroke-linecap="round"></path> <path d="M1074.46 248.837L1086.62 213.178L1097.79 251.781" stroke="#271A58" stroke-width="2" stroke-linecap="round"></path> <path d="M1079.86 234.932L1092.15 234.113" stroke="#271A58" stroke-width="2" stroke-linecap="round"></path> <path d="M1024.83 211.963C1024.83 211.411 1024.38 210.963 1023.83 210.963C1023.27 210.963 1022.83 211.411 1022.83 211.963H1024.83ZM1023.83 251.589H1022.83L1024.73 252.011L1023.83 251.589ZM1042.27 211.963H1043.27L1041.36 211.541L1042.27 211.963ZM1041.27 251.589C1041.27 252.142 1041.71 252.589 1042.27 252.589C1042.82 252.589 1043.27 252.142 1043.27 251.589H1041.27ZM1022.83 211.963V251.589H1024.83V211.963H1022.83ZM1024.73 252.011L1043.17 212.385L1041.36 211.541L1022.92 251.167L1024.73 252.011ZM1041.27 211.963V251.589H1043.27V211.963H1041.27Z" fill="#271A58"></path> <path d="M1027.95 196.596C1027.62 200.323 1028.34 207.777 1033.83 207.777C1039.32 207.777 1040.04 200.323 1039.72 196.596" stroke="#271A58" stroke-width="2" stroke-linecap="round"></path> <path d="M1036.53 270.076L1022.24 270.116L1022.24 309.795L1035.43 309.795" stroke="#271A58" stroke-width="2" stroke-linecap="round"></path> <path d="M1034.32 288.234L1022.11 288.199" stroke="#271A58" stroke-width="2" stroke-linecap="round"></path> <path d="M1016.63 212.037L1002.34 212.077L1002.34 251.756L1015.53 251.756" stroke="#271A58" stroke-width="2" stroke-linecap="round"></path> <path d="M1014.42 230.195L1002.22 230.16" stroke="#271A58" stroke-width="2" stroke-linecap="round"></path> <path d="M903.326 214.283H926.866" stroke="#271A58" stroke-width="2" stroke-linecap="round"></path> <path d="M914.311 253.125L914.311 214.283" stroke="#271A58" stroke-width="2" stroke-linecap="round"></path> <path d="M1000.06 308.254V290.249M1000.06 290.249V269.023C1004.64 268.833 1013.93 270.35 1014.41 277.93C1014.89 285.511 1005.04 289.301 1000.06 290.249Z" stroke="#271A58" stroke-width="2" stroke-linecap="round"></path> <path d="M932.069 214.283V230.849M932.069 230.849V250.694C936.613 251.442 945.667 250.453 945.529 240.513C945.391 230.573 936.498 229.929 932.069 230.849Z" stroke="#271A58" stroke-width="2" stroke-linecap="round"></path> <path d="M955.365 214.455V251.901" stroke="#271A58" stroke-width="2" stroke-linecap="round"></path> <path d="M1087.39 269.008V285.574M1087.39 285.574V305.419C1091.94 306.167 1100.99 305.177 1100.85 295.237C1100.72 285.298 1091.82 284.654 1087.39 285.574Z" stroke="#271A58" stroke-width="2" stroke-linecap="round"></path> <path d="M961.365 309.359V269.008L977.229 288.122L992.319 269.008V309.359" stroke="#271A58" stroke-width="2" stroke-linecap="round"></path> <path d="M935.938 270.969L951.043 284.897" stroke="#271A58" stroke-width="2" stroke-linecap="round"></path> <path d="M954.574 269.008L946.139 310.988" stroke="#271A58" stroke-width="2" stroke-linecap="round"></path> <path d="M1044.83 270.285V307.488H1076.4L1079.6 270.285" stroke="#271A58" stroke-width="2" stroke-linecap="round"></path> <path d="M1061.17 270.113V306.968" stroke="#271A58" stroke-width="2" stroke-linecap="round"></path> <circle cx="1110.16" cy="303.937" r="1.76554" fill="#271A58"></circle> <circle cx="1119.56" cy="303.937" r="1.76554" fill="#271A58"></circle> <circle cx="1128.96" cy="303.937" r="1.76554" fill="#271A58"></circle> <path d="M1066.39 212.072V251.318" stroke="#271A58" stroke-width="2" stroke-linecap="round"></path> <path d="M1048.33 212.66C1046.36 219.855 1047.18 233.853 1066.22 232.283" stroke="#271A58" stroke-width="2" stroke-linecap="round"></path> <path d="M1055.42 719.537C1096.87 668.672 1367.5 569.502 1325.5 799.002L1286.72 871.264C1233.86 899.526 1132.86 901.878 1090.73 856.747L1044.11 865.702L1011.12 728.617L1055.42 719.537Z" fill="#BCEC30"></path> <path d="M1055.42 719.537C1096.87 668.672 1367.5 569.502 1325.5 799.002L1286.72 871.264C1233.86 899.526 1132.86 901.878 1090.73 856.747M1055.42 719.537L1090.73 856.747M1055.42 719.537L1011.12 728.617L1044.11 865.702L1090.73 856.747" stroke="black"></path> <path d="M1028.18 605.927L1028.18 605.927C1029.46 599.755 1032.04 587.412 1034.3 576.612L1037.24 562.534L1038.15 558.171L1038.4 556.975L1038.47 556.662L1038.49 556.583L1038.49 556.563L1038.49 556.557L1038.49 556.556C1038.49 556.556 1038.49 556.556 1038.52 556.562L1038.49 556.556C1039.84 550.124 1047.62 547.585 1052.5 551.984L1052.5 551.988L1052.5 551.99M1028.18 605.927L1088.59 587.284C1079.23 578.83 1051.16 553.473 1051.16 553.474L1052.5 551.99M1028.18 605.927C1027.27 610.289 1028.03 613.992 1030.36 616.329C1032.71 618.69 1036.17 619.163 1039.53 618.066L1039.57 618.055L1039.6 618.043L1039.64 618.031L1039.68 618.02L1039.71 618.008L1039.75 617.996L1039.79 617.983L1039.83 617.971L1039.86 617.959L1039.9 617.947L1039.94 617.934L1039.98 617.922L1040.02 617.909L1040.06 617.896L1040.1 617.883L1040.13 617.87L1040.17 617.858L1040.21 617.844L1040.25 617.831L1040.3 617.818L1040.34 617.805L1040.38 617.791L1040.42 617.778L1040.46 617.764L1040.5 617.751L1040.54 617.737L1040.59 617.723L1040.63 617.709L1040.67 617.695L1040.71 617.681L1040.76 617.667L1040.8 617.653L1040.85 617.639L1040.89 617.625L1040.93 617.61L1040.98 617.596L1041.02 617.581L1041.07 617.567L1041.11 617.552L1041.16 617.537L1041.2 617.522L1041.25 617.507L1041.29 617.492L1041.34 617.477L1041.39 617.462L1041.43 617.447L1041.48 617.432L1041.53 617.416L1041.58 617.401L1041.62 617.386L1041.67 617.37L1041.72 617.354L1041.77 617.339L1041.81 617.323L1041.86 617.307L1041.91 617.291L1041.96 617.275L1042.01 617.259L1042.06 617.243L1042.11 617.227L1042.16 617.211L1042.21 617.195L1042.26 617.178L1042.31 617.162L1042.36 617.146L1042.41 617.129L1042.46 617.112L1042.51 617.096L1042.56 617.079L1042.61 617.062L1042.67 617.046L1042.72 617.029L1042.77 617.012L1042.82 616.995L1042.87 616.978L1042.93 616.961L1042.98 616.943L1043.03 616.926L1043.08 616.909L1043.14 616.892L1043.19 616.874L1043.24 616.857L1043.3 616.839L1043.35 616.822L1043.41 616.804L1043.46 616.787L1043.51 616.769L1043.57 616.751L1043.62 616.733L1043.68 616.715L1043.73 616.698L1043.79 616.68L1043.84 616.662L1043.9 616.644L1043.95 616.625L1044.01 616.607L1044.07 616.589L1044.12 616.571L1044.18 616.553L1044.23 616.534L1044.29 616.516L1044.35 616.497L1044.4 616.479L1044.46 616.46L1044.52 616.442L1044.58 616.423L1044.63 616.405L1044.69 616.386L1044.75 616.367L1044.81 616.348L1044.86 616.329L1044.92 616.311L1044.98 616.292L1045.04 616.273L1045.1 616.254L1045.15 616.235L1045.21 616.216L1045.27 616.197L1045.33 616.177L1045.39 616.158L1045.45 616.139L1045.51 616.12L1045.57 616.1L1045.62 616.081L1045.68 616.062L1045.74 616.042L1045.8 616.023L1045.86 616.003L1045.92 615.984L1045.98 615.964L1046.04 615.945L1046.1 615.925L1046.16 615.906L1046.22 615.886L1046.28 615.866L1046.34 615.847L1046.41 615.827L1046.47 615.807L1046.53 615.787L1046.59 615.767L1046.65 615.747L1046.71 615.728L1046.77 615.708L1046.83 615.688L1046.89 615.668L1046.95 615.648L1047.02 615.628L1047.08 615.608L1047.14 615.587L1047.2 615.567L1047.26 615.547L1047.32 615.527L1047.39 615.507L1047.45 615.487L1047.51 615.466L1047.57 615.446L1047.64 615.426L1047.7 615.406L1047.76 615.385L1047.82 615.365L1047.88 615.345L1047.95 615.324L1048.01 615.304L1048.07 615.283L1048.14 615.263L1048.2 615.243L1048.26 615.222L1048.32 615.202L1048.39 615.181L1048.45 615.161L1048.51 615.14L1048.58 615.12L1048.64 615.099L1048.7 615.078L1048.76 615.058L1048.83 615.037L1048.89 615.017L1048.95 614.996L1049.02 614.975L1049.08 614.955L1049.14 614.934L1049.21 614.913L1049.27 614.893L1049.33 614.872L1049.4 614.851L1049.46 614.831L1049.53 614.81L1049.59 614.789L1049.65 614.769L1049.72 614.748L1049.78 614.727L1049.84 614.706L1049.91 614.686L1049.97 614.665L1050.03 614.644L1050.1 614.623L1050.16 614.603L1050.23 614.582L1050.29 614.561L1050.35 614.54L1050.42 614.519L1050.48 614.499L1050.54 614.478L1050.61 614.457L1050.67 614.436L1050.74 614.415L1050.8 614.395L1050.86 614.374L1050.93 614.353L1050.99 614.332L1051.05 614.312L1051.12 614.291L1051.18 614.27L1051.25 614.249L1051.31 614.229L1051.37 614.208L1051.44 614.187L1051.5 614.166L1051.56 614.145L1051.63 614.125L1051.69 614.104L1051.75 614.083L1051.82 614.063L1051.88 614.042L1051.95 614.021L1052.01 614L1052.07 613.98L1052.14 613.959L1052.2 613.938L1052.26 613.918L1052.33 613.897L1052.39 613.877L1052.45 613.856L1052.52 613.835L1052.58 613.815L1052.64 613.794L1052.71 613.774L1052.77 613.753L1052.83 613.733L1052.89 613.712L1052.96 613.691L1053.02 613.671L1053.08 613.651L1053.15 613.63L1053.21 613.61L1053.27 613.589L1053.33 613.569L1053.4 613.548L1053.46 613.528L1053.52 613.508L1053.58 613.487L1053.65 613.467L1053.71 613.447L1053.77 613.427L1053.83 613.406L1053.89 613.386L1053.96 613.366L1054.02 613.346L1054.08 613.326L1054.14 613.305L1054.2 613.285L1054.26 613.265L1054.33 613.245L1054.39 613.225L1054.45 613.205L1054.51 613.185L1054.57 613.165L1054.63 613.145L1054.69 613.125L1054.75 613.106L1054.82 613.086L1054.88 613.066L1054.94 613.046L1055 613.026L1055.06 613.007L1055.12 612.987L1055.18 612.967L1055.24 612.948L1055.3 612.928L1055.36 612.909L1055.42 612.889L1055.48 612.87L1055.54 612.85L1055.6 612.831L1055.66 612.811L1055.72 612.792L1055.78 612.773L1055.84 612.753L1055.89 612.734L1055.95 612.715L1056.01 612.696L1056.07 612.677L1056.13 612.658L1056.19 612.638L1056.25 612.619L1056.3 612.6L1056.36 612.582L1056.42 612.563L1056.48 612.544L1056.54 612.525L1056.59 612.506L1056.65 612.488L1056.71 612.469L1056.77 612.45L1056.82 612.432L1056.88 612.413L1056.94 612.395L1056.99 612.376L1057.05 612.358L1057.11 612.339L1057.16 612.321L1057.22 612.303L1057.27 612.284L1057.33 612.266L1057.39 612.248L1057.44 612.23L1057.5 612.212L1057.55 612.194L1057.61 612.176L1057.66 612.158L1057.72 612.14L1057.77 612.123L1057.83 612.105L1057.88 612.087L1057.93 612.07L1057.99 612.052L1058.04 612.034L1058.1 612.017L1058.15 612L1058.2 611.982L1058.25 611.965L1058.31 611.948L1058.36 611.93L1058.41 611.913L1058.47 611.896L1058.52 611.879L1058.57 611.862L1058.62 611.845L1058.67 611.828L1058.73 611.812L1058.78 611.795L1058.83 611.778L1058.88 611.762L1058.93 611.745L1058.98 611.729L1059.03 611.712L1059.08 611.696L1059.13 611.68L1059.18 611.663L1059.23 611.647L1059.28 611.631L1059.33 611.615L1059.38 611.599L1059.43 611.583L1059.48 611.567L1059.52 611.551L1059.57 611.536L1059.62 611.52L1059.67 611.504L1059.72 611.489L1059.76 611.474L1059.81 611.458L1059.86 611.443L1059.9 611.428L1059.95 611.412L1060 611.397L1060.04 611.382L1060.09 611.367L1060.13 611.352L1060.18 611.338L1060.22 611.323L1060.27 611.308L1060.31 611.294L1060.36 611.279L1060.4 611.265L1060.45 611.25L1060.49 611.236L1060.53 611.222L1060.58 611.208L1060.62 611.194L1060.66 611.18L1060.71 611.166L1060.75 611.152L1060.79 611.138L1060.83 611.124L1060.88 611.111L1060.92 611.097L1060.96 611.084L1061 611.071L1061.04 611.057L1061.08 611.044L1061.12 611.031L1061.16 611.018L1061.2 611.005L1061.24 610.992L1061.28 610.979L1061.32 610.967L1061.36 610.954L1061.39 610.942L1061.43 610.929L1061.47 610.917L1061.51 610.905L1061.55 610.892L1061.58 610.88L1061.62 610.868L1061.66 610.856L1061.69 610.845L1061.73 610.833L1061.76 610.821L1061.8 610.81L1061.83 610.798L1061.87 610.787L1061.9 610.775L1061.94 610.764L1061.97 610.753L1062.01 610.742L1062.04 610.731L1062.07 610.72L1062.11 610.71L1062.14 610.699L1062.17 610.689L1062.2 610.678L1062.23 610.668L1062.27 610.657L1062.3 610.647L1062.33 610.637L1062.36 610.627L1062.39 610.617L1062.42 610.608L1062.45 610.598L1062.48 610.588L1062.51 610.579L1062.54 610.57L1062.56 610.56L1062.59 610.551L1062.62 610.542L1062.65 610.533L1062.68 610.524L1062.7 610.516L1062.73 610.507L1062.75 610.498L1062.78 610.49L1062.81 610.482L1062.83 610.473L1062.86 610.465L1062.88 610.457L1062.91 610.449L1062.93 610.441L1062.95 610.434L1062.98 610.426L1063 610.419L1063.02 610.411L1063.04 610.404L1063.07 610.397L1063.09 610.39L1063.11 610.383L1063.13 610.376L1063.15 610.369L1063.17 610.363L1063.19 610.356L1063.21 610.35L1063.23 610.344L1063.25 610.337L1063.27 610.331L1063.29 610.325L1063.3 610.32L1063.32 610.314L1063.34 610.308L1063.35 610.303L1063.37 610.297L1063.39 610.292L1063.4 610.287L1063.42 610.282L1063.43 610.277L1063.45 610.272L1063.46 610.268L1063.48 610.263L1063.49 610.259L1063.5 610.255L1063.52 610.25L1063.53 610.246L1063.54 610.242L1063.55 610.239L1063.56 610.235L1063.57 610.231L1063.58 610.228L1063.59 610.225L1063.6 610.222L1063.61 610.218L1063.62 610.216L1063.63 610.213L1063.64 610.21L1063.65 610.207L1063.65 610.205L1063.66 610.203L1063.67 610.201L1063.67 610.199L1063.68 610.197L1063.69 610.195L1063.69 610.193L1063.7 610.192L1063.7 610.19L1063.7 610.189L1063.71 610.188L1063.71 610.187L1063.71 610.186L1063.72 610.185L1063.72 610.185L1063.72 610.184L1063.72 610.184L1063.72 610.184C1063.72 610.184 1063.72 610.184 1063.1 608.282C1063.72 610.184 1063.72 610.184 1063.72 610.183L1063.72 610.183L1063.72 610.183L1063.72 610.182L1063.73 610.182L1063.73 610.181L1063.73 610.18L1063.73 610.179L1063.74 610.178L1063.74 610.177L1063.75 610.175L1063.75 610.174L1063.76 610.172L1063.76 610.17L1063.77 610.169L1063.77 610.167L1063.78 610.164L1063.79 610.162L1063.79 610.16L1063.8 610.157L1063.81 610.154L1063.82 610.152L1063.83 610.149L1063.84 610.146L1063.85 610.142L1063.86 610.139L1063.87 610.136L1063.88 610.132L1063.89 610.128L1063.9 610.125L1063.91 610.121L1063.93 610.117L1063.94 610.113L1063.95 610.108L1063.97 610.104L1063.98 610.099L1063.99 610.095L1064.01 610.09L1064.02 610.085L1064.04 610.08L1064.05 610.075L1064.07 610.07L1064.09 610.064L1064.1 610.059L1064.12 610.053L1064.14 610.048L1064.16 610.042L1064.17 610.036L1064.19 610.03L1064.21 610.024L1064.23 610.017L1064.25 610.011L1064.27 610.004L1064.29 609.998L1064.31 609.991L1064.33 609.984L1064.35 609.977L1064.38 609.97L1064.4 609.963L1064.42 609.956L1064.44 609.948L1064.46 609.941L1064.49 609.933L1064.51 609.926L1064.54 609.918L1064.56 609.91L1064.58 609.902L1064.61 609.894L1064.64 609.886L1064.66 609.877L1064.69 609.869L1064.71 609.86L1064.74 609.852L1064.77 609.843L1064.79 609.834L1064.82 609.825L1064.85 609.816L1064.88 609.807L1064.91 609.797L1064.93 609.788L1064.96 609.779L1064.99 609.769L1065.02 609.759L1065.05 609.75L1065.08 609.74L1065.11 609.73L1065.14 609.72L1065.17 609.71L1065.21 609.699L1065.24 609.689L1065.27 609.679L1065.3 609.668L1065.34 609.657L1065.37 609.647L1065.4 609.636L1065.43 609.625L1065.47 609.614L1065.5 609.603L1065.54 609.592L1065.57 609.58L1065.61 609.569L1065.64 609.558L1065.68 609.546L1065.71 609.534L1065.75 609.523L1065.79 609.511L1065.82 609.499L1065.86 609.487L1065.9 609.475L1065.93 609.463L1065.97 609.45L1066.01 609.438L1066.05 609.426L1066.08 609.413L1066.12 609.4L1066.16 609.388L1066.2 609.375L1066.24 609.362L1066.28 609.349L1066.32 609.336L1066.36 609.323L1066.4 609.31L1066.44 609.297L1066.48 609.283L1066.52 609.27L1066.57 609.256L1066.61 609.243L1066.65 609.229L1066.69 609.215L1066.73 609.201L1066.78 609.187L1066.82 609.173L1066.86 609.159L1066.91 609.145L1066.95 609.131L1066.99 609.117L1067.04 609.102L1067.08 609.088L1067.13 609.073L1067.17 609.059L1067.22 609.044L1067.26 609.029L1067.31 609.015L1067.35 609L1067.4 608.985L1067.44 608.97L1067.49 608.955L1067.54 608.939L1067.58 608.924L1067.63 608.909L1067.68 608.894L1067.73 608.878L1067.77 608.863L1067.82 608.847L1067.87 608.831L1067.92 608.816L1067.97 608.8L1068.01 608.784L1068.06 608.768L1068.11 608.752L1068.16 608.736L1068.21 608.72L1068.26 608.704L1068.31 608.688L1068.36 608.671L1068.41 608.655L1068.46 608.638L1068.51 608.622L1068.56 608.605L1068.61 608.589L1068.66 608.572L1068.72 608.555L1068.77 608.539L1068.82 608.522L1068.87 608.505L1068.92 608.488L1068.98 608.471L1069.03 608.454L1069.08 608.437L1069.13 608.419L1069.19 608.402L1069.24 608.385L1069.29 608.368L1069.35 608.35L1069.4 608.333L1069.45 608.315L1069.51 608.298L1069.56 608.28L1069.62 608.262L1069.67 608.245L1069.72 608.227L1069.78 608.209L1069.83 608.191L1069.89 608.173L1069.94 608.155L1070 608.137L1070.06 608.119L1070.11 608.101L1070.17 608.083L1070.22 608.064L1070.28 608.046L1070.34 608.028L1070.39 608.009L1070.45 607.991L1070.5 607.973L1070.56 607.954L1070.62 607.936L1070.68 607.917L1070.73 607.898L1070.79 607.88L1070.85 607.861L1070.9 607.842L1070.96 607.823L1071.02 607.804L1071.08 607.786L1071.14 607.767L1071.19 607.748L1071.25 607.729L1071.31 607.71L1071.37 607.69L1071.43 607.671L1071.49 607.652L1071.55 607.633L1071.61 607.614L1071.66 607.594L1071.72 607.575L1071.78 607.556L1071.84 607.536L1071.9 607.517L1071.96 607.498L1072.02 607.478L1072.08 607.459L1072.14 607.439L1072.2 607.419L1072.26 607.4L1072.32 607.38L1072.38 607.36L1072.44 607.341L1072.5 607.321L1072.56 607.301L1072.63 607.281L1072.69 607.262L1072.75 607.242L1072.81 607.222L1072.87 607.202L1072.93 607.182L1072.99 607.162L1073.05 607.142L1073.11 607.122L1073.18 607.102L1073.24 607.082L1073.3 607.062L1073.36 607.042L1073.42 607.021L1073.49 607.001L1073.55 606.981L1073.61 606.961L1073.67 606.941L1073.73 606.92L1073.8 606.9L1073.86 606.88L1073.92 606.859L1073.98 606.839L1074.05 606.819L1074.11 606.798L1074.17 606.778L1074.23 606.757L1074.3 606.737L1074.36 606.717L1074.42 606.696L1074.48 606.676L1074.55 606.655L1074.61 606.635L1074.67 606.614L1074.74 606.593L1074.8 606.573L1074.86 606.552L1074.93 606.532L1074.99 606.511L1075.05 606.491L1075.12 606.47L1075.18 606.449L1075.24 606.429L1075.31 606.408L1075.37 606.387L1075.43 606.367L1075.5 606.346L1075.56 606.325L1075.62 606.305L1075.69 606.284L1075.75 606.263L1075.81 606.242L1075.88 606.222L1075.94 606.201L1076 606.18L1076.07 606.159L1076.13 606.139L1076.2 606.118L1076.26 606.097L1076.32 606.076L1076.39 606.056L1076.45 606.035L1076.51 606.014L1076.58 605.993L1076.64 605.972L1076.71 605.952L1076.77 605.931L1076.83 605.91L1076.9 605.889L1076.96 605.868L1077.02 605.848L1077.09 605.827L1077.15 605.806L1077.22 605.785L1077.28 605.765L1077.34 605.744L1077.41 605.723L1077.47 605.702L1077.53 605.682L1077.6 605.661L1077.66 605.64L1077.73 605.619L1077.79 605.599L1077.85 605.578L1077.92 605.557L1077.98 605.536L1078.04 605.516L1078.11 605.495L1078.17 605.474L1078.23 605.454L1078.3 605.433L1078.36 605.412L1078.42 605.392L1078.49 605.371L1078.55 605.35L1078.61 605.33L1078.68 605.309L1078.74 605.289L1078.8 605.268L1078.87 605.248L1078.93 605.227L1078.99 605.206L1079.05 605.186L1079.12 605.165L1079.18 605.145L1079.24 605.124L1079.31 605.104L1079.37 605.084L1079.43 605.063L1079.49 605.043L1079.56 605.022L1079.62 605.002L1079.68 604.982L1079.74 604.961L1079.81 604.941L1079.87 604.921L1079.93 604.901L1079.99 604.88L1080.05 604.86L1080.12 604.84L1080.18 604.82L1080.24 604.8L1080.3 604.78L1080.36 604.76L1080.42 604.739L1080.49 604.719L1080.55 604.699L1080.61 604.679L1080.67 604.659L1080.73 604.64L1080.79 604.62L1080.85 604.6L1080.91 604.58L1080.98 604.56L1081.04 604.54L1081.1 604.521L1081.16 604.501L1081.22 604.481L1081.28 604.461L1081.34 604.442L1081.4 604.422L1081.46 604.403L1081.52 604.383L1081.58 604.364L1081.64 604.344L1081.7 604.325L1081.76 604.305L1081.82 604.286L1081.88 604.267L1081.93 604.247L1081.99 604.228L1082.05 604.209L1082.11 604.19L1082.17 604.171L1082.23 604.151L1082.29 604.132L1082.35 604.113L1082.4 604.094L1082.46 604.075L1082.52 604.056L1082.58 604.038L1082.64 604.019L1082.69 604L1082.75 603.981L1082.81 603.963L1082.87 603.944L1082.92 603.925L1082.98 603.907L1083.04 603.888L1083.09 603.87L1083.15 603.851L1083.21 603.833L1083.26 603.815L1083.32 603.796L1083.37 603.778L1083.43 603.76L1083.49 603.742L1083.54 603.724L1083.6 603.706L1083.65 603.687L1083.71 603.67L1083.76 603.652L1083.82 603.634L1083.87 603.616L1083.93 603.598L1083.98 603.581L1084.03 603.563L1084.09 603.545L1084.14 603.528L1084.2 603.51L1084.25 603.493L1084.3 603.475L1084.36 603.458L1084.41 603.441L1084.46 603.424L1084.51 603.406L1084.57 603.389L1084.62 603.372L1084.67 603.355L1084.72 603.338L1084.78 603.322L1084.83 603.305L1084.88 603.288L1084.93 603.271L1084.98 603.255L1085.03 603.238L1085.08 603.222L1085.13 603.205L1085.18 603.189L1085.23 603.172L1085.28 603.156L1085.33 603.14L1085.38 603.124L1085.43 603.108L1085.48 603.092L1085.53 603.076L1085.58 603.06L1085.63 603.044L1085.68 603.028L1085.72 603.013L1085.77 602.997L1085.82 602.982L1085.87 602.966L1085.91 602.951L1085.96 602.935L1086.01 602.92L1086.05 602.905L1086.1 602.89L1086.15 602.875L1086.19 602.86L1086.24 602.845L1086.28 602.83L1086.33 602.815L1086.37 602.8L1086.42 602.786L1086.46 602.771L1086.51 602.757L1086.55 602.742L1086.6 602.728L1086.64 602.714L1086.68 602.7L1086.73 602.686L1086.77 602.672L1086.81 602.658L1086.85 602.644L1086.9 602.63L1086.94 602.616L1086.98 602.603L1087.02 602.589L1087.06 602.576L1087.11 602.562L1087.15 602.549L1087.19 602.536L1087.23 602.523L1087.27 602.51L1087.31 602.497L1087.35 602.484L1087.39 602.471L1087.42 602.458L1087.46 602.446L1087.5 602.433L1087.54 602.421L1087.58 602.408L1087.62 602.396L1087.65 602.384L1087.69 602.372L1087.73 602.359L1087.76 602.348L1087.8 602.336L1087.84 602.324L1087.87 602.312L1087.91 602.301C1091.27 601.204 1093.79 598.782 1094.3 595.488C1094.8 592.227 1093.24 588.786 1089.93 585.8M1028.18 605.927L1089.93 585.8M1052.5 551.99L1052.52 552.005L1052.58 552.061L1052.82 552.276L1053.73 553.095C1054.51 553.805 1055.65 554.829 1057.04 556.083C1059.81 558.592 1063.62 562.026 1067.71 565.724C1075.9 573.12 1085.25 581.573 1089.93 585.8M1052.5 551.99L1089.93 585.8" fill="#A576FF" stroke="white" stroke-width="4"></path> <path d="M1016.98 571.587L1016.98 571.587C1016.07 575.949 1016.83 579.652 1019.16 581.989C1021.52 584.35 1024.97 584.824 1028.34 583.727L1028.38 583.715L1028.41 583.703L1028.45 583.692L1028.48 583.68L1028.52 583.668L1028.56 583.656L1028.59 583.644L1028.63 583.631L1028.67 583.619L1028.71 583.607L1028.75 583.594L1028.78 583.582L1028.82 583.569L1028.86 583.556L1028.9 583.544L1028.94 583.531L1028.98 583.518L1029.02 583.505L1029.06 583.491L1029.1 583.478L1029.14 583.465L1029.18 583.452L1029.22 583.438L1029.27 583.425L1029.31 583.411L1029.35 583.397L1029.39 583.383L1029.43 583.37L1029.48 583.356L1029.52 583.342L1029.56 583.328L1029.61 583.313L1029.65 583.299L1029.7 583.285L1029.74 583.27L1029.78 583.256L1029.83 583.241L1029.87 583.227L1029.92 583.212L1029.96 583.197L1030.01 583.182L1030.05 583.168L1030.1 583.153L1030.15 583.138L1030.19 583.122L1030.24 583.107L1030.29 583.092L1030.33 583.077L1030.38 583.061L1030.43 583.046L1030.48 583.03L1030.52 583.015L1030.57 582.999L1030.62 582.983L1030.67 582.967L1030.72 582.951L1030.77 582.936L1030.82 582.92L1030.87 582.903L1030.91 582.887L1030.96 582.871L1031.01 582.855L1031.06 582.839L1031.11 582.822L1031.17 582.806L1031.22 582.789L1031.27 582.773L1031.32 582.756L1031.37 582.739L1031.42 582.723L1031.47 582.706L1031.52 582.689L1031.58 582.672L1031.63 582.655L1031.68 582.638L1031.73 582.621L1031.79 582.604L1031.84 582.586L1031.89 582.569L1031.94 582.552L1032 582.534L1032.05 582.517L1032.1 582.5L1032.16 582.482L1032.21 582.464L1032.27 582.447L1032.32 582.429L1032.38 582.411L1032.43 582.393L1032.48 582.376L1032.54 582.358L1032.59 582.34L1032.65 582.322L1032.71 582.304L1032.76 582.286L1032.82 582.267L1032.87 582.249L1032.93 582.231L1032.98 582.213L1033.04 582.194L1033.1 582.176L1033.15 582.158L1033.21 582.139L1033.27 582.121L1033.32 582.102L1033.38 582.083L1033.44 582.065L1033.5 582.046L1033.55 582.027L1033.61 582.008L1033.67 581.99L1033.73 581.971L1033.79 581.952L1033.84 581.933L1033.9 581.914L1033.96 581.895L1034.02 581.876L1034.08 581.857L1034.14 581.838L1034.19 581.818L1034.25 581.799L1034.31 581.78L1034.37 581.761L1034.43 581.741L1034.49 581.722L1034.55 581.703L1034.61 581.683L1034.67 581.664L1034.73 581.644L1034.79 581.625L1034.85 581.605L1034.91 581.585L1034.97 581.566L1035.03 581.546L1035.09 581.526L1035.15 581.507L1035.21 581.487L1035.27 581.467L1035.33 581.447L1035.39 581.427L1035.45 581.408L1035.52 581.388L1035.58 581.368L1035.64 581.348L1035.7 581.328L1035.76 581.308L1035.82 581.288L1035.88 581.268L1035.95 581.248L1036.01 581.228L1036.07 581.207L1036.13 581.187L1036.19 581.167L1036.26 581.147L1036.32 581.127L1036.38 581.106L1036.44 581.086L1036.5 581.066L1036.57 581.045L1036.63 581.025L1036.69 581.005L1036.75 580.984L1036.82 580.964L1036.88 580.944L1036.94 580.923L1037 580.903L1037.07 580.882L1037.13 580.862L1037.19 580.841L1037.26 580.821L1037.32 580.8L1037.38 580.78L1037.44 580.759L1037.51 580.739L1037.57 580.718L1037.63 580.697L1037.7 580.677L1037.76 580.656L1037.82 580.636L1037.89 580.615L1037.95 580.594L1038.01 580.574L1038.08 580.553L1038.14 580.532L1038.2 580.512L1038.27 580.491L1038.33 580.47L1038.39 580.449L1038.46 580.429L1038.52 580.408L1038.59 580.387L1038.65 580.366L1038.71 580.346L1038.78 580.325L1038.84 580.304L1038.9 580.283L1038.97 580.263L1039.03 580.242L1039.1 580.221L1039.16 580.2L1039.22 580.18L1039.29 580.159L1039.35 580.138L1039.41 580.117L1039.48 580.096L1039.54 580.076L1039.61 580.055L1039.67 580.034L1039.73 580.013L1039.8 579.993L1039.86 579.972L1039.92 579.951L1039.99 579.93L1040.05 579.909L1040.12 579.889L1040.18 579.868L1040.24 579.847L1040.31 579.826L1040.37 579.806L1040.43 579.785L1040.5 579.764L1040.56 579.743L1040.62 579.723L1040.69 579.702L1040.75 579.681L1040.82 579.661L1040.88 579.64L1040.94 579.619L1041.01 579.599L1041.07 579.578L1041.13 579.557L1041.2 579.537L1041.26 579.516L1041.32 579.495L1041.39 579.475L1041.45 579.454L1041.51 579.434L1041.57 579.413L1041.64 579.393L1041.7 579.372L1041.76 579.352L1041.83 579.331L1041.89 579.311L1041.95 579.29L1042.01 579.27L1042.08 579.249L1042.14 579.229L1042.2 579.209L1042.26 579.188L1042.33 579.168L1042.39 579.148L1042.45 579.127L1042.51 579.107L1042.58 579.087L1042.64 579.066L1042.7 579.046L1042.76 579.026L1042.82 579.006L1042.89 578.986L1042.95 578.966L1043.01 578.945L1043.07 578.925L1043.13 578.905L1043.19 578.885L1043.26 578.865L1043.32 578.845L1043.38 578.825L1043.44 578.805L1043.5 578.786L1043.56 578.766L1043.62 578.746L1043.68 578.726L1043.74 578.706L1043.8 578.687L1043.86 578.667L1043.92 578.647L1043.99 578.628L1044.05 578.608L1044.11 578.588L1044.17 578.569L1044.23 578.549L1044.29 578.53L1044.34 578.51L1044.4 578.491L1044.46 578.471L1044.52 578.452L1044.58 578.433L1044.64 578.414L1044.7 578.394L1044.76 578.375L1044.82 578.356L1044.88 578.337L1044.94 578.318L1044.99 578.299L1045.05 578.28L1045.11 578.261L1045.17 578.242L1045.23 578.223L1045.28 578.204L1045.34 578.185L1045.4 578.166L1045.46 578.148L1045.51 578.129L1045.57 578.11L1045.63 578.092L1045.69 578.073L1045.74 578.055L1045.8 578.036L1045.86 578.018L1045.91 577.999L1045.97 577.981L1046.02 577.963L1046.08 577.945L1046.14 577.926L1046.19 577.908L1046.25 577.89L1046.3 577.872L1046.36 577.854L1046.41 577.836L1046.47 577.818L1046.52 577.801L1046.58 577.783L1046.63 577.765L1046.69 577.747L1046.74 577.73L1046.79 577.712L1046.85 577.695L1046.9 577.677L1046.95 577.66L1047.01 577.642L1047.06 577.625L1047.11 577.608L1047.17 577.591L1047.22 577.573L1047.27 577.556L1047.32 577.539L1047.38 577.522L1047.43 577.505L1047.48 577.489L1047.53 577.472L1047.58 577.455L1047.63 577.438L1047.68 577.422L1047.74 577.405L1047.79 577.389L1047.84 577.372L1047.89 577.356L1047.94 577.34L1047.99 577.323L1048.04 577.307L1048.09 577.291L1048.13 577.275L1048.18 577.259L1048.23 577.243L1048.28 577.227L1048.33 577.212L1048.38 577.196L1048.43 577.18L1048.47 577.165L1048.52 577.149L1048.57 577.134L1048.62 577.118L1048.66 577.103L1048.71 577.088L1048.76 577.073L1048.8 577.058L1048.85 577.042L1048.89 577.028L1048.94 577.013L1048.99 576.998L1049.03 576.983L1049.08 576.968L1049.12 576.954L1049.17 576.939L1049.21 576.925L1049.25 576.911L1049.3 576.896L1049.34 576.882L1049.38 576.868L1049.43 576.854L1049.47 576.84L1049.51 576.826L1049.56 576.812L1049.6 576.798L1049.64 576.785L1049.68 576.771L1049.72 576.758L1049.76 576.744L1049.81 576.731L1049.85 576.717L1049.89 576.704L1049.93 576.691L1049.97 576.678L1050.01 576.665L1050.05 576.652L1050.08 576.64L1050.12 576.627L1050.16 576.614L1050.2 576.602L1050.24 576.589L1050.28 576.577L1050.31 576.565L1050.35 576.553L1050.39 576.54L1050.43 576.528L1050.46 576.517L1050.5 576.505L1050.53 576.493L1050.57 576.481L1050.61 576.47L1050.64 576.458L1050.68 576.447L1050.71 576.436L1050.74 576.424L1050.78 576.413L1050.81 576.402L1050.85 576.391L1050.88 576.381L1050.91 576.37L1050.94 576.359L1050.98 576.349L1051.01 576.338L1051.04 576.328L1051.07 576.318L1051.1 576.307L1051.13 576.297L1051.17 576.287L1051.2 576.278L1051.23 576.268L1051.26 576.258L1051.28 576.249L1051.31 576.239L1051.34 576.23L1051.37 576.221L1051.4 576.211L1051.43 576.202L1051.45 576.193L1051.48 576.184L1051.51 576.176L1051.53 576.167L1051.56 576.159L1051.59 576.15L1051.61 576.142L1051.64 576.133L1051.66 576.125L1051.69 576.117L1051.71 576.109L1051.74 576.102L1051.76 576.094L1051.78 576.086L1051.81 576.079L1051.83 576.071L1051.85 576.064L1051.87 576.057L1051.89 576.05L1051.92 576.043L1051.94 576.036L1051.96 576.029L1051.98 576.023L1052 576.016L1052.02 576.01L1052.04 576.004L1052.05 575.998L1052.07 575.991L1052.09 575.986L1052.11 575.98L1052.13 575.974L1052.14 575.968L1052.16 575.963L1052.18 575.958L1052.19 575.952L1052.21 575.947L1052.22 575.942L1052.24 575.937L1052.25 575.933L1052.27 575.928L1052.28 575.923L1052.3 575.919L1052.31 575.915L1052.32 575.911L1052.33 575.907L1052.35 575.903L1052.36 575.899L1052.37 575.895L1052.38 575.892L1052.39 575.888L1052.4 575.885L1052.41 575.882L1052.42 575.879L1052.43 575.876L1052.44 575.873L1052.45 575.87L1052.45 575.868L1052.46 575.865L1052.47 575.863L1052.47 575.861L1052.48 575.859L1052.49 575.857L1052.49 575.855L1052.5 575.853L1052.5 575.852L1052.51 575.85L1052.51 575.849L1052.51 575.848L1052.52 575.847L1052.52 575.846L1052.52 575.845L1052.52 575.845L1052.52 575.844L1052.53 575.844L1052.53 575.844C1052.53 575.844 1052.53 575.844 1051.91 573.942C1052.53 575.844 1052.53 575.844 1052.53 575.844L1052.53 575.843L1052.53 575.843L1052.53 575.843L1052.53 575.842L1052.53 575.841L1052.54 575.84L1052.54 575.839L1052.54 575.838L1052.55 575.837L1052.55 575.836L1052.56 575.834L1052.56 575.832L1052.57 575.831L1052.57 575.829L1052.58 575.827L1052.59 575.825L1052.59 575.822L1052.6 575.82L1052.61 575.817L1052.62 575.815L1052.62 575.812L1052.63 575.809L1052.64 575.806L1052.65 575.803L1052.66 575.799L1052.67 575.796L1052.68 575.792L1052.7 575.789L1052.71 575.785L1052.72 575.781L1052.73 575.777L1052.74 575.773L1052.76 575.768L1052.77 575.764L1052.79 575.759L1052.8 575.755L1052.81 575.75L1052.83 575.745L1052.84 575.74L1052.86 575.735L1052.88 575.73L1052.89 575.724L1052.91 575.719L1052.93 575.713L1052.94 575.708L1052.96 575.702L1052.98 575.696L1053 575.69L1053.02 575.684L1053.04 575.677L1053.06 575.671L1053.08 575.665L1053.1 575.658L1053.12 575.651L1053.14 575.644L1053.16 575.637L1053.18 575.63L1053.2 575.623L1053.23 575.616L1053.25 575.609L1053.27 575.601L1053.29 575.594L1053.32 575.586L1053.34 575.578L1053.37 575.57L1053.39 575.562L1053.42 575.554L1053.44 575.546L1053.47 575.537L1053.49 575.529L1053.52 575.52L1053.55 575.512L1053.57 575.503L1053.6 575.494L1053.63 575.485L1053.65 575.476L1053.68 575.467L1053.71 575.458L1053.74 575.448L1053.77 575.439L1053.8 575.429L1053.83 575.42L1053.86 575.41L1053.89 575.4L1053.92 575.39L1053.95 575.38L1053.98 575.37L1054.01 575.36L1054.04 575.349L1054.08 575.339L1054.11 575.328L1054.14 575.318L1054.17 575.307L1054.21 575.296L1054.24 575.285L1054.27 575.274L1054.31 575.263L1054.34 575.252L1054.38 575.241L1054.41 575.229L1054.45 575.218L1054.48 575.206L1054.52 575.194L1054.55 575.183L1054.59 575.171L1054.63 575.159L1054.66 575.147L1054.7 575.135L1054.74 575.123L1054.78 575.11L1054.81 575.098L1054.85 575.086L1054.89 575.073L1054.93 575.061L1054.97 575.048L1055.01 575.035L1055.05 575.022L1055.09 575.009L1055.13 574.996L1055.17 574.983L1055.21 574.97L1055.25 574.957L1055.29 574.943L1055.33 574.93L1055.37 574.916L1055.41 574.903L1055.46 574.889L1055.5 574.875L1055.54 574.862L1055.58 574.848L1055.63 574.834L1055.67 574.82L1055.71 574.805L1055.76 574.791L1055.8 574.777L1055.84 574.763L1055.89 574.748L1055.93 574.734L1055.98 574.719L1056.02 574.704L1056.07 574.69L1056.11 574.675L1056.16 574.66L1056.2 574.645L1056.25 574.63L1056.3 574.615L1056.34 574.6L1056.39 574.584L1056.44 574.569L1056.48 574.554L1056.53 574.538L1056.58 574.523L1056.63 574.507L1056.68 574.492L1056.72 574.476L1056.77 574.46L1056.82 574.444L1056.87 574.428L1056.92 574.412L1056.97 574.396L1057.02 574.38L1057.07 574.364L1057.12 574.348L1057.17 574.331L1057.22 574.315L1057.27 574.299L1057.32 574.282L1057.37 574.266L1057.42 574.249L1057.47 574.232L1057.52 574.216L1057.57 574.199L1057.63 574.182L1057.68 574.165L1057.73 574.148L1057.78 574.131L1057.83 574.114L1057.89 574.097L1057.94 574.08L1057.99 574.062L1058.05 574.045L1058.1 574.028L1058.15 574.01L1058.21 573.993L1058.26 573.975L1058.31 573.958L1058.37 573.94L1058.42 573.922L1058.48 573.905L1058.53 573.887L1058.59 573.869L1058.64 573.851L1058.7 573.833L1058.75 573.815L1058.81 573.797L1058.86 573.779L1058.92 573.761L1058.97 573.743L1059.03 573.725L1059.09 573.706L1059.14 573.688L1059.2 573.67L1059.25 573.651L1059.31 573.633L1059.37 573.614L1059.42 573.596L1059.48 573.577L1059.54 573.558L1059.6 573.54L1059.65 573.521L1059.71 573.502L1059.77 573.483L1059.83 573.465L1059.88 573.446L1059.94 573.427L1060 573.408L1060.06 573.389L1060.12 573.37L1060.18 573.351L1060.24 573.331L1060.29 573.312L1060.35 573.293L1060.41 573.274L1060.47 573.255L1060.53 573.235L1060.59 573.216L1060.65 573.197L1060.71 573.177L1060.77 573.158L1060.83 573.138L1060.89 573.119L1060.95 573.099L1061.01 573.08L1061.07 573.06L1061.13 573.04L1061.19 573.021L1061.25 573.001L1061.31 572.981L1061.37 572.961L1061.43 572.942L1061.49 572.922L1061.55 572.902L1061.61 572.882L1061.68 572.862L1061.74 572.842L1061.8 572.822L1061.86 572.802L1061.92 572.782L1061.98 572.762L1062.04 572.742L1062.11 572.722L1062.17 572.702L1062.23 572.682L1062.29 572.661L1062.35 572.641L1062.42 572.621L1062.48 572.601L1062.54 572.58L1062.6 572.56L1062.66 572.54L1062.73 572.52L1062.79 572.499L1062.85 572.479L1062.91 572.458L1062.98 572.438L1063.04 572.418L1063.1 572.397L1063.16 572.377L1063.23 572.356L1063.29 572.336L1063.35 572.315L1063.42 572.295L1063.48 572.274L1063.54 572.254L1063.61 572.233L1063.67 572.213L1063.73 572.192L1063.79 572.171L1063.86 572.151L1063.92 572.13L1063.98 572.109L1064.05 572.089L1064.11 572.068L1064.17 572.047L1064.24 572.027L1064.3 572.006L1064.37 571.985L1064.43 571.965L1064.49 571.944L1064.56 571.923L1064.62 571.902L1064.68 571.882L1064.75 571.861L1064.81 571.84L1064.87 571.82L1064.94 571.799L1065 571.778L1065.07 571.757L1065.13 571.736L1065.19 571.716L1065.26 571.695L1065.32 571.674L1065.38 571.653L1065.45 571.633L1065.51 571.612L1065.58 571.591L1065.64 571.57L1065.7 571.549L1065.77 571.529L1065.83 571.508L1065.89 571.487L1065.96 571.466L1066.02 571.446L1066.09 571.425L1066.15 571.404L1066.21 571.383L1066.28 571.362L1066.34 571.342L1066.4 571.321L1066.47 571.3L1066.53 571.279L1066.6 571.259L1066.66 571.238L1066.72 571.217L1066.79 571.197L1066.85 571.176L1066.91 571.155L1066.98 571.134L1067.04 571.114L1067.1 571.093L1067.17 571.072L1067.23 571.052L1067.29 571.031L1067.36 571.011L1067.42 570.99L1067.48 570.969L1067.55 570.949L1067.61 570.928L1067.67 570.908L1067.74 570.887L1067.8 570.867L1067.86 570.846L1067.92 570.826L1067.99 570.805L1068.05 570.785L1068.11 570.764L1068.17 570.744L1068.24 570.723L1068.3 570.703L1068.36 570.683L1068.43 570.662L1068.49 570.642L1068.55 570.622L1068.61 570.601L1068.67 570.581L1068.74 570.561L1068.8 570.541L1068.86 570.52L1068.92 570.5L1068.98 570.48L1069.05 570.46L1069.11 570.44L1069.17 570.42L1069.23 570.4L1069.29 570.38L1069.35 570.36L1069.42 570.34L1069.48 570.32L1069.54 570.3L1069.6 570.28L1069.66 570.26L1069.72 570.24L1069.78 570.22L1069.84 570.2L1069.9 570.181L1069.96 570.161L1070.02 570.141L1070.08 570.122L1070.14 570.102L1070.2 570.082L1070.26 570.063L1070.32 570.043L1070.38 570.024L1070.44 570.004L1070.5 569.985L1070.56 569.965L1070.62 569.946L1070.68 569.927L1070.74 569.907L1070.8 569.888L1070.86 569.869L1070.92 569.85L1070.98 569.831L1071.04 569.812L1071.09 569.793L1071.15 569.773L1071.21 569.755L1071.27 569.736L1071.33 569.717L1071.38 569.698L1071.44 569.679L1071.5 569.66L1071.56 569.641L1071.61 569.623L1071.67 569.604L1071.73 569.585L1071.79 569.567L1071.84 569.548L1071.9 569.53L1071.96 569.511L1072.01 569.493L1072.07 569.475L1072.12 569.456L1072.18 569.438L1072.24 569.42L1072.29 569.402L1072.35 569.384L1072.4 569.366L1072.46 569.348L1072.51 569.33L1072.57 569.312L1072.62 569.294L1072.68 569.276L1072.73 569.258L1072.79 569.241L1072.84 569.223L1072.9 569.205L1072.95 569.188L1073 569.17L1073.06 569.153L1073.11 569.136L1073.16 569.118L1073.22 569.101L1073.27 569.084L1073.32 569.067L1073.37 569.049L1073.43 569.032L1073.48 569.015L1073.53 568.999L1073.58 568.982L1073.63 568.965L1073.68 568.948L1073.74 568.931L1073.79 568.915L1073.84 568.898L1073.89 568.882L1073.94 568.865L1073.99 568.849L1074.04 568.833L1074.09 568.816L1074.14 568.8L1074.19 568.784L1074.24 568.768L1074.29 568.752L1074.34 568.736L1074.38 568.72L1074.43 568.704L1074.48 568.688L1074.53 568.673L1074.58 568.657L1074.62 568.642L1074.67 568.626L1074.72 568.611L1074.77 568.595L1074.81 568.58L1074.86 568.565L1074.91 568.55L1074.95 568.535L1075 568.52L1075.04 568.505L1075.09 568.49L1075.14 568.475L1075.18 568.461L1075.23 568.446L1075.27 568.431L1075.31 568.417L1075.36 568.403L1075.4 568.388L1075.45 568.374L1075.49 568.36L1075.53 568.346L1075.58 568.332L1075.62 568.318L1075.66 568.304L1075.7 568.29L1075.75 568.276L1075.79 568.263L1075.83 568.249L1075.87 568.236L1075.91 568.222L1075.95 568.209L1075.99 568.196L1076.03 568.183L1076.07 568.17L1076.11 568.157L1076.15 568.144L1076.19 568.131L1076.23 568.118L1076.27 568.106L1076.31 568.093L1076.35 568.081L1076.38 568.068L1076.42 568.056L1076.46 568.044L1076.5 568.032L1076.53 568.02L1076.57 568.008L1076.61 567.996L1076.64 567.984L1076.68 567.972L1076.71 567.961C1080.08 566.864 1082.59 564.442 1083.1 561.149C1083.61 557.888 1082.04 554.446 1078.74 551.46C1074.68 547.791 1067.01 540.866 1059.74 534.298L1057 531.827L1046.57 522.397L1043.33 519.475L1042.53 518.75L1042.53 518.749L1042.14 518.4L1042.14 518.4L1042.13 518.392C1036.89 513.653 1028.52 516.382 1027.07 523.3L1027.07 523.301C1027.07 523.3 1027.07 523.3 1027.07 523.3L1027.07 523.302L1027.07 523.306L1027.07 523.326L1027.05 523.404L1026.99 523.71L1026.74 524.88L1025.85 529.147L1022.97 542.916C1020.77 553.479 1018.24 565.551 1016.98 571.587Z" fill="#BEA4FF" stroke="white" stroke-width="4"></path> <mask id="path-98-outside-1_7042_13987" maskUnits="userSpaceOnUse" x="1020.78" y="540.82" width="55.2434" height="44.3479" fill="black"> <rect fill="white" x="1020.78" y="540.82" width="55.2434" height="44.3479"></rect> <path fill-rule="evenodd" clip-rule="evenodd" d="M1035.8 579.195C1038.25 567.493 1040.45 556.961 1040.45 556.961C1041.47 552.038 1047.43 550.098 1051.16 553.47C1051.16 553.469 1059.14 560.681 1068.02 568.696L1051.91 573.946L1035.8 579.195Z"></path> </mask> <path fill-rule="evenodd" clip-rule="evenodd" d="M1035.8 579.195C1038.25 567.493 1040.45 556.961 1040.45 556.961C1041.47 552.038 1047.43 550.098 1051.16 553.47C1051.16 553.469 1059.14 560.681 1068.02 568.696L1051.91 573.946L1035.8 579.195Z" fill="#5526C6"></path> <path d="M1035.8 579.195L1031.88 578.377L1030.47 585.139L1037.04 582.998L1035.8 579.195ZM1040.45 556.961L1044.36 557.779L1044.36 557.779L1040.45 556.961ZM1051.16 553.47L1048.48 556.438L1050.2 557.991L1052.4 557.273L1051.16 553.47ZM1068.02 568.696L1069.26 572.499L1075.82 570.358L1070.7 565.727L1068.02 568.696ZM1039.72 580.014C1040.94 574.162 1042.1 568.604 1042.96 564.508C1043.38 562.46 1043.74 560.778 1043.98 559.608C1044.1 559.022 1044.2 558.565 1044.26 558.254C1044.3 558.099 1044.32 557.98 1044.34 557.9C1044.34 557.86 1044.35 557.83 1044.36 557.81C1044.36 557.799 1044.36 557.792 1044.36 557.787C1044.36 557.784 1044.36 557.782 1044.36 557.781C1044.36 557.78 1044.36 557.78 1044.36 557.78C1044.36 557.779 1044.36 557.779 1044.36 557.779C1044.36 557.779 1044.36 557.779 1040.45 556.961C1036.53 556.142 1036.53 556.142 1036.53 556.142C1036.53 556.143 1036.53 556.143 1036.53 556.143C1036.53 556.143 1036.53 556.144 1036.53 556.144C1036.53 556.146 1036.53 556.148 1036.53 556.15C1036.53 556.155 1036.53 556.163 1036.52 556.173C1036.52 556.193 1036.51 556.224 1036.51 556.264C1036.49 556.344 1036.46 556.462 1036.43 556.618C1036.37 556.929 1036.27 557.386 1036.15 557.971C1035.9 559.141 1035.55 560.823 1035.12 562.871C1034.27 566.967 1033.11 572.526 1031.88 578.377L1039.72 580.014ZM1044.36 557.779C1044.76 555.879 1047.04 555.136 1048.48 556.438L1053.84 550.502C1047.82 545.059 1038.19 548.196 1036.53 556.143L1044.36 557.779ZM1052.4 557.273C1050.45 557.407 1048.63 556.567 1048.58 556.526C1048.56 556.512 1048.54 556.49 1048.53 556.483C1048.51 556.472 1048.5 556.463 1048.5 556.462C1048.5 556.459 1048.5 556.457 1048.5 556.456C1048.5 556.455 1048.5 556.455 1048.5 556.455C1048.5 556.454 1048.5 556.455 1048.5 556.455C1048.5 556.456 1048.5 556.456 1048.5 556.457C1048.5 556.459 1048.5 556.461 1048.51 556.464C1048.52 556.477 1048.54 556.496 1048.57 556.524C1048.63 556.578 1048.72 556.658 1048.84 556.765C1049.07 556.977 1049.42 557.29 1049.86 557.69C1050.75 558.492 1052.03 559.643 1053.58 561.046C1056.69 563.85 1060.9 567.657 1065.34 571.664L1070.7 565.727C1066.26 561.72 1062.05 557.914 1058.94 555.109C1057.39 553.706 1056.11 552.554 1055.23 551.753C1054.78 551.352 1054.44 551.039 1054.2 550.826C1054.08 550.719 1053.99 550.637 1053.93 550.582C1053.9 550.554 1053.87 550.532 1053.86 550.517C1053.85 550.509 1053.84 550.502 1053.83 550.495C1053.83 550.493 1053.82 550.487 1053.82 550.48C1053.81 550.478 1053.8 550.469 1053.79 550.457C1053.78 550.449 1053.76 550.428 1053.74 550.413C1053.69 550.372 1051.86 549.532 1049.92 549.667L1052.4 557.273ZM1066.78 564.892L1050.67 570.143L1053.15 577.749L1069.26 572.499L1066.78 564.892ZM1050.67 570.143L1034.56 575.392L1037.04 582.998L1053.15 577.749L1050.67 570.143Z" fill="white" mask="url(#path-98-outside-1_7042_13987)"></path> <path d="M1088.25 587.655L1088.25 587.655C1091.18 590.3 1092.16 592.96 1091.83 595.106C1091.5 597.244 1089.84 599.041 1087.13 599.924L1087.1 599.935L1087.06 599.947L1087.03 599.959L1086.99 599.971L1086.95 599.983L1086.92 599.995L1086.88 600.007L1086.84 600.019L1086.8 600.031L1086.77 600.044L1086.73 600.056L1086.69 600.069L1086.65 600.081L1086.61 600.094L1086.57 600.107L1086.53 600.12L1086.49 600.133L1086.45 600.146L1086.41 600.159L1086.37 600.172L1086.33 600.185L1086.29 600.199L1086.25 600.212L1086.21 600.226L1086.16 600.239L1086.12 600.253L1086.08 600.267L1086.04 600.281L1085.99 600.295L1085.95 600.309L1085.91 600.323L1085.87 600.337L1085.82 600.351L1085.78 600.365L1085.73 600.38L1085.69 600.394L1085.64 600.409L1085.6 600.424L1085.55 600.438L1085.51 600.453L1085.46 600.468L1085.42 600.483L1085.37 600.498L1085.33 600.513L1085.28 600.528L1085.23 600.543L1085.19 600.558L1085.14 600.574L1085.09 600.589L1085.04 600.605L1085 600.62L1084.95 600.636L1084.9 600.651L1084.85 600.667L1084.8 600.683L1084.75 600.699L1084.71 600.715L1084.66 600.731L1084.61 600.747L1084.56 600.763L1084.51 600.779L1084.46 600.795L1084.41 600.812L1084.36 600.828L1084.31 600.845L1084.26 600.861L1084.21 600.878L1084.16 600.894L1084.1 600.911L1084.05 600.928L1084 600.945L1083.95 600.961L1083.9 600.978L1083.85 600.995L1083.79 601.012L1083.74 601.029L1083.69 601.047L1083.63 601.064L1083.58 601.081L1083.53 601.098L1083.48 601.116L1083.42 601.133L1083.37 601.151L1083.31 601.168L1083.26 601.186L1083.21 601.204L1083.15 601.221L1083.1 601.239L1083.04 601.257L1082.99 601.275L1082.93 601.293L1082.88 601.311L1082.82 601.329L1082.77 601.347L1082.71 601.365L1082.66 601.383L1082.6 601.401L1082.54 601.419L1082.49 601.438L1082.43 601.456L1082.38 601.474L1082.32 601.493L1082.26 601.511L1082.21 601.53L1082.15 601.548L1082.09 601.567L1082.03 601.586L1081.98 601.604L1081.92 601.623L1081.86 601.642L1081.8 601.661L1081.75 601.68L1081.69 601.698L1081.63 601.717L1081.57 601.736L1081.51 601.755L1081.45 601.774L1081.4 601.794L1081.34 601.813L1081.28 601.832L1081.22 601.851L1081.16 601.87L1081.1 601.89L1081.04 601.909L1080.98 601.928L1080.92 601.948L1080.86 601.967L1080.8 601.987L1080.74 602.006L1080.68 602.026L1080.62 602.045L1080.56 602.065L1080.5 602.085L1080.44 602.104L1080.38 602.124L1080.32 602.144L1080.26 602.163L1080.2 602.183L1080.14 602.203L1080.08 602.223L1080.02 602.243L1079.96 602.263L1079.9 602.283L1079.83 602.302L1079.77 602.322L1079.71 602.342L1079.65 602.363L1079.59 602.383L1079.53 602.403L1079.47 602.423L1079.4 602.443L1079.34 602.463L1079.28 602.483L1079.22 602.503L1079.16 602.524L1079.09 602.544L1079.03 602.564L1078.97 602.584L1078.91 602.605L1078.84 602.625L1078.78 602.645L1078.72 602.666L1078.66 602.686L1078.59 602.707L1078.53 602.727L1078.47 602.748L1078.41 602.768L1078.34 602.788L1078.28 602.809L1078.22 602.829L1078.15 602.85L1078.09 602.871L1078.03 602.891L1077.97 602.912L1077.9 602.932L1077.84 602.953L1077.78 602.973L1077.71 602.994L1077.65 603.015L1077.59 603.035L1077.52 603.056L1077.46 603.077L1077.4 603.097L1077.33 603.118L1077.27 603.139L1077.2 603.159L1077.14 603.18L1077.08 603.201L1077.01 603.222L1076.95 603.242L1076.89 603.263L1076.82 603.284L1076.76 603.305L1076.7 603.325L1076.63 603.346L1076.57 603.367L1076.5 603.388L1076.44 603.408L1076.38 603.429L1076.31 603.45L1076.25 603.471L1076.19 603.492L1076.12 603.512L1076.06 603.533L1075.99 603.554L1075.93 603.575L1075.87 603.595L1075.8 603.616L1075.74 603.637L1075.68 603.658L1075.61 603.679L1075.55 603.699L1075.48 603.72L1075.42 603.741L1075.36 603.762L1075.29 603.782L1075.23 603.803L1075.17 603.824L1075.1 603.845L1075.04 603.865L1074.98 603.886L1074.91 603.907L1074.85 603.928L1074.78 603.948L1074.72 603.969L1074.66 603.99L1074.59 604.01L1074.53 604.031L1074.47 604.052L1074.4 604.072L1074.34 604.093L1074.28 604.114L1074.21 604.134L1074.15 604.155L1074.09 604.175L1074.02 604.196L1073.96 604.217L1073.9 604.237L1073.84 604.258L1073.77 604.278L1073.71 604.299L1073.65 604.319L1073.58 604.34L1073.52 604.36L1073.46 604.381L1073.4 604.401L1073.33 604.421L1073.27 604.442L1073.21 604.462L1073.15 604.482L1073.08 604.503L1073.02 604.523L1072.96 604.543L1072.9 604.564L1072.83 604.584L1072.77 604.604L1072.71 604.624L1072.65 604.644L1072.59 604.665L1072.52 604.685L1072.46 604.705L1072.4 604.725L1072.34 604.745L1072.28 604.765L1072.22 604.785L1072.16 604.805L1072.09 604.825L1072.03 604.845L1071.97 604.865L1071.91 604.885L1071.85 604.904L1071.79 604.924L1071.73 604.944L1071.67 604.964L1071.61 604.983L1071.55 605.003L1071.49 605.023L1071.43 605.042L1071.37 605.062L1071.31 605.082L1071.25 605.101L1071.19 605.121L1071.13 605.14L1071.07 605.159L1071.01 605.179L1070.95 605.198L1070.89 605.217L1070.83 605.237L1070.77 605.256L1070.71 605.275L1070.65 605.294L1070.6 605.314L1070.54 605.333L1070.48 605.352L1070.42 605.371L1070.36 605.39L1070.3 605.409L1070.25 605.427L1070.19 605.446L1070.13 605.465L1070.07 605.484L1070.02 605.503L1069.96 605.521L1069.9 605.54L1069.84 605.559L1069.79 605.577L1069.73 605.596L1069.67 605.614L1069.62 605.632L1069.56 605.651L1069.5 605.669L1069.45 605.687L1069.39 605.706L1069.34 605.724L1069.28 605.742L1069.23 605.76L1069.17 605.778L1069.11 605.796L1069.06 605.814L1069 605.832L1068.95 605.85L1068.9 605.868L1068.84 605.885L1068.79 605.903L1068.73 605.921L1068.68 605.938L1068.63 605.956L1068.57 605.973L1068.52 605.991L1068.46 606.008L1068.41 606.025L1068.36 606.043L1068.31 606.06L1068.25 606.077L1068.2 606.094L1068.15 606.111L1068.1 606.128L1068.04 606.145L1067.99 606.162L1067.94 606.178L1067.89 606.195L1067.84 606.212L1067.79 606.228L1067.74 606.245L1067.69 606.262L1067.64 606.278L1067.59 606.294L1067.54 606.311L1067.49 606.327L1067.44 606.343L1067.39 606.359L1067.34 606.375L1067.29 606.391L1067.24 606.407L1067.19 606.423L1067.14 606.439L1067.09 606.454L1067.05 606.47L1067 606.486L1066.95 606.501L1066.9 606.517L1066.86 606.532L1066.81 606.547L1066.76 606.563L1066.72 606.578L1066.67 606.593L1066.62 606.608L1066.58 606.623L1066.53 606.638L1066.49 606.652L1066.44 606.667L1066.4 606.682L1066.35 606.696L1066.31 606.711L1066.26 606.725L1066.22 606.74L1066.18 606.754L1066.13 606.768L1066.09 606.782L1066.05 606.797L1066 606.811L1065.96 606.824L1065.92 606.838L1065.87 606.852L1065.83 606.866L1065.79 606.879L1065.75 606.893L1065.71 606.906L1065.67 606.92L1065.63 606.933L1065.59 606.946L1065.55 606.959L1065.51 606.972L1065.47 606.985L1065.43 606.998L1065.39 607.011L1065.35 607.023L1065.31 607.036L1065.27 607.049L1065.23 607.061L1065.2 607.073L1065.16 607.086L1065.12 607.098L1065.08 607.11L1065.05 607.122L1065.01 607.134L1064.97 607.146L1064.94 607.157L1064.9 607.169L1064.87 607.181L1064.83 607.192L1064.8 607.203L1064.76 607.215L1064.73 607.226L1064.69 607.237L1064.66 607.248L1064.63 607.259L1064.59 607.27L1064.56 607.28L1064.53 607.291L1064.5 607.302L1064.46 607.312L1064.43 607.322L1064.4 607.333L1064.37 607.343L1064.34 607.353L1064.31 607.363L1064.28 607.373L1064.25 607.382L1064.22 607.392L1064.19 607.402L1064.16 607.411L1064.13 607.421L1064.1 607.43L1064.07 607.439L1064.05 607.448L1064.02 607.457L1063.99 607.466L1063.96 607.475L1063.94 607.483L1063.91 607.492L1063.89 607.5L1063.86 607.509L1063.84 607.517L1063.81 607.525L1063.79 607.533L1063.76 607.541L1063.74 607.549L1063.71 607.556L1063.69 607.564L1063.67 607.571L1063.64 607.579L1063.62 607.586L1063.6 607.593L1063.58 607.6L1063.56 607.607L1063.54 607.614L1063.52 607.621L1063.5 607.627L1063.48 607.634L1063.46 607.64L1063.44 607.647L1063.42 607.653L1063.4 607.659L1063.38 607.665L1063.36 607.671L1063.35 607.676L1063.33 607.682L1063.31 607.687L1063.3 607.693L1063.28 607.698L1063.26 607.703L1063.25 607.708L1063.23 607.713L1063.22 607.718L1063.2 607.722L1063.19 607.727L1063.18 607.731L1063.16 607.736L1063.15 607.74L1063.14 607.744L1063.13 607.748L1063.12 607.751L1063.1 607.755L1063.09 607.759L1063.08 607.762L1063.07 607.765L1063.06 607.769L1063.05 607.772L1063.04 607.775L1063.04 607.777L1063.03 607.78L1063.02 607.783L1063.01 607.785L1063 607.787L1063 607.79L1062.99 607.792L1062.99 607.794L1062.98 607.795L1062.98 607.797L1062.97 607.799L1062.97 607.8L1062.96 607.801L1062.96 607.802L1062.96 607.803L1062.95 607.804L1062.95 607.805L1062.95 607.806L1062.95 607.806L1062.95 607.806L1062.95 607.807C1062.95 607.807 1062.95 607.807 1063.1 608.282C1062.95 607.807 1062.95 607.807 1062.95 607.807L1062.95 607.807L1062.94 607.807L1062.94 607.808L1062.94 607.808L1062.94 607.809L1062.94 607.81L1062.93 607.811L1062.93 607.812L1062.93 607.813L1062.92 607.815L1062.92 607.816L1062.91 607.818L1062.91 607.82L1062.9 607.822L1062.89 607.824L1062.89 607.826L1062.88 607.828L1062.87 607.831L1062.86 607.833L1062.86 607.836L1062.85 607.839L1062.84 607.842L1062.83 607.845L1062.82 607.848L1062.81 607.851L1062.8 607.854L1062.79 607.858L1062.78 607.862L1062.77 607.866L1062.75 607.869L1062.74 607.873L1062.73 607.878L1062.71 607.882L1062.7 607.886L1062.69 607.891L1062.67 607.896L1062.66 607.9L1062.64 607.905L1062.63 607.91L1062.61 607.915L1062.6 607.921L1062.58 607.926L1062.56 607.931L1062.55 607.937L1062.53 607.943L1062.51 607.948L1062.49 607.954L1062.47 607.96L1062.46 607.967L1062.44 607.973L1062.42 607.979L1062.4 607.986L1062.38 607.992L1062.36 607.999L1062.33 608.006L1062.31 608.013L1062.29 608.02L1062.27 608.027L1062.25 608.034L1062.22 608.042L1062.2 608.049L1062.18 608.057L1062.15 608.064L1062.13 608.072L1062.11 608.08L1062.08 608.088L1062.06 608.096L1062.03 608.105L1062.01 608.113L1061.98 608.121L1061.95 608.13L1061.93 608.139L1061.9 608.147L1061.87 608.156L1061.85 608.165L1061.82 608.174L1061.79 608.183L1061.76 608.193L1061.73 608.202L1061.7 608.212L1061.67 608.221L1061.64 608.231L1061.61 608.241L1061.58 608.25L1061.55 608.26L1061.52 608.27L1061.49 608.281L1061.46 608.291L1061.43 608.301L1061.4 608.312L1061.36 608.322L1061.33 608.333L1061.3 608.343L1061.27 608.354L1061.23 608.365L1061.2 608.376L1061.16 608.387L1061.13 608.399L1061.1 608.41L1061.06 608.421L1061.03 608.433L1060.99 608.444L1060.95 608.456L1060.92 608.468L1060.88 608.479L1060.84 608.491L1060.81 608.503L1060.77 608.515L1060.73 608.528L1060.7 608.54L1060.66 608.552L1060.62 608.565L1060.58 608.577L1060.54 608.59L1060.5 608.602L1060.46 608.615L1060.43 608.628L1060.39 608.641L1060.35 608.654L1060.31 608.667L1060.26 608.68L1060.22 608.694L1060.18 608.707L1060.14 608.72L1060.1 608.734L1060.06 608.748L1060.02 608.761L1059.97 608.775L1059.93 608.789L1059.89 608.803L1059.85 608.817L1059.8 608.831L1059.76 608.845L1059.72 608.859L1059.67 608.873L1059.63 608.888L1059.58 608.902L1059.54 608.917L1059.49 608.931L1059.45 608.946L1059.4 608.961L1059.36 608.976L1059.31 608.99L1059.27 609.005L1059.22 609.02L1059.18 609.035L1059.13 609.051L1059.08 609.066L1059.04 609.081L1058.99 609.097L1058.94 609.112L1058.89 609.128L1058.85 609.143L1058.8 609.159L1058.75 609.174L1058.7 609.19L1058.65 609.206L1058.6 609.222L1058.55 609.238L1058.5 609.254L1058.46 609.27L1058.41 609.286L1058.36 609.303L1058.31 609.319L1058.26 609.335L1058.21 609.352L1058.15 609.368L1058.1 609.385L1058.05 609.401L1058 609.418L1057.95 609.435L1057.9 609.452L1057.85 609.468L1057.8 609.485L1057.74 609.502L1057.69 609.519L1057.64 609.536L1057.59 609.553L1057.53 609.571L1057.48 609.588L1057.43 609.605L1057.37 609.623L1057.32 609.64L1057.27 609.657L1057.21 609.675L1057.16 609.693L1057.11 609.71L1057.05 609.728L1057 609.746L1056.94 609.763L1056.89 609.781L1056.83 609.799L1056.78 609.817L1056.72 609.835L1056.67 609.853L1056.61 609.871L1056.56 609.889L1056.5 609.908L1056.44 609.926L1056.39 609.944L1056.33 609.962L1056.28 609.981L1056.22 609.999L1056.16 610.018L1056.11 610.036L1056.05 610.055L1055.99 610.073L1055.93 610.092L1055.88 610.111L1055.82 610.129L1055.76 610.148L1055.7 610.167L1055.65 610.186L1055.59 610.205L1055.53 610.224L1055.47 610.243L1055.41 610.262L1055.35 610.281L1055.3 610.3L1055.24 610.319L1055.18 610.338L1055.12 610.357L1055.06 610.376L1055 610.396L1054.94 610.415L1054.88 610.434L1054.82 610.454L1054.76 610.473L1054.7 610.493L1054.64 610.512L1054.58 610.532L1054.52 610.551L1054.46 610.571L1054.4 610.59L1054.34 610.61L1054.28 610.63L1054.22 610.649L1054.16 610.669L1054.1 610.689L1054.04 610.709L1053.98 610.729L1053.92 610.748L1053.86 610.768L1053.8 610.788L1053.74 610.808L1053.67 610.828L1053.61 610.848L1053.55 610.868L1053.49 610.888L1053.43 610.908L1053.37 610.928L1053.31 610.949L1053.24 610.969L1053.18 610.989L1053.12 611.009L1053.06 611.029L1053 611.05L1052.93 611.07L1052.87 611.09L1052.81 611.11L1052.75 611.131L1052.68 611.151L1052.62 611.171L1052.56 611.192L1052.5 611.212L1052.43 611.233L1052.37 611.253L1052.31 611.274L1052.25 611.294L1052.18 611.315L1052.12 611.335L1052.06 611.356L1051.99 611.376L1051.93 611.397L1051.87 611.417L1051.8 611.438L1051.74 611.458L1051.68 611.479L1051.61 611.5L1051.55 611.52L1051.49 611.541L1051.42 611.562L1051.36 611.582L1051.3 611.603L1051.23 611.624L1051.17 611.644L1051.11 611.665L1051.04 611.686L1050.98 611.706L1050.92 611.727L1050.85 611.748L1050.79 611.769L1050.73 611.789L1050.66 611.81L1050.6 611.831L1050.53 611.852L1050.47 611.872L1050.41 611.893L1050.34 611.914L1050.28 611.935L1050.22 611.955L1050.15 611.976L1050.09 611.997L1050.02 612.018L1049.96 612.039L1049.9 612.059L1049.83 612.08L1049.77 612.101L1049.71 612.122L1049.64 612.142L1049.58 612.163L1049.51 612.184L1049.45 612.205L1049.39 612.226L1049.32 612.246L1049.26 612.267L1049.2 612.288L1049.13 612.309L1049.07 612.329L1049 612.35L1048.94 612.371L1048.88 612.392L1048.81 612.412L1048.75 612.433L1048.69 612.454L1048.62 612.474L1048.56 612.495L1048.5 612.516L1048.43 612.537L1048.37 612.557L1048.31 612.578L1048.24 612.598L1048.18 612.619L1048.12 612.64L1048.05 612.66L1047.99 612.681L1047.93 612.702L1047.86 612.722L1047.8 612.743L1047.74 612.763L1047.67 612.784L1047.61 612.804L1047.55 612.825L1047.49 612.845L1047.42 612.866L1047.36 612.886L1047.3 612.907L1047.24 612.927L1047.17 612.947L1047.11 612.968L1047.05 612.988L1046.99 613.008L1046.92 613.029L1046.86 613.049L1046.8 613.069L1046.74 613.09L1046.67 613.11L1046.61 613.13L1046.55 613.15L1046.49 613.17L1046.43 613.19L1046.36 613.211L1046.3 613.231L1046.24 613.251L1046.18 613.271L1046.12 613.291L1046.06 613.311L1046 613.331L1045.94 613.351L1045.87 613.371L1045.81 613.39L1045.75 613.41L1045.69 613.43L1045.63 613.45L1045.57 613.47L1045.51 613.489L1045.45 613.509L1045.39 613.529L1045.33 613.548L1045.27 613.568L1045.21 613.587L1045.15 613.607L1045.09 613.627L1045.03 613.646L1044.97 613.665L1044.91 613.685L1044.85 613.704L1044.79 613.724L1044.73 613.743L1044.67 613.762L1044.61 613.781L1044.55 613.8L1044.5 613.82L1044.44 613.839L1044.38 613.858L1044.32 613.877L1044.26 613.896L1044.2 613.915L1044.15 613.934L1044.09 613.953L1044.03 613.971L1043.97 613.99L1043.92 614.009L1043.86 614.028L1043.8 614.046L1043.74 614.065L1043.69 614.083L1043.63 614.102L1043.57 614.12L1043.52 614.139L1043.46 614.157L1043.4 614.176L1043.35 614.194L1043.29 614.212L1043.24 614.23L1043.18 614.248L1043.12 614.267L1043.07 614.285L1043.01 614.303L1042.96 614.321L1042.9 614.339L1042.85 614.356L1042.79 614.374L1042.74 614.392L1042.69 614.41L1042.63 614.427L1042.58 614.445L1042.52 614.462L1042.47 614.48L1042.42 614.497L1042.36 614.515L1042.31 614.532L1042.26 614.549L1042.2 614.567L1042.15 614.584L1042.1 614.601L1042.05 614.618L1041.99 614.635L1041.94 614.652L1041.89 614.669L1041.84 614.685L1041.79 614.702L1041.74 614.719L1041.69 614.736L1041.63 614.752L1041.58 614.769L1041.53 614.785L1041.48 614.801L1041.43 614.818L1041.38 614.834L1041.33 614.85L1041.28 614.866L1041.24 614.882L1041.19 614.898L1041.14 614.914L1041.09 614.93L1041.04 614.946L1040.99 614.962L1040.94 614.977L1040.9 614.993L1040.85 615.009L1040.8 615.024L1040.75 615.04L1040.71 615.055L1040.66 615.07L1040.61 615.085L1040.57 615.1L1040.52 615.115L1040.47 615.13L1040.43 615.145L1040.38 615.16L1040.34 615.175L1040.29 615.19L1040.25 615.204L1040.2 615.219L1040.16 615.233L1040.11 615.248L1040.07 615.262L1040.03 615.276L1039.98 615.29L1039.94 615.305L1039.9 615.319L1039.85 615.332L1039.81 615.346L1039.77 615.36L1039.73 615.374L1039.69 615.387L1039.64 615.401L1039.6 615.414L1039.56 615.428L1039.52 615.441L1039.48 615.454L1039.44 615.468L1039.4 615.481L1039.36 615.494L1039.32 615.506L1039.28 615.519L1039.24 615.532L1039.2 615.545L1039.16 615.557L1039.13 615.57L1039.09 615.582L1039.05 615.594L1039.01 615.607L1038.98 615.619L1038.94 615.631L1038.9 615.643L1038.87 615.654L1038.83 615.666L1038.79 615.678L1038.76 615.69C1036.05 616.572 1033.65 616.096 1032.13 614.564C1030.59 613.026 1029.82 610.302 1030.62 606.438C1031.91 600.266 1034.49 587.924 1036.75 577.124L1039.69 563.046L1040.6 558.682L1040.85 557.486L1040.92 557.174L1040.93 557.094L1040.94 557.074L1040.94 557.069L1040.94 557.068C1040.94 557.067 1040.94 557.067 1040.45 556.965L1040.94 557.067L1040.94 557.067C1041.89 552.522 1047.38 550.732 1050.83 553.845L1050.83 553.849L1051.04 554.039L1051.04 554.039L1051.14 554.132L1052.05 554.951C1052.84 555.661 1053.97 556.684 1055.36 557.939C1058.14 560.448 1061.94 563.881 1066.03 567.579C1074.22 574.975 1083.58 583.428 1088.25 587.655Z" fill="#A576FF" stroke="#271A58"></path> <path d="M1051.91 573.942C1051.75 573.467 1051.75 573.467 1051.75 573.467L1051.75 573.467L1051.75 573.467L1051.75 573.468L1051.75 573.468L1051.74 573.469L1051.74 573.47L1051.74 573.471L1051.74 573.472L1051.73 573.473L1051.73 573.475L1051.72 573.476L1051.72 573.478L1051.71 573.48L1051.71 573.482L1051.7 573.484L1051.69 573.486L1051.69 573.488L1051.68 573.491L1051.67 573.493L1051.66 573.496L1051.65 573.499L1051.65 573.502L1051.64 573.505L1051.63 573.508L1051.62 573.511L1051.61 573.515L1051.59 573.518L1051.58 573.522L1051.57 573.526L1051.56 573.53L1051.55 573.534L1051.53 573.538L1051.52 573.542L1051.51 573.546L1051.49 573.551L1051.48 573.556L1051.46 573.56L1051.45 573.565L1051.43 573.57L1051.42 573.575L1051.4 573.581L1051.39 573.586L1051.37 573.591L1051.35 573.597L1051.33 573.603L1051.32 573.609L1051.3 573.615L1051.28 573.621L1051.26 573.627L1051.24 573.633L1051.22 573.639L1051.2 573.646L1051.18 573.653L1051.16 573.659L1051.14 573.666L1051.12 573.673L1051.1 573.68L1051.08 573.687L1051.05 573.694L1051.03 573.702L1051.01 573.709L1050.98 573.717L1050.96 573.725L1050.94 573.732L1050.91 573.74L1050.89 573.748L1050.86 573.757L1050.84 573.765L1050.81 573.773L1050.79 573.782L1050.76 573.79L1050.73 573.799L1050.71 573.808L1050.68 573.816L1050.65 573.825L1050.62 573.834L1050.6 573.844L1050.57 573.853L1050.54 573.862L1050.51 573.872L1050.48 573.881L1050.45 573.891L1050.42 573.901L1050.39 573.911L1050.36 573.92L1050.33 573.931L1050.3 573.941L1050.27 573.951L1050.23 573.961L1050.2 573.972L1050.17 573.982L1050.14 573.993L1050.1 574.004L1050.07 574.014L1050.04 574.025L1050 574.036L1049.97 574.047L1049.94 574.059L1049.9 574.07L1049.87 574.081L1049.83 574.093L1049.8 574.104L1049.76 574.116L1049.72 574.128L1049.69 574.14L1049.65 574.151L1049.61 574.163L1049.58 574.176L1049.54 574.188L1049.5 574.2L1049.46 574.212L1049.43 574.225L1049.39 574.237L1049.35 574.25L1049.31 574.263L1049.27 574.275L1049.23 574.288L1049.19 574.301L1049.15 574.314L1049.11 574.327L1049.07 574.341L1049.03 574.354L1048.99 574.367L1048.95 574.381L1048.91 574.394L1048.87 574.408L1048.82 574.421L1048.78 574.435L1048.74 574.449L1048.7 574.463L1048.65 574.477L1048.61 574.491L1048.57 574.505L1048.52 574.519L1048.48 574.534L1048.43 574.548L1048.39 574.562L1048.35 574.577L1048.3 574.591L1048.26 574.606L1048.21 574.621L1048.17 574.636L1048.12 574.651L1048.07 574.666L1048.03 574.681L1047.98 574.696L1047.93 574.711L1047.89 574.726L1047.84 574.741L1047.79 574.757L1047.75 574.772L1047.7 574.788L1047.65 574.803L1047.6 574.819L1047.55 574.835L1047.51 574.85L1047.46 574.866L1047.41 574.882L1047.36 574.898L1047.31 574.914L1047.26 574.93L1047.21 574.947L1047.16 574.963L1047.11 574.979L1047.06 574.995L1047.01 575.012L1046.96 575.028L1046.91 575.045L1046.86 575.061L1046.81 575.078L1046.76 575.095L1046.7 575.112L1046.65 575.129L1046.6 575.145L1046.55 575.162L1046.5 575.179L1046.44 575.196L1046.39 575.214L1046.34 575.231L1046.29 575.248L1046.23 575.265L1046.18 575.283L1046.13 575.3L1046.07 575.318L1046.02 575.335L1045.97 575.353L1045.91 575.37L1045.86 575.388L1045.8 575.406L1045.75 575.424L1045.69 575.441L1045.64 575.459L1045.58 575.477L1045.53 575.495L1045.47 575.513L1045.42 575.531L1045.36 575.549L1045.31 575.568L1045.25 575.586L1045.19 575.604L1045.14 575.622L1045.08 575.641L1045.02 575.659L1044.97 575.678L1044.91 575.696L1044.85 575.715L1044.8 575.733L1044.74 575.752L1044.68 575.771L1044.63 575.789L1044.57 575.808L1044.51 575.827L1044.45 575.846L1044.39 575.865L1044.34 575.884L1044.28 575.903L1044.22 575.922L1044.16 575.941L1044.1 575.96L1044.04 575.979L1043.99 575.998L1043.93 576.017L1043.87 576.037L1043.81 576.056L1043.75 576.075L1043.69 576.095L1043.63 576.114L1043.57 576.133L1043.51 576.153L1043.45 576.172L1043.39 576.192L1043.33 576.211L1043.27 576.231L1043.21 576.251L1043.15 576.27L1043.09 576.29L1043.03 576.31L1042.97 576.329L1042.91 576.349L1042.85 576.369L1042.79 576.389L1042.73 576.409L1042.66 576.429L1042.6 576.448L1042.54 576.468L1042.48 576.488L1042.42 576.508L1042.36 576.528L1042.3 576.548L1042.23 576.569L1042.17 576.589L1042.11 576.609L1042.05 576.629L1041.99 576.649L1041.93 576.669L1041.86 576.69L1041.8 576.71L1041.74 576.73L1041.68 576.75L1041.61 576.771L1041.55 576.791L1041.49 576.811L1041.43 576.832L1041.37 576.852L1041.3 576.872L1041.24 576.893L1041.18 576.913L1041.11 576.934L1041.05 576.954L1040.99 576.975L1040.93 576.995L1040.86 577.016L1040.8 577.036L1040.74 577.057L1040.67 577.077L1040.61 577.098L1040.55 577.119L1040.48 577.139L1040.42 577.16L1040.36 577.18L1040.29 577.201L1040.23 577.222L1040.17 577.242L1040.1 577.263L1040.04 577.284L1039.98 577.304L1039.91 577.325L1039.85 577.346L1039.79 577.367L1039.72 577.387L1039.66 577.408L1039.6 577.429L1039.53 577.449L1039.47 577.47L1039.4 577.491L1039.34 577.512L1039.28 577.532L1039.21 577.553L1039.15 577.574L1039.09 577.595L1039.02 577.616L1038.96 577.636L1038.89 577.657L1038.83 577.678L1038.77 577.699L1038.7 577.719L1038.64 577.74L1038.58 577.761L1038.51 577.782L1038.45 577.803L1038.38 577.823L1038.32 577.844L1038.26 577.865L1038.19 577.886L1038.13 577.907L1038.07 577.927L1038 577.948L1037.94 577.969L1037.87 577.99L1037.81 578.01L1037.75 578.031L1037.68 578.052L1037.62 578.072L1037.56 578.093L1037.49 578.114L1037.43 578.135L1037.37 578.155L1037.3 578.176L1037.24 578.197L1037.18 578.217L1037.11 578.238L1037.05 578.259L1036.99 578.279L1036.92 578.3L1036.86 578.321L1036.8 578.341L1036.73 578.362L1036.67 578.382L1036.61 578.403L1036.54 578.423L1036.48 578.444L1036.42 578.464L1036.35 578.485L1036.29 578.505L1036.23 578.526L1036.17 578.546L1036.1 578.567L1036.04 578.587L1035.98 578.607L1035.92 578.628L1035.85 578.648L1035.79 578.669L1035.73 578.689L1035.67 578.709L1035.6 578.729L1035.54 578.75L1035.48 578.77L1035.42 578.79L1035.36 578.81L1035.29 578.83L1035.23 578.851L1035.17 578.871L1035.11 578.891L1035.05 578.911L1034.99 578.931L1034.93 578.951L1034.86 578.971L1034.8 578.991L1034.74 579.011L1034.68 579.031L1034.62 579.051L1034.56 579.07L1034.5 579.09L1034.44 579.11L1034.38 579.13L1034.32 579.149L1034.26 579.169L1034.19 579.189L1034.13 579.208L1034.07 579.228L1034.01 579.248L1033.95 579.267L1033.89 579.287L1033.84 579.306L1033.78 579.326L1033.72 579.345L1033.66 579.364L1033.6 579.384L1033.54 579.403L1033.48 579.422L1033.42 579.441L1033.36 579.461L1033.3 579.48L1033.24 579.499L1033.19 579.518L1033.13 579.537L1033.07 579.556L1033.01 579.575L1032.95 579.594L1032.89 579.613L1032.84 579.632L1032.78 579.65L1032.72 579.669L1032.66 579.688L1032.61 579.706L1032.55 579.725L1032.49 579.744L1032.44 579.762L1032.38 579.781L1032.32 579.799L1032.27 579.817L1032.21 579.836L1032.15 579.854L1032.1 579.872L1032.04 579.89L1031.99 579.909L1031.93 579.927L1031.88 579.945L1031.82 579.963L1031.77 579.981L1031.71 579.999L1031.66 580.017L1031.6 580.034L1031.55 580.052L1031.49 580.07L1031.44 580.087L1031.38 580.105L1031.33 580.123L1031.28 580.14L1031.22 580.158L1031.17 580.175L1031.12 580.192L1031.06 580.209L1031.01 580.227L1030.96 580.244L1030.91 580.261L1030.85 580.278L1030.8 580.295L1030.75 580.312L1030.7 580.329L1030.65 580.346L1030.59 580.362L1030.54 580.379L1030.49 580.396L1030.44 580.412L1030.39 580.429L1030.34 580.445L1030.29 580.462L1030.24 580.478L1030.19 580.494L1030.14 580.51L1030.09 580.527L1030.04 580.543L1029.99 580.559L1029.94 580.575L1029.89 580.59L1029.85 580.606L1029.8 580.622L1029.75 580.638L1029.7 580.653L1029.65 580.669L1029.61 580.684L1029.56 580.7L1029.51 580.715L1029.47 580.73L1029.42 580.745L1029.37 580.761L1029.33 580.776L1029.28 580.791L1029.23 580.806L1029.19 580.82L1029.14 580.835L1029.1 580.85L1029.05 580.864L1029.01 580.879L1028.96 580.893L1028.92 580.908L1028.88 580.922L1028.83 580.936L1028.79 580.951L1028.75 580.965L1028.7 580.979L1028.66 580.993L1028.62 581.007L1028.58 581.02L1028.53 581.034L1028.49 581.048L1028.45 581.061L1028.41 581.075L1028.37 581.088L1028.33 581.101L1028.29 581.115L1028.25 581.128L1028.21 581.141L1028.17 581.154L1028.13 581.167L1028.09 581.179L1028.05 581.192L1028.01 581.205L1027.97 581.217L1027.93 581.23L1027.89 581.242L1027.86 581.254L1027.82 581.267L1027.78 581.279L1027.75 581.291L1027.71 581.303L1027.67 581.315L1027.64 581.326L1027.6 581.338L1027.56 581.35C1024.86 582.232 1022.46 581.757 1020.93 580.225C1019.4 578.687 1018.62 575.962 1019.43 572.098C1020.69 566.062 1023.21 553.99 1025.42 543.428L1028.3 529.659L1029.19 525.391L1029.43 524.221L1029.5 523.916L1029.51 523.838L1029.52 523.818L1029.52 523.813L1029.52 523.812C1029.52 523.811 1029.52 523.811 1029.03 523.709L1029.52 523.811L1029.52 523.811C1030.57 518.782 1036.64 516.803 1040.46 520.247L1040.46 520.251L1040.48 520.265L1040.54 520.318L1040.77 520.528L1041.65 521.33L1044.89 524.253L1055.33 533.682L1057.89 535.992C1065.21 542.608 1072.97 549.616 1077.06 553.315C1079.99 555.961 1080.97 558.62 1080.63 560.766C1080.3 562.904 1078.65 564.701 1075.94 565.584L1075.9 565.595L1075.87 565.607L1075.83 565.619L1075.8 565.631L1075.76 565.643L1075.72 565.655L1075.68 565.667L1075.65 565.679L1075.61 565.691L1075.57 565.704L1075.53 565.716L1075.49 565.729L1075.46 565.741L1075.42 565.754L1075.38 565.767L1075.34 565.78L1075.3 565.793L1075.26 565.806L1075.22 565.819L1075.18 565.832L1075.14 565.846L1075.1 565.859L1075.05 565.872L1075.01 565.886L1074.97 565.9L1074.93 565.913L1074.89 565.927L1074.84 565.941L1074.8 565.955L1074.76 565.969L1074.71 565.983L1074.67 565.997L1074.63 566.011L1074.58 566.026L1074.54 566.04L1074.5 566.055L1074.45 566.069L1074.41 566.084L1074.36 566.098L1074.32 566.113L1074.27 566.128L1074.22 566.143L1074.18 566.158L1074.13 566.173L1074.09 566.188L1074.04 566.203L1073.99 566.219L1073.94 566.234L1073.9 566.249L1073.85 566.265L1073.8 566.28L1073.75 566.296L1073.71 566.312L1073.66 566.327L1073.61 566.343L1073.56 566.359L1073.51 566.375L1073.46 566.391L1073.41 566.407L1073.36 566.423L1073.31 566.439L1073.26 566.456L1073.21 566.472L1073.16 566.488L1073.11 566.505L1073.06 566.521L1073.01 566.538L1072.96 566.554L1072.91 566.571L1072.86 566.588L1072.81 566.605L1072.76 566.622L1072.7 566.639L1072.65 566.656L1072.6 566.673L1072.55 566.69L1072.49 566.707L1072.44 566.724L1072.39 566.741L1072.33 566.759L1072.28 566.776L1072.23 566.793L1072.17 566.811L1072.12 566.828L1072.07 566.846L1072.01 566.864L1071.96 566.881L1071.9 566.899L1071.85 566.917L1071.79 566.935L1071.74 566.953L1071.68 566.971L1071.63 566.989L1071.57 567.007L1071.52 567.025L1071.46 567.043L1071.41 567.061L1071.35 567.079L1071.29 567.098L1071.24 567.116L1071.18 567.135L1071.12 567.153L1071.07 567.171L1071.01 567.19L1070.95 567.209L1070.9 567.227L1070.84 567.246L1070.78 567.264L1070.73 567.283L1070.67 567.302L1070.61 567.321L1070.55 567.34L1070.49 567.359L1070.44 567.378L1070.38 567.397L1070.32 567.416L1070.26 567.435L1070.2 567.454L1070.14 567.473L1070.08 567.492L1070.03 567.511L1069.97 567.531L1069.91 567.55L1069.85 567.569L1069.79 567.589L1069.73 567.608L1069.67 567.627L1069.61 567.647L1069.55 567.666L1069.49 567.686L1069.43 567.705L1069.37 567.725L1069.31 567.745L1069.25 567.764L1069.19 567.784L1069.13 567.804L1069.07 567.824L1069.01 567.843L1068.95 567.863L1068.88 567.883L1068.82 567.903L1068.76 567.923L1068.7 567.943L1068.64 567.963L1068.58 567.983L1068.52 568.003L1068.46 568.023L1068.39 568.043L1068.33 568.063L1068.27 568.083L1068.21 568.103L1068.15 568.123L1068.09 568.143L1068.02 568.164L1067.96 568.184L1067.9 568.204L1067.84 568.224L1067.78 568.245L1067.71 568.265L1067.65 568.285L1067.59 568.306L1067.53 568.326L1067.46 568.346L1067.4 568.367L1067.34 568.387L1067.27 568.408L1067.21 568.428L1067.15 568.449L1067.09 568.469L1067.02 568.49L1066.96 568.51L1066.9 568.531L1066.83 568.551L1066.77 568.572L1066.71 568.592L1066.64 568.613L1066.58 568.634L1066.52 568.654L1066.46 568.675L1066.39 568.696L1066.33 568.716L1066.26 568.737L1066.2 568.758L1066.14 568.778L1066.07 568.799L1066.01 568.82L1065.95 568.84L1065.88 568.861L1065.82 568.882L1065.76 568.902L1065.69 568.923L1065.63 568.944L1065.57 568.965L1065.5 568.985L1065.44 569.006L1065.37 569.027L1065.31 569.048L1065.25 569.069L1065.18 569.089L1065.12 569.11L1065.06 569.131L1064.99 569.152L1064.93 569.172L1064.86 569.193L1064.8 569.214L1064.74 569.235L1064.67 569.256L1064.61 569.276L1064.55 569.297L1064.48 569.318L1064.42 569.339L1064.35 569.359L1064.29 569.38L1064.23 569.401L1064.16 569.422L1064.1 569.443L1064.04 569.463L1063.97 569.484L1063.91 569.505L1063.84 569.526L1063.78 569.546L1063.72 569.567L1063.65 569.588L1063.59 569.608L1063.53 569.629L1063.46 569.65L1063.4 569.671L1063.34 569.691L1063.27 569.712L1063.21 569.732L1063.15 569.753L1063.08 569.774L1063.02 569.794L1062.96 569.815L1062.89 569.836L1062.83 569.856L1062.77 569.877L1062.7 569.897L1062.64 569.918L1062.58 569.938L1062.52 569.959L1062.45 569.979L1062.39 570L1062.33 570.02L1062.26 570.041L1062.2 570.061L1062.14 570.081L1062.08 570.102L1062.01 570.122L1061.95 570.143L1061.89 570.163L1061.83 570.183L1061.76 570.204L1061.7 570.224L1061.64 570.244L1061.58 570.264L1061.52 570.284L1061.45 570.305L1061.39 570.325L1061.33 570.345L1061.27 570.365L1061.21 570.385L1061.15 570.405L1061.08 570.425L1061.02 570.445L1060.96 570.465L1060.9 570.485L1060.84 570.505L1060.78 570.525L1060.72 570.545L1060.66 570.565L1060.6 570.584L1060.54 570.604L1060.47 570.624L1060.41 570.644L1060.35 570.663L1060.29 570.683L1060.23 570.703L1060.17 570.722L1060.11 570.742L1060.05 570.761L1059.99 570.781L1059.93 570.8L1059.87 570.82L1059.81 570.839L1059.76 570.858L1059.7 570.878L1059.64 570.897L1059.58 570.916L1059.52 570.935L1059.46 570.955L1059.4 570.974L1059.34 570.993L1059.28 571.012L1059.23 571.031L1059.17 571.05L1059.11 571.069L1059.05 571.088L1058.99 571.106L1058.94 571.125L1058.88 571.144L1058.82 571.163L1058.76 571.181L1058.71 571.2L1058.65 571.219L1058.59 571.237L1058.54 571.256L1058.48 571.274L1058.42 571.293L1058.37 571.311L1058.31 571.329L1058.25 571.348L1058.2 571.366L1058.14 571.384L1058.09 571.402L1058.03 571.42L1057.98 571.438L1057.92 571.456L1057.87 571.474L1057.81 571.492L1057.76 571.51L1057.7 571.528L1057.65 571.545L1057.59 571.563L1057.54 571.581L1057.48 571.598L1057.43 571.616L1057.38 571.633L1057.32 571.651L1057.27 571.668L1057.22 571.685L1057.16 571.703L1057.11 571.72L1057.06 571.737L1057.01 571.754L1056.95 571.771L1056.9 571.788L1056.85 571.805L1056.8 571.822L1056.75 571.839L1056.7 571.855L1056.65 571.872L1056.59 571.889L1056.54 571.905L1056.49 571.922L1056.44 571.938L1056.39 571.954L1056.34 571.971L1056.29 571.987L1056.24 572.003L1056.19 572.019L1056.14 572.035L1056.1 572.051L1056.05 572.067L1056 572.083L1055.95 572.099L1055.9 572.115L1055.85 572.13L1055.81 572.146L1055.76 572.161L1055.71 572.177L1055.66 572.192L1055.62 572.207L1055.57 572.223L1055.52 572.238L1055.48 572.253L1055.43 572.268L1055.38 572.283L1055.34 572.298L1055.29 572.313L1055.25 572.327L1055.2 572.342L1055.16 572.357L1055.11 572.371L1055.07 572.386L1055.03 572.4L1054.98 572.414L1054.94 572.428L1054.89 572.443L1054.85 572.457L1054.81 572.471L1054.77 572.485L1054.72 572.498L1054.68 572.512L1054.64 572.526L1054.6 572.539L1054.56 572.553L1054.51 572.566L1054.47 572.58L1054.43 572.593L1054.39 572.606L1054.35 572.619L1054.31 572.632L1054.27 572.645L1054.23 572.658L1054.19 572.671L1054.16 572.684L1054.12 572.696L1054.08 572.709L1054.04 572.721L1054 572.734L1053.96 572.746L1053.93 572.758L1053.89 572.77L1053.85 572.782L1053.82 572.794L1053.78 572.806L1053.74 572.818L1053.71 572.829L1053.67 572.841L1053.64 572.852L1053.6 572.864L1053.57 572.875L1053.53 572.886L1053.5 572.897L1053.47 572.908L1053.43 572.919L1053.4 572.93L1053.37 572.941L1053.33 572.951L1053.3 572.962L1053.27 572.972L1053.24 572.983L1053.21 572.993L1053.18 573.003L1053.14 573.013L1053.11 573.023L1053.08 573.033L1053.05 573.043L1053.02 573.052L1052.99 573.062L1052.97 573.071L1052.94 573.081L1052.91 573.09L1052.88 573.099L1052.85 573.108L1052.82 573.117L1052.8 573.126L1052.77 573.135L1052.74 573.143L1052.72 573.152L1052.69 573.16L1052.67 573.169L1052.64 573.177L1052.62 573.185L1052.59 573.193L1052.57 573.201L1052.54 573.209L1052.52 573.217L1052.5 573.224L1052.47 573.232L1052.45 573.239L1052.43 573.246L1052.41 573.253L1052.38 573.261L1052.36 573.267L1052.34 573.274L1052.32 573.281L1052.3 573.288L1052.28 573.294L1052.26 573.301L1052.24 573.307L1052.22 573.313L1052.21 573.319L1052.19 573.325L1052.17 573.331L1052.15 573.336L1052.13 573.342L1052.12 573.347L1052.1 573.353L1052.09 573.358L1052.07 573.363L1052.05 573.368L1052.04 573.373L1052.02 573.378L1052.01 573.382L1052 573.387L1051.98 573.391L1051.97 573.396L1051.96 573.4L1051.94 573.404L1051.93 573.408L1051.92 573.412L1051.91 573.415L1051.9 573.419L1051.89 573.422L1051.88 573.426L1051.87 573.429L1051.86 573.432L1051.85 573.435L1051.84 573.438L1051.83 573.44L1051.83 573.443L1051.82 573.445L1051.81 573.448L1051.8 573.45L1051.8 573.452L1051.79 573.454L1051.79 573.455L1051.78 573.457L1051.78 573.459L1051.77 573.46L1051.77 573.461L1051.77 573.462L1051.76 573.463L1051.76 573.464L1051.76 573.465L1051.76 573.466L1051.75 573.466L1051.75 573.466L1051.75 573.467C1051.75 573.467 1051.75 573.467 1051.91 573.942Z" fill="#BEA4FF" stroke="#271A58"></path> <mask id="path-102-inside-2_7042_13987" fill="white"> <path fill-rule="evenodd" clip-rule="evenodd" d="M1035.8 579.195C1038.25 567.493 1040.45 556.961 1040.45 556.961C1041.47 552.038 1047.43 550.098 1051.16 553.47C1051.16 553.469 1059.14 560.681 1068.02 568.696L1051.91 573.946L1035.8 579.195Z"></path> </mask> <path fill-rule="evenodd" clip-rule="evenodd" d="M1035.8 579.195C1038.25 567.493 1040.45 556.961 1040.45 556.961C1041.47 552.038 1047.43 550.098 1051.16 553.47C1051.16 553.469 1059.14 560.681 1068.02 568.696L1051.91 573.946L1035.8 579.195Z" fill="#5526C6"></path> <path d="M1035.8 579.195L1034.82 578.991L1034.47 580.681L1036.11 580.146L1035.8 579.195ZM1040.45 556.961L1041.43 557.165L1041.43 557.165L1040.45 556.961ZM1051.16 553.47L1050.49 554.212L1050.92 554.6L1051.47 554.42L1051.16 553.47ZM1068.02 568.696L1068.33 569.646L1069.97 569.111L1068.69 567.953L1068.02 568.696ZM1036.78 579.4C1038 573.549 1039.16 567.99 1040.02 563.894C1040.45 561.846 1040.8 560.164 1041.04 558.994C1041.17 558.409 1041.26 557.952 1041.33 557.641C1041.36 557.485 1041.38 557.366 1041.4 557.286C1041.41 557.246 1041.41 557.216 1041.42 557.196C1041.42 557.186 1041.42 557.178 1041.42 557.173C1041.42 557.17 1041.42 557.168 1041.42 557.167C1041.43 557.167 1041.43 557.166 1041.43 557.166C1041.43 557.166 1041.43 557.165 1041.43 557.165C1041.43 557.165 1041.43 557.165 1040.45 556.961C1039.47 556.756 1039.47 556.756 1039.47 556.756C1039.47 556.756 1039.47 556.756 1039.47 556.757C1039.47 556.757 1039.47 556.757 1039.47 556.758C1039.47 556.759 1039.47 556.761 1039.47 556.764C1039.46 556.769 1039.46 556.777 1039.46 556.787C1039.46 556.807 1039.45 556.837 1039.44 556.877C1039.43 556.957 1039.4 557.076 1039.37 557.232C1039.3 557.542 1039.21 557.999 1039.09 558.585C1038.84 559.755 1038.49 561.437 1038.06 563.485C1037.21 567.581 1036.04 573.14 1034.82 578.991L1036.78 579.4ZM1041.43 557.165C1042.3 552.998 1047.33 551.358 1050.49 554.212L1051.83 552.728C1047.52 548.838 1040.65 551.077 1039.47 556.756L1041.43 557.165ZM1051.47 554.42C1050.98 554.454 1050.53 554.244 1050.51 554.234C1050.51 554.23 1050.5 554.225 1050.5 554.223C1050.5 554.222 1050.5 554.221 1050.5 554.22C1050.5 554.22 1050.5 554.219 1050.5 554.219C1050.49 554.218 1050.49 554.218 1050.5 554.22C1050.5 554.223 1050.5 554.227 1050.51 554.234C1050.53 554.248 1050.55 554.268 1050.58 554.295C1050.64 554.35 1050.73 554.431 1050.85 554.537C1051.08 554.75 1051.43 555.063 1051.88 555.464C1052.76 556.265 1054.04 557.417 1055.59 558.819C1058.7 561.624 1062.91 565.431 1067.35 569.438L1068.69 567.953C1064.25 563.946 1060.04 560.14 1056.93 557.335C1055.38 555.933 1054.1 554.781 1053.22 553.979C1052.77 553.579 1052.42 553.266 1052.19 553.053C1052.07 552.946 1051.98 552.865 1051.92 552.81C1051.89 552.782 1051.87 552.761 1051.85 552.747C1051.84 552.74 1051.84 552.734 1051.83 552.73C1051.83 552.728 1051.83 552.726 1051.82 552.723C1051.82 552.722 1051.82 552.72 1051.82 552.717C1051.81 552.715 1051.81 552.709 1051.8 552.706C1051.79 552.695 1051.33 552.485 1050.85 552.519L1051.47 554.42ZM1067.71 567.745L1051.6 572.995L1052.22 574.897L1068.33 569.646L1067.71 567.745ZM1051.6 572.995L1035.49 578.245L1036.11 580.146L1052.22 574.897L1051.6 572.995Z" fill="#271A58" mask="url(#path-102-inside-2_7042_13987)"></path> </g> <defs> <clipPath id="clip0_7042_13987"> <rect width="1352" height="796" fill="white"></rect> </clipPath> </defs> </svg> 