<?xml version="1.0" encoding="UTF-8"?> <svg xmlns="http://www.w3.org/2000/svg" width="993" height="1100" viewBox="0 0 993 1100" fill="none"> <path d="M257.214 1069.15L707.226 1063.58V1094.41L257.87 1098.67L257.214 1069.15Z" fill="#9A48F1" stroke="#271A58"></path> <path d="M580.32 331.608C643.189 334.063 665.973 367.07 669.507 383.267L632.224 386.592C626.253 375.169 607.514 356.415 580.32 353.346C553.125 350.277 531.462 370.395 524.029 383.267H496.981C498.565 365.025 517.45 329.153 580.32 331.608Z" fill="#580EA2" stroke="#271A58"></path> <path d="M726.343 390.021C797.99 411.069 812.086 469.171 810.178 495.59C822.86 620.893 847.752 888.796 845.866 957.992C843.51 1044.49 618.267 1016.86 458.342 1013.24C298.417 1009.63 299.979 552.314 368.447 423.566C402.207 360.084 636.785 363.711 726.343 390.021Z" fill="#580EA2" stroke="#271A58"></path> <path opacity="0.7" d="M758.065 715.571L788.896 783.795L769.217 862.514C761.082 824.729 758.393 748.808 758.065 715.571Z" fill="#271A58" stroke="black"></path> <path d="M483.859 481.382C425.607 488.729 379.119 469.792 363.157 459.406H299.192L297.319 459.77C185.661 481.498 130.047 492.319 73.3697 651.657C13.3165 820.486 103.479 974.26 238.972 936.623C238.972 1004.37 248.795 1045.65 257.214 1068.82L707.225 1063.25C743.305 945.169 752.161 771.331 743.961 684.412L788.897 782.483C772.169 842.178 752.489 939.265 744.617 1011.1L733.137 1036.02L826.944 1073.74L837.439 1050.46C837.439 1050.46 1030.59 880.136 917.471 624.716C836.128 441.038 656.714 407.582 561.923 417.75C561.923 439.398 536.339 474.763 483.859 481.382Z" fill="#9A48F1"></path> <path d="M378.631 64.3325C373.101 -16.6539 509.122 36.1732 569.956 92.154C618.012 136.377 615.94 187.842 596.23 238.037L574.328 285.366C568.081 296.115 561.571 305.851 555.39 314.189L403.241 126.537C390.58 104.274 384.962 90.8005 378.631 64.3325Z" fill="#D9B6FF"></path> <path d="M386.935 368.151C347.127 352.332 366.004 240.523 379.763 189.184C391.891 133.135 410.013 111.899 427.076 113.498C458.158 110.895 527.842 121.457 546.185 150.547C564.528 179.636 560.325 234.795 560.325 234.795C570.494 229.742 600.004 228.87 604.545 250.921C610.221 278.486 577.36 288.578 557.572 284.48L549.745 419.384L562.649 418.309C555.464 433.054 557.272 471 469.094 482.829C429.66 488.119 384.142 474.226 364.786 460.247L386.935 452.72L400.272 373.144C390.731 372.627 395.485 371.549 386.935 368.151Z" fill="#E9D4FF"></path> <path d="M471.396 482.694V505.654" stroke="#271A58"></path> <path d="M456.901 201.383C463.571 198.687 480.117 196.514 492.951 209.392" stroke="#271A58" stroke-linecap="round"></path> <path d="M387.472 195.998C393.16 193.718 407.281 191.901 418.262 202.877" stroke="#271A58" stroke-linecap="round"></path> <path d="M560.326 234.794C570.495 229.742 600.004 228.869 604.545 250.921C610.222 278.485 577.361 288.577 557.572 284.479L549.746 418.308L562.65 418.308" stroke="#271A58"></path> <path d="M379.765 189.185C366.006 240.523 347.129 352.332 386.937 368.151C426.744 383.971 482.537 363.842 505.458 351.801" stroke="#271A58"></path> <ellipse cx="465.428" cy="212.007" rx="5.90394" ry="12.7919" transform="rotate(8.5819 465.428 212.007)" fill="#271A58"></ellipse> <ellipse cx="414.115" cy="279.682" rx="5.90394" ry="12.2538" transform="rotate(8.5819 414.115 279.682)" fill="#271A58"></ellipse> <ellipse cx="394.483" cy="206.397" rx="5.54843" ry="12.0216" transform="rotate(8.5819 394.483 206.397)" fill="#271A58"></ellipse> <path d="M431.674 220.733C420.393 218.06 401.777 222.575 401.46 237.174C401.03 256.949 422.639 256.586 431.414 254.063" stroke="#271A58" stroke-linecap="round"></path> <path d="M568.106 244.538C583.097 235.573 606.901 255.986 582.397 270.668" stroke="#271A58" stroke-linecap="round"></path> <path d="M560.464 234.496C560.464 234.496 564.528 179.635 546.186 150.546C527.843 121.457 462.799 111.045 431.718 113.648C418.158 114.783 396.948 109.407 379.216 191.253" stroke="#271A58"></path> <path d="M555.39 314.189C561.571 305.851 568.081 296.115 574.328 285.366M596.23 238.037C615.94 187.842 618.012 136.377 569.956 92.154C509.122 36.1732 373.101 -16.6539 378.631 64.3325C378.736 71.8407 383.61 94.7027 402.265 126.086" stroke="#271A58"></path> <path d="M257.214 1068.82C243.686 1024.5 238.506 980.125 237.819 935.548" stroke="#271A58"></path> <path d="M837.439 1050.46C837.439 1050.46 1030.59 880.136 917.471 624.716C836.128 441.038 656.714 407.582 561.923 417.75C561.923 439.398 536.339 474.763 483.859 481.382C425.607 488.729 379.119 469.792 363.157 459.406C290.354 459.062 173.302 464.783 119.609 554.876C-130.304 974.222 429.308 1172.12 381.993 526.917" stroke="#271A58"></path> <path d="M806.608 822.171L743.961 683.429C749.428 749.356 749.734 917.618 707.225 1063.25" stroke="#271A58"></path> <path d="M788.569 783.467C765.317 874.364 755.751 924.232 744.29 1011.42M744.29 1011.42L837.769 1050.46L826.945 1073.74L733.138 1036.02L744.29 1011.42Z" stroke="#271A58"></path> <path d="M582.914 416.439C582.367 439.946 563.169 490.173 490.747 503.031C447.703 510.672 413.78 505.93 388.132 496.809" stroke="#271A58"></path> <path d="M584.338 140.734C590.476 149.599 599.499 177.169 586.483 216.54" stroke="#271A58" stroke-linecap="round"></path> <path d="M458.117 47.9884C440.876 39.1664 404.389 28.9795 396.368 58.8071" stroke="#271A58" stroke-linecap="round"></path> <path d="M529.451 465.638L539.291 484.989" stroke="#271A58"></path> <path d="M502.557 477.774L507.149 499.094" stroke="#271A58"></path> <path d="M558.642 431.855L579.306 436.775" stroke="#271A58"></path> <path d="M547.819 449.566L564.875 462.358" stroke="#271A58"></path> <path d="M440.565 482.367L435.973 506.311" stroke="#271A58"></path> <path d="M408.094 477.445L397.27 500.077" stroke="#271A58"></path> <path d="M380.869 468.59L363.157 485.646" stroke="#271A58"></path> <path d="M765.281 1020.28L754.129 1044.55" stroke="#271A58"></path> <path d="M790.207 1030.12L779.055 1054.72" stroke="#271A58"></path> <path d="M815.136 1040.94L805.296 1065.22" stroke="#271A58"></path> <path d="M690.17 381.344C720.728 378.662 751.302 391.252 764.899 406.632C766.5 408.444 767.128 410.805 766.904 413.234C756.195 529.36 751.851 776.182 769.217 863.171C769.217 863.171 755.77 920.242 747.119 990.93C746.717 991.994 730.289 993.058 726.25 993.058C649.713 974.998 650.282 384.845 690.17 381.344Z" fill="#580EA2" stroke="#271A58"></path> <path opacity="0.2" d="M772.17 746.732C772.17 646.037 773.218 584.889 763.642 458.095C757.87 517.921 757.52 653.581 758.066 713.932L772.17 746.732Z" fill="#580EA2"></path> <path d="M926.326 751.979C934.206 779.503 926.327 842.507 912.879 886.458" stroke="#271A58" stroke-linecap="round"></path> <path d="M679.674 1064.23V1095.06" stroke="#271A58"></path> <path d="M649.17 1064.23V1095.06" stroke="#271A58"></path> <path d="M618.338 1064.23V1095.06" stroke="#271A58"></path> <path d="M587.505 1064.89L587.505 1095.06" stroke="#271A58"></path> <path d="M495.011 1066.2L495.011 1096.38" stroke="#271A58"></path> <path d="M402.517 1067.51L402.517 1097.69" stroke="#271A58"></path> <path d="M310.021 1068.17L310.021 1098.34" stroke="#271A58"></path> <path d="M464.182 1066.86V1097.03" stroke="#271A58"></path> <path d="M556.676 1065.54V1095.72" stroke="#271A58"></path> <path d="M371.685 1067.51V1097.69" stroke="#271A58"></path> <path d="M433.349 1066.86V1097.03" stroke="#271A58"></path> <path d="M340.853 1067.51V1097.69" stroke="#271A58"></path> <path d="M279.19 1068.82V1099" stroke="#271A58"></path> <path d="M525.843 1065.54V1095.72" stroke="#271A58"></path> <path d="M462.089 166.823C474.52 160.339 500.494 156.205 504.935 191.543" stroke="#271A58" stroke-linecap="round"></path> <path d="M419.06 186.333C412.137 174.835 394.906 157.618 381.363 180.737" stroke="#271A58" stroke-linecap="round"></path> <path d="M400.273 372.068L386.294 451.644L364.787 459.171" stroke="#271A58"></path> <path d="M310.92 429.844L294.433 470.969L375.541 489.28L383.377 463.597C388.746 465.674 402.496 468.79 414.55 464.635C426.603 460.48 430.482 452.517 430.915 449.055C433.686 449.574 441.202 449.678 449.099 445.939C456.996 442.199 458.277 432.089 457.931 427.502C461.827 428.281 471.179 425.944 471.179 411.921C471.179 396.332 447.28 381.712 434.812 376.086C441.565 377.384 470.14 386.213 481.392 385.331C493.998 384.342 489.832 365.563 468.002 354.658C459.646 350.484 389.032 313.11 351.626 342.194C320.379 366.489 317.77 407.012 310.92 429.844Z" fill="#E8D4FF"></path> <path d="M172.213 729.205C185.215 690.756 232.605 576.114 265.187 501.566M265.187 501.566C270.596 489.189 275.597 477.917 279.965 468.283L388.605 492.403C386.464 503.332 384.223 514.756 381.891 526.527L265.187 501.566Z" stroke="#271A58"></path> <path d="M294.891 471L311.972 425.835C318.823 403.067 320.382 366.39 351.631 342.163C389.041 313.161 459.66 350.43 468.017 354.593C489.849 365.467 493.98 383.812 481.408 385.179C467.5 386.691 403.488 366.546 396.559 365.916" stroke="#271A58" stroke-linecap="round"></path> <path d="M434.685 376.369C452.198 385.166 479.214 402.35 468.702 420.971C460.493 435.513 430.384 417.232 417.728 404.568" stroke="#271A58" stroke-linecap="round"></path> <path d="M459.178 426.821C461.221 441.194 444.363 463.472 402.425 434.438" stroke="#271A58" stroke-linecap="round"></path> <path d="M431.249 447.622C427.435 456.636 412.32 474.11 382.366 463.294L375.542 489.28" stroke="#271A58"></path> <path d="M360.486 486.055L351.884 520.466" stroke="#271A58"></path> <path d="M329.302 478.527L318.548 511.863" stroke="#271A58"></path> <path d="M299.191 472.075L287.363 506.486" stroke="#271A58"></path> <rect width="993" height="416" transform="matrix(-1 0 0 1 993 683)" fill="url(#paint0_linear_13080_3281)"></rect> <defs> <linearGradient id="paint0_linear_13080_3281" x1="496.5" y1="0" x2="496.5" y2="416" gradientUnits="userSpaceOnUse"> <stop stop-color="#202020" stop-opacity="0"></stop> <stop offset="1" stop-color="#202020"></stop> </linearGradient> </defs> </svg> 