<?xml version="1.0" encoding="UTF-8"?> <svg xmlns="http://www.w3.org/2000/svg" width="254" height="231" viewBox="0 0 254 231" fill="none"> <path d="M103.875 28.4441C120.707 26.4639 163.282 22.2561 193.398 24.3187C203.299 30.5069 216.363 53.3345 218.151 63.5106L215.675 65.9859C225.906 75.9212 255.692 131.581 252.805 139.832C242.491 164.585 162.044 225.229 145.542 228.529C103.958 230.51 72.5215 228.529 63.0329 222.754C55.367 218.088 31.5418 173.36 23.0158 156.708L20.5405 156.746C7.33903 147.835 0.738281 124.155 0.738281 118.792C7.009 101.63 72.1089 51.4092 103.875 28.4441Z" fill="#A576FF"></path> <path d="M0.738281 118.792C13.6097 118.792 57.5323 114.941 77.8846 113.016M0.738281 118.792C7.009 101.63 72.1089 51.4092 103.875 28.4441C120.707 26.4639 163.282 22.2561 193.398 24.3187M0.738281 118.792C0.738281 124.155 7.33903 147.835 20.5405 156.746L23.0158 156.708M77.8846 113.016C106.213 94.0391 164.519 48.6591 193.398 24.3187M77.8846 113.016C77.8846 124.155 95.3491 149.458 102.637 155.509M193.398 24.3187C203.299 30.5069 216.363 53.3345 218.151 63.5106L215.675 65.9859M102.637 155.509L23.0158 156.708M102.637 155.509L215.675 65.9859M102.637 155.509C112.676 173.936 135.311 214.338 145.542 228.529M23.0158 156.708C31.5418 173.36 55.367 218.088 63.0329 222.754C72.5215 228.529 103.958 230.51 145.542 228.529M145.542 228.529C162.044 225.229 242.491 164.585 252.805 139.832C255.692 131.581 225.906 75.9212 215.675 65.9859" stroke="#271A58"></path> <path d="M128.216 77.5369C139.437 87.438 178.822 160.459 197.111 195.526C209.488 188.925 219.251 179.711 222.277 174.486C205.5 139.557 168.398 66.8934 155.857 57.3223C143.315 47.7512 93.4246 51.4092 70.047 54.4345L34.9805 82.0749C61.3835 76.4368 116.995 67.6358 128.216 77.5369Z" fill="#D8CCFF" stroke="#271A58"></path> <path d="M47.355 116.316C49.3352 105.094 124.364 49.8951 159.981 24.3172C148.842 21.8426 138.115 23.7676 131.927 25.5553C97.2733 48.2454 26.3977 98.4111 26.7277 117.553C27.0577 136.696 65.0946 198.963 84.0718 227.291C87.7851 231.004 105.937 230.453 110.888 228.941C100.987 224.403 44.8797 130.342 47.355 116.316Z" fill="#D8CCFF" stroke="#271A58"></path> <path d="M53.1378 27.88C71.5117 19.9656 93.5182 45.3105 102.225 58.9723L90.5161 73.5769C75.5047 74.8332 42.8704 75.4613 36.0252 64.155C32.3022 58.0056 31.4406 54.2756 32.5298 49.08C34.5051 39.658 40.1639 33.4684 53.1378 27.88Z" fill="#D8CCFF"></path> <path d="M90.5161 73.5769C75.5047 74.8332 42.8704 75.4613 36.0252 64.155C32.3022 58.0056 31.4406 54.2756 32.5298 49.0799M90.5161 73.5769C72.274 57.5597 41.8795 29.2939 32.5298 49.0799M90.5161 73.5769L102.225 58.9723C93.5182 45.3105 71.5117 19.9656 53.1378 27.88C40.1639 33.4684 34.5051 39.658 32.5298 49.0799" stroke="#271A58"></path> <path d="M87.9483 66.2275C84.8329 49.7905 84.8896 14.4719 110.039 4.69391C120.841 0.494169 129.186 -0.0730201 134.934 1.88095C134.991 1.89965 135.047 1.91912 135.103 1.93938C145.931 5.74689 147.379 18.6205 138.502 32.9319C130.752 45.4254 114.633 57.8049 101.55 66.2275C96.2728 69.625 91.4894 72.3786 87.9483 74.2361V66.2275Z" fill="#D8CCFF"></path> <path d="M135.103 1.93938C129.35 -0.0838332 120.948 0.452834 110.039 4.69391C84.8896 14.4719 84.8329 49.7905 87.9483 66.2275V74.2361C91.4894 72.3786 96.2728 69.625 101.55 66.2275M135.103 1.93938C145.931 5.74689 147.379 18.6205 138.502 32.9319C130.752 45.4254 114.633 57.8049 101.55 66.2275M135.103 1.93938C124.058 -2.04873 103.683 24.0804 101.55 66.2275" stroke="#271A58"></path> <path d="M24.4727 66.481C40.9639 53.6377 69.5969 57.9184 91.0857 68.6218V75.4727C84.4819 81.9293 77.8438 86.7912 71.6561 89.9995C56.9856 98.2592 43.095 100.392 33.497 98.1633C16.1079 94.125 12.9271 75.4727 24.4727 66.481Z" fill="#D8CCFF"></path> <path d="M91.0857 68.6218C69.5969 57.9184 40.9639 53.6377 24.4727 66.481C12.9271 75.4727 16.1079 94.125 33.497 98.1633C47.2987 101.368 69.9765 95.5541 91.0857 75.4727M91.0857 68.6218V75.4727M91.0857 68.6218C70.457 60.1654 38.6544 57.062 41.233 81.894C44.2423 101.16 67.8763 98.1647 91.0857 75.4727" stroke="#271A58"></path> <path d="M90.2605 76.7121C87.359 69.1135 85.5909 49.9757 96.0362 37.9326C109.093 22.8787 124.641 12.2306 139.438 26.4243C153.403 39.8188 139.296 66.3895 99.3365 75.0619C96.9525 75.5793 92.8089 76.3246 90.2605 76.7121Z" fill="#D8CCFF"></path> <path d="M96.0362 37.9326C85.5909 49.9757 87.359 69.1135 90.2605 76.7121C92.8089 76.3246 96.9525 75.5793 99.3365 75.0619M96.0362 37.9326C109.093 22.8787 124.641 12.2306 139.438 26.4242C153.403 39.8188 139.296 66.3895 99.3365 75.0619M96.0362 37.9326C119.92 23.945 141.988 62.6583 99.3365 75.0619" stroke="#271A58"></path> </svg> 