<?xml version="1.0" encoding="UTF-8"?> <svg xmlns="http://www.w3.org/2000/svg" width="1351" height="1566" viewBox="0 0 1351 1566" fill="none"> <path d="M586.743 1374.28C552.389 1371.1 543.425 1297.11 543.238 1260.51L627.793 1237.55C628.424 1284.45 621.098 1377.46 586.743 1374.28Z" fill="#F99841" stroke="#271A58"></path> <path d="M586.548 1284.99C528.639 1288.6 503.468 1191 498.122 1141.75L659.47 1156.08C659.292 1197.54 644.458 1281.38 586.548 1284.99Z" fill="#A576FF" stroke="#271A58"></path> <path d="M439.027 1056.43C423.902 986.019 442.055 916.761 456.419 885.109C541.03 841.185 724.916 757.966 783.574 776.48C856.896 799.622 949.898 911.465 959.753 969.671C1072.94 1123.81 1080.54 1345.61 1047.65 1435.32C1014.76 1525.04 969.25 1565.51 884.678 1445.48C833.443 1372.77 801.599 1292.31 773.318 1222.62C748.504 1161.48 726.432 1108.63 696.411 1076.58C700.872 1148.14 663.859 1249.93 594.387 1254.26C524.915 1258.59 434.578 1115.8 439.027 1056.43Z" fill="#A576FF"></path> <path d="M481.303 1116.58C470.2 1096.64 443.465 1077.09 439.027 1056.43M439.027 1056.43C423.902 986.019 442.055 916.761 456.419 885.109C541.03 841.185 724.916 757.966 783.574 776.48C856.896 799.622 949.898 911.465 959.753 969.671M439.027 1056.43C434.578 1115.8 524.915 1258.59 594.387 1254.26C663.859 1249.93 700.872 1148.14 696.411 1076.58M696.411 1076.58C708.92 1074.48 732 1060.57 738.595 1045.11M696.411 1076.58C726.432 1108.63 748.504 1161.48 773.318 1222.62M959.753 969.671C1072.94 1123.81 1080.54 1345.61 1047.65 1435.32C1014.76 1525.04 969.25 1565.51 884.678 1445.48C833.443 1372.77 801.599 1292.31 773.318 1222.62M959.753 969.671C976.852 1033.31 973.294 1099.1 969.378 1124.04M773.318 1222.62C787.289 1246.95 827.594 1301.07 877.038 1322.96" stroke="#271A58"></path> <path d="M309.024 1122.06C203.593 1086.46 213.995 947.074 232.375 881.831C159.394 695.731 379.3 562.107 539.973 558.903L632.771 292.043C633.327 270.295 648.775 229.699 701.569 211.904C709.114 201.405 732.649 175.764 766.43 157.19C776.035 138.269 822.064 103.953 890.446 86.771C907.2 82.5614 921.317 68.7473 933.6 56.6006C971.8 18.8238 1069.94 -13.5713 1078.23 13.2366C1099.55 8.89516 1122.45 13.5505 1101.73 27.8374C1107.49 33.5192 1109.71 41.9637 1097.64 50.6858C1107.98 58.1973 1110.84 76.8285 1061.72 94.5965C1072.34 128.075 999.675 146.161 956.952 145.311C922.979 147.931 947.901 217.168 868.22 247.742C887.253 308.654 869.695 402.162 850.708 462.211C866.421 523.627 896.403 664.488 850.734 720.271C843.22 818.409 817.24 880.022 770.813 919.913C733.472 951.996 684.017 967.035 623.205 967.917C514.068 969.5 471.929 915.26 464.501 887.943C450.175 873.605 442.266 856.652 439.234 843.328C439.761 951.072 414.456 1157.66 309.024 1122.06Z" fill="#A576FF"></path> <path d="M236.424 891.62C234.991 888.324 233.642 885.061 232.375 881.831M232.375 881.831C213.995 947.074 203.593 1086.46 309.024 1122.06C414.456 1157.66 439.761 951.072 439.234 843.328C442.266 856.652 450.175 873.605 464.501 887.943M232.375 881.831C159.394 695.731 379.3 562.107 539.973 558.903L632.771 292.043C633.327 270.295 648.775 229.699 701.569 211.904M464.501 887.943C471.929 915.26 514.068 969.5 623.205 967.917C684.017 967.035 733.472 951.996 770.813 919.913C817.24 880.022 843.22 818.409 850.734 720.271M464.501 887.943C484.923 908.381 518.384 923.505 569.347 915.235M850.734 720.271C836.945 740.702 815.826 751.003 809.585 755.575M850.734 720.271C896.403 664.488 866.421 523.627 850.708 462.211M850.708 462.211C846.012 486.603 837.223 518.279 833.415 531.068M850.708 462.211C869.695 402.162 887.253 308.654 868.22 247.742M743.233 203.822C727.275 205.039 713.473 207.892 701.569 211.904M848.087 210.84C857.16 220.73 863.715 233.322 868.22 247.742M701.569 211.904C709.114 201.405 732.649 175.764 766.43 157.19C776.035 138.269 822.064 103.953 890.446 86.771C907.2 82.5614 921.317 68.7473 933.6 56.6006C971.8 18.8238 1069.94 -13.5713 1078.23 13.2366M868.22 247.742C947.901 217.168 922.979 147.931 956.952 145.311C999.675 146.161 1072.34 128.075 1061.72 94.5965M1078.23 13.2366C1099.55 8.89516 1122.45 13.5505 1101.73 27.8374M1078.23 13.2366C1068.63 13.8352 1025.29 28.2525 1006.94 37.2621M1015.56 62.8319C1018.06 62.676 1085.75 38.8575 1101.73 27.8374M1101.73 27.8374C1107.49 33.5192 1109.71 41.9637 1097.64 50.6858M1026.34 82.7444C1057.44 74.2786 1087.65 57.8991 1097.64 50.6858M1097.64 50.6858C1107.98 58.1973 1110.84 76.8285 1061.72 94.5965M1035.75 104.751C1035.75 104.751 1045.58 100.436 1061.72 94.5965M720.634 869.881C725.146 884.882 725.37 917.674 690.171 928.842M733.843 862.718C742.51 866.132 765.683 869.639 789.045 856.35" stroke="#271A58"></path> <path d="M777.947 140.939C777.947 140.939 768.544 150.988 766.418 157.098L801.791 153.398L785.24 161.402L867.277 174.217L843.357 184.673L918.643 209.861C921.217 206.115 926.071 194.955 928.426 189.828L890.065 177.776L905.776 164.346L823.271 152.059L837.39 137.233C817.816 136.959 800.801 137.522 777.947 140.939Z" fill="#F99841" stroke="#271A58"></path> <path d="M524.326 936.255L470.103 895.742L468.643 911.44C475.223 929.367 516.64 961.607 536.526 975.486L535.375 957.025C557.282 976.728 612.088 985.406 636.753 987.282L627.859 969.792L719.342 982.133L778.408 920.413L779.226 933.53C827.254 896.591 837.144 832.541 836.085 805.132C827.093 836.126 798.12 879.355 784.757 897.095L783.879 883.006C770.102 912.347 733.599 937.025 717.07 945.697C653.743 956.278 622.002 948.86 609.19 944.132L610.189 960.164C581.138 957.293 540.337 934.932 523.568 924.11L524.326 936.255Z" fill="#F99841" stroke="#271A58"></path> <mask id="path-9-outside-1_10_137" maskUnits="userSpaceOnUse" x="624.242" y="729.39" width="168.563" height="167.956" fill="black"> <rect fill="white" x="624.242" y="729.39" width="168.563" height="167.956"></rect> <path fill-rule="evenodd" clip-rule="evenodd" d="M665.004 877.725C668.536 883.964 676.923 883.428 683.45 873.588C687.909 866.868 696.278 854.253 704.269 842.206L709.319 851.127C712.852 857.368 721.242 856.831 727.771 846.989C732.199 840.314 740.568 827.697 748.492 815.751C758.367 800.863 767.551 787.018 767.553 787.017C772.008 780.302 767.944 773.122 760.237 774.093C760.237 774.093 708.615 780.585 691.408 782.75C680.108 784.174 675.695 791.727 679.228 797.968L683.117 804.839C669.291 806.578 654.812 808.4 647.099 809.371C635.802 810.795 631.391 818.344 634.923 824.584L649.963 851.154L665.004 877.725Z"></path> </mask> <path d="M683.45 873.588L679.694 870.631L679.694 870.632L683.45 873.588ZM665.004 877.725L669.053 874.755L669.053 874.755L665.004 877.725ZM704.269 842.206L708.318 839.235L704.728 832.894L700.512 839.25L704.269 842.206ZM709.319 851.127L713.368 848.157L713.368 848.157L709.319 851.127ZM727.771 846.989L724.015 844.032L724.015 844.032L727.771 846.989ZM748.492 815.751L744.735 812.795L744.735 812.795L748.492 815.751ZM767.553 787.017L769.715 791.547L770.662 790.95L771.309 789.974L767.553 787.017ZM760.237 774.093L760.507 779.312L760.508 779.311L760.237 774.093ZM691.408 782.75L691.138 777.531L691.137 777.532L691.408 782.75ZM679.228 797.968L675.179 800.938L675.179 800.938L679.228 797.968ZM683.117 804.839L683.387 810.058L691.242 809.07L687.166 801.869L683.117 804.839ZM647.099 809.371L646.829 804.152L646.828 804.152L647.099 809.371ZM634.923 824.584L638.972 821.613L634.923 824.584ZM649.963 851.154L645.914 854.125L649.963 851.154ZM679.694 870.632C676.989 874.709 674.343 876.199 672.629 876.498C671.07 876.77 669.861 876.183 669.053 874.755L660.955 880.695C663.679 885.507 668.43 887.771 673.579 886.874C678.573 886.004 683.384 882.307 687.207 876.544L679.694 870.632ZM700.512 839.25C692.521 851.297 684.153 863.912 679.694 870.631L687.206 876.545C691.666 869.824 700.035 857.209 708.026 845.162L700.512 839.25ZM713.368 848.157L708.318 839.235L700.22 845.176L705.27 854.097L713.368 848.157ZM724.015 844.032C721.309 848.111 718.662 849.602 716.947 849.901C715.386 850.173 714.177 849.586 713.368 848.157L705.27 854.097C707.995 858.91 712.746 861.175 717.896 860.278C722.892 859.408 727.704 855.709 731.528 849.945L724.015 844.032ZM744.735 812.795C736.811 824.741 728.442 837.358 724.015 844.032L731.528 849.945C735.956 843.27 744.325 830.653 752.249 818.707L744.735 812.795ZM765.391 782.487C764.581 783.121 763.87 783.952 763.846 783.987C763.838 783.999 763.825 784.017 763.821 784.024C763.814 784.034 763.809 784.042 763.807 784.044C763.803 784.051 763.798 784.058 763.796 784.062C763.79 784.071 763.782 784.083 763.772 784.097C763.754 784.125 763.727 784.165 763.692 784.218C763.622 784.324 763.518 784.48 763.382 784.684C763.111 785.093 762.714 785.692 762.206 786.457C761.19 787.988 759.733 790.184 757.968 792.846C754.438 798.168 749.673 805.351 744.735 812.795L752.249 818.707C757.186 811.263 761.951 804.08 765.482 798.758C767.247 796.097 768.704 793.901 769.719 792.37C770.227 791.605 770.624 791.006 770.895 790.598C771.03 790.394 771.133 790.239 771.202 790.134C771.237 790.082 771.263 790.043 771.28 790.018C771.289 790.005 771.294 789.997 771.297 789.992C771.298 789.99 771.298 789.991 771.295 789.994C771.295 789.995 771.29 790.002 771.284 790.011C771.28 790.017 771.268 790.035 771.259 790.047C771.236 790.082 770.525 790.913 769.715 791.547L765.391 782.487ZM760.508 779.311C762.946 779.004 764.054 780.019 764.407 780.643C764.696 781.153 764.989 782.263 763.797 784.06L771.309 789.974C774.572 785.056 775.061 779.218 772.505 774.703C770.013 770.3 765.235 768.21 759.967 768.874L760.508 779.311ZM691.678 787.969C700.282 786.887 717.489 784.722 732.545 782.829C740.073 781.882 747.064 781.002 752.172 780.36C754.726 780.039 756.81 779.777 758.255 779.595C758.978 779.504 759.541 779.433 759.923 779.385C760.114 779.361 760.26 779.343 760.358 779.33C760.407 779.324 760.445 779.319 760.469 779.316C760.482 779.315 760.491 779.314 760.497 779.313C760.501 779.312 760.503 779.312 760.505 779.312C760.505 779.312 760.506 779.312 760.506 779.312C760.507 779.312 760.507 779.312 760.237 774.093C759.967 768.874 759.967 768.874 759.967 768.874C759.966 768.874 759.966 768.874 759.965 768.874C759.963 768.874 759.961 768.874 759.958 768.875C759.952 768.876 759.942 768.877 759.93 768.878C759.905 768.881 759.868 768.886 759.819 768.892C759.72 768.905 759.574 768.923 759.383 768.947C759.001 768.995 758.438 769.066 757.715 769.157C756.27 769.339 754.187 769.601 751.632 769.922C746.524 770.564 739.534 771.444 732.005 772.391C716.949 774.284 699.742 776.449 691.138 777.531L691.678 787.969ZM683.277 794.998C682.506 793.636 682.68 792.661 683.37 791.714C684.305 790.43 686.773 788.587 691.679 787.969L691.137 777.532C684.743 778.337 679.354 780.983 676.141 785.392C672.683 790.137 672.417 796.059 675.179 800.938L683.277 794.998ZM687.166 801.869L683.277 794.998L675.179 800.938L679.068 807.809L687.166 801.869ZM647.37 814.59C655.082 813.619 669.561 811.797 683.387 810.058L682.847 799.62C669.021 801.359 654.542 803.181 646.829 804.152L647.37 814.59ZM638.972 821.613C638.201 820.253 638.375 819.279 639.064 818.332C639.999 817.05 642.466 815.208 647.37 814.59L646.828 804.152C640.435 804.958 635.048 807.603 631.836 812.01C628.378 816.755 628.112 822.675 630.874 827.554L638.972 821.613ZM654.012 848.184L638.972 821.613L630.874 827.554L645.914 854.125L654.012 848.184ZM669.053 874.755L654.012 848.184L645.914 854.125L660.955 880.695L669.053 874.755Z" fill="white" mask="url(#path-9-outside-1_10_137)"></path> <path d="M682.853 873.163L682.853 873.164C679.663 877.972 676.093 880.395 673 880.934C669.946 881.466 667.255 880.186 665.636 877.326L665.614 877.287L665.592 877.247L665.569 877.208L665.547 877.168L665.524 877.127L665.501 877.087L665.478 877.046L665.454 877.005L665.431 876.963L665.407 876.922L665.384 876.88L665.36 876.837L665.335 876.795L665.311 876.752L665.287 876.709L665.262 876.665L665.237 876.621L665.212 876.577L665.187 876.533L665.162 876.489L665.137 876.444L665.111 876.399L665.086 876.353L665.06 876.308L665.034 876.262L665.008 876.216L664.981 876.169L664.955 876.122L664.928 876.075L664.902 876.028L664.875 875.981L664.848 875.933L664.82 875.885L664.793 875.837L664.766 875.788L664.738 875.739L664.71 875.69L664.682 875.641L664.654 875.591L664.626 875.542L664.598 875.492L664.569 875.441L664.541 875.391L664.512 875.34L664.483 875.289L664.454 875.238L664.425 875.186L664.396 875.135L664.366 875.083L664.337 875.031L664.307 874.978L664.277 874.926L664.248 874.873L664.218 874.82L664.187 874.767L664.157 874.713L664.127 874.659L664.096 874.605L664.065 874.551L664.035 874.497L664.004 874.442L663.973 874.387L663.942 874.332L663.91 874.277L663.879 874.222L663.847 874.166L663.816 874.11L663.784 874.054L663.752 873.998L663.72 873.941L663.688 873.885L663.656 873.828L663.624 873.771L663.591 873.714L663.559 873.656L663.526 873.598L663.493 873.541L663.461 873.483L663.428 873.424L663.395 873.366L663.361 873.307L663.328 873.249L663.295 873.19L663.261 873.131L663.228 873.071L663.194 873.012L663.16 872.952L663.126 872.892L663.092 872.832L663.058 872.772L663.024 872.712L662.99 872.651L662.956 872.59L662.921 872.53L662.887 872.469L662.852 872.407L662.817 872.346L662.782 872.284L662.747 872.223L662.712 872.161L662.677 872.099L662.642 872.037L662.607 871.975L662.572 871.912L662.536 871.85L662.501 871.787L662.465 871.724L662.429 871.661L662.394 871.598L662.358 871.534L662.322 871.471L662.286 871.407L662.25 871.344L662.214 871.28L662.177 871.216L662.141 871.152L662.105 871.087L662.068 871.023L662.032 870.958L661.995 870.894L661.958 870.829L661.922 870.764L661.885 870.699L661.848 870.634L661.811 870.569L661.774 870.503L661.737 870.438L661.7 870.372L661.663 870.306L661.625 870.24L661.588 870.175L661.551 870.108L661.513 870.042L661.476 869.976L661.438 869.91L661.4 869.843L661.363 869.777L661.325 869.71L661.287 869.643L661.249 869.576L661.211 869.509L661.173 869.442L661.135 869.375L661.097 869.308L661.059 869.24L661.021 869.173L660.983 869.105L660.944 869.038L660.906 868.97L660.868 868.902L660.829 868.834L660.791 868.766L660.752 868.698L660.714 868.63L660.675 868.562L660.637 868.494L660.598 868.425L660.559 868.357L660.52 868.289L660.482 868.22L660.443 868.151L660.404 868.083L660.365 868.014L660.326 867.945L660.287 867.876L660.248 867.807L660.209 867.738L660.17 867.669L660.131 867.6L660.092 867.531L660.053 867.462L660.013 867.393L659.974 867.324L659.935 867.254L659.896 867.185L659.856 867.115L659.817 867.046L659.778 866.976L659.738 866.907L659.699 866.837L659.659 866.768L659.62 866.698L659.581 866.628L659.541 866.559L659.502 866.489L659.462 866.419L659.423 866.349L659.383 866.279L659.344 866.21L659.304 866.14L659.264 866.07L659.225 866L659.185 865.93L659.146 865.86L659.106 865.79L659.066 865.72L659.027 865.65L658.987 865.58L658.947 865.51L658.908 865.44L658.868 865.37L658.829 865.3L658.789 865.23L658.749 865.16L658.71 865.09L658.67 865.019L658.63 864.949L658.591 864.879L658.551 864.809L658.511 864.739L658.472 864.669L658.432 864.599L658.392 864.529L658.353 864.459L658.313 864.389L658.274 864.319L658.234 864.249L658.194 864.179L658.155 864.109L658.115 864.04L658.076 863.97L658.036 863.9L657.997 863.83L657.957 863.76L657.918 863.69L657.878 863.621L657.839 863.551L657.799 863.481L657.76 863.412L657.72 863.342L657.681 863.272L657.642 863.203L657.602 863.133L657.563 863.064L657.524 862.995L657.484 862.925L657.445 862.856L657.406 862.787L657.367 862.717L657.328 862.648L657.288 862.579L657.249 862.51L657.21 862.441L657.171 862.372L657.132 862.303L657.093 862.234L657.054 862.166L657.016 862.097L656.977 862.028L656.938 861.96L656.899 861.891L656.86 861.823L656.822 861.754L656.783 861.686L656.744 861.618L656.706 861.55L656.667 861.482L656.629 861.414L656.59 861.346L656.552 861.278L656.514 861.21L656.475 861.142L656.437 861.075L656.399 861.007L656.361 860.94L656.322 860.873L656.284 860.805L656.246 860.738L656.208 860.671L656.171 860.604L656.133 860.537L656.095 860.471L656.057 860.404L656.019 860.337L655.982 860.271L655.944 860.205L655.907 860.138L655.869 860.072L655.832 860.006L655.795 859.94L655.757 859.874L655.72 859.809L655.683 859.743L655.646 859.678L655.609 859.612L655.572 859.547L655.535 859.482L655.499 859.417L655.462 859.352L655.425 859.287L655.389 859.223L655.352 859.158L655.316 859.094L655.279 859.03L655.243 858.966L655.207 858.902L655.171 858.838L655.135 858.774L655.099 858.711L655.063 858.647L655.027 858.584L654.991 858.521L654.956 858.458L654.92 858.395L654.885 858.332L654.849 858.27L654.814 858.207L654.779 858.145L654.743 858.083L654.708 858.021L654.673 857.959L654.639 857.898L654.604 857.836L654.569 857.775L654.534 857.714L654.5 857.653L654.466 857.592L654.431 857.532L654.397 857.471L654.363 857.411L654.329 857.351L654.295 857.291L654.261 857.231L654.227 857.171L654.194 857.112L654.16 857.053L654.127 856.994L654.093 856.935L654.06 856.876L654.027 856.818L653.994 856.759L653.961 856.701L653.928 856.643L653.896 856.585L653.863 856.528L653.831 856.47L653.798 856.413L653.766 856.356L653.734 856.299L653.702 856.243L653.67 856.186L653.638 856.13L653.606 856.074L653.575 856.019L653.543 855.963L653.512 855.908L653.481 855.852L653.45 855.797L653.419 855.743L653.388 855.688L653.357 855.634L653.326 855.58L653.296 855.526L653.266 855.472L653.235 855.419L653.205 855.366L653.175 855.313L653.145 855.26L653.116 855.207L653.086 855.155L653.057 855.103L653.027 855.051L652.998 855L652.969 854.948L652.94 854.897L652.911 854.846L652.882 854.796L652.854 854.745L652.826 854.695L652.797 854.645L652.769 854.595L652.741 854.546L652.713 854.497L652.686 854.448L652.658 854.399L652.631 854.351L652.603 854.303L652.576 854.255L652.549 854.207L652.522 854.16L652.496 854.112L652.469 854.066L652.443 854.019L652.417 853.973L652.391 853.927L652.365 853.881L652.339 853.835L652.313 853.79L652.288 853.745L652.262 853.7L652.237 853.656L652.212 853.611L652.187 853.568L652.163 853.524L652.138 853.481L652.114 853.438L652.09 853.395L652.065 853.352L652.042 853.31L652.018 853.268L651.994 853.227L651.971 853.185L651.948 853.144L651.925 853.103L651.902 853.063L651.879 853.023L651.856 852.983L651.834 852.943L651.812 852.904L651.79 852.865L651.768 852.826L651.746 852.788L651.725 852.75L651.703 852.712L651.682 852.675L651.661 852.638L651.64 852.601L651.62 852.565L651.599 852.528L651.579 852.493L651.559 852.457L651.539 852.422L651.519 852.387L651.5 852.352L651.48 852.318L651.461 852.284L651.442 852.251L651.423 852.218L651.404 852.185L651.386 852.152L651.368 852.12L651.35 852.088L651.332 852.056L651.314 852.025L651.297 851.994L651.279 851.964L651.262 851.933L651.245 851.904L651.229 851.874L651.212 851.845L651.196 851.816L651.18 851.788L651.164 851.759L651.148 851.732L651.133 851.704L651.117 851.677L651.102 851.651L651.087 851.624L651.073 851.598L651.058 851.573L651.044 851.547L651.03 851.523L651.016 851.498L651.002 851.474L650.989 851.45L650.975 851.427L650.962 851.404L650.95 851.381L650.937 851.359L650.925 851.337L650.912 851.315L650.9 851.294L650.889 851.273L650.877 851.253L650.866 851.233L650.855 851.213L650.844 851.194L650.833 851.175L650.823 851.157L650.813 851.139L650.803 851.121L650.793 851.104L650.783 851.087L650.774 851.071L650.765 851.055L650.756 851.039L650.747 851.024L650.739 851.009L650.731 850.994L650.723 850.98L650.715 850.967L650.708 850.954L650.7 850.941L650.693 850.928L650.687 850.916L650.68 850.905L650.674 850.894L650.668 850.883L650.662 850.873L650.656 850.863L650.651 850.853L650.646 850.844L650.641 850.836L650.636 850.827L650.632 850.82L650.628 850.812L650.624 850.805L650.62 850.799L650.617 850.793L650.614 850.787L650.611 850.782L650.608 850.778L650.606 850.773L650.603 850.769L650.601 850.766L650.6 850.763L650.598 850.761L650.597 850.759L650.596 850.757L650.596 850.756L650.595 850.755C650.595 850.755 650.595 850.755 649.964 851.154C650.595 850.755 650.595 850.755 650.595 850.755L650.595 850.754L650.594 850.753L650.593 850.751L650.592 850.749L650.591 850.747L650.589 850.744L650.587 850.74L650.585 850.737L650.582 850.732L650.58 850.728L650.577 850.723L650.574 850.717L650.57 850.711L650.567 850.704L650.563 850.698L650.559 850.69L650.554 850.682L650.55 850.674L650.545 850.666L650.54 850.657L650.534 850.647L650.529 850.637L650.523 850.627L650.517 850.616L650.51 850.605L650.504 850.594L650.497 850.582L650.49 850.569L650.483 850.556L650.475 850.543L650.468 850.53L650.46 850.515L650.451 850.501L650.443 850.486L650.434 850.471L650.426 850.455L650.416 850.439L650.407 850.423L650.398 850.406L650.388 850.389L650.378 850.371L650.368 850.353L650.357 850.334L650.347 850.316L650.336 850.296L650.325 850.277L650.313 850.257L650.302 850.236L650.29 850.216L650.278 850.195L650.266 850.173L650.253 850.151L650.241 850.129L650.228 850.106L650.215 850.083L650.202 850.06L650.188 850.036L650.175 850.012L650.161 849.987L650.147 849.962L650.132 849.937L650.118 849.912L650.103 849.886L650.088 849.859L650.073 849.833L650.058 849.806L650.042 849.778L650.027 849.75L650.011 849.722L649.995 849.694L649.978 849.665L649.962 849.636L649.945 849.606L649.928 849.576L649.911 849.546L649.894 849.516L649.876 849.485L649.859 849.454L649.841 849.422L649.823 849.39L649.804 849.358L649.786 849.325L649.767 849.292L649.748 849.259L649.729 849.226L649.71 849.192L649.691 849.157L649.671 849.123L649.652 849.088L649.632 849.053L649.612 849.017L649.591 848.981L649.571 848.945L649.55 848.909L649.529 848.872L649.508 848.835L649.487 848.797L649.466 848.76L649.444 848.722L649.423 848.683L649.401 848.645L649.379 848.606L649.356 848.567L649.334 848.527L649.311 848.487L649.289 848.447L649.266 848.407L649.243 848.366L649.22 848.325L649.196 848.283L649.173 848.242L649.149 848.2L649.125 848.158L649.101 848.115L649.077 848.072L649.052 848.029L649.028 847.986L649.003 847.942L648.978 847.898L648.953 847.854L648.928 847.81L648.903 847.765L648.877 847.72L648.852 847.675L648.826 847.629L648.8 847.583L648.774 847.537L648.748 847.491L648.721 847.444L648.695 847.397L648.668 847.35L648.641 847.303L648.614 847.255L648.587 847.207L648.56 847.159L648.532 847.111L648.505 847.062L648.477 847.013L648.449 846.964L648.421 846.914L648.393 846.865L648.365 846.815L648.336 846.765L648.308 846.714L648.279 846.664L648.25 846.613L648.221 846.562L648.192 846.51L648.163 846.459L648.134 846.407L648.104 846.355L648.075 846.302L648.045 846.25L648.015 846.197L647.985 846.144L647.955 846.091L647.925 846.038L647.894 845.984L647.864 845.93L647.833 845.876L647.803 845.822L647.772 845.767L647.741 845.712L647.71 845.657L647.678 845.602L647.647 845.547L647.616 845.491L647.584 845.436L647.552 845.38L647.521 845.323L647.489 845.267L647.457 845.21L647.424 845.154L647.392 845.097L647.36 845.039L647.327 844.982L647.295 844.925L647.262 844.867L647.229 844.809L647.196 844.751L647.163 844.692L647.13 844.634L647.097 844.575L647.064 844.516L647.03 844.457L646.997 844.398L646.963 844.338L646.929 844.279L646.895 844.219L646.862 844.159L646.828 844.099L646.793 844.039L646.759 843.978L646.725 843.918L646.69 843.857L646.656 843.796L646.621 843.735L646.587 843.673L646.552 843.612L646.517 843.55L646.482 843.489L646.447 843.427L646.412 843.365L646.377 843.302L646.341 843.24L646.306 843.177L646.27 843.115L646.235 843.052L646.199 842.989L646.163 842.926L646.128 842.863L646.092 842.799L646.056 842.736L646.02 842.672L645.984 842.608L645.947 842.544L645.911 842.48L645.875 842.416L645.838 842.352L645.802 842.287L645.765 842.222L645.729 842.158L645.692 842.093L645.655 842.028L645.618 841.963L645.581 841.898L645.544 841.832L645.507 841.767L645.47 841.701L645.433 841.635L645.396 841.57L645.358 841.504L645.321 841.438L645.284 841.372L645.246 841.305L645.209 841.239L645.171 841.173L645.133 841.106L645.096 841.039L645.058 840.973L645.02 840.906L644.982 840.839L644.944 840.772L644.906 840.705L644.868 840.637L644.83 840.57L644.792 840.503L644.753 840.435L644.715 840.367L644.677 840.3L644.639 840.232L644.6 840.164L644.562 840.096L644.523 840.028L644.485 839.96L644.446 839.892L644.407 839.824L644.369 839.756L644.33 839.687L644.291 839.619L644.253 839.55L644.214 839.482L644.175 839.413L644.136 839.344L644.097 839.276L644.058 839.207L644.019 839.138L643.98 839.069L643.941 839L643.902 838.931L643.863 838.862L643.824 838.792L643.784 838.723L643.745 838.654L643.706 838.585L643.667 838.515L643.627 838.446L643.588 838.376L643.549 838.307L643.509 838.237L643.47 838.168L643.431 838.098L643.391 838.029L643.352 837.959L643.312 837.889L643.273 837.82L643.233 837.75L643.194 837.68L643.154 837.61L643.115 837.54L643.075 837.47L643.036 837.4L642.996 837.331L642.956 837.261L642.917 837.191L642.877 837.121L642.838 837.051L642.798 836.981L642.758 836.911L642.719 836.841L642.679 836.771L642.639 836.701L642.6 836.631L642.56 836.56L642.521 836.49L642.481 836.42L642.441 836.35L642.402 836.28L642.362 836.21L642.322 836.14L642.283 836.07L642.243 836L642.203 835.93L642.164 835.86L642.124 835.79L642.084 835.72L642.045 835.65L642.005 835.58L641.966 835.51L641.926 835.44L641.886 835.37L641.847 835.3L641.807 835.23L641.768 835.161L641.728 835.091L641.689 835.021L641.649 834.951L641.61 834.882L641.57 834.812L641.531 834.742L641.492 834.673L641.452 834.603L641.413 834.533L641.373 834.464L641.334 834.394L641.295 834.325L641.256 834.256L641.216 834.186L641.177 834.117L641.138 834.048L641.099 833.979L641.06 833.91L641.02 833.84L640.981 833.771L640.942 833.702L640.903 833.634L640.864 833.565L640.825 833.496L640.786 833.427L640.748 833.358L640.709 833.29L640.67 833.221L640.631 833.153L640.593 833.084L640.554 833.016L640.515 832.948L640.477 832.88L640.438 832.812L640.4 832.744L640.361 832.676L640.323 832.608L640.284 832.54L640.246 832.472L640.208 832.405L640.169 832.337L640.131 832.27L640.093 832.202L640.055 832.135L640.017 832.068L639.979 832.001L639.941 831.934L639.903 831.867L639.865 831.8L639.828 831.733L639.79 831.667L639.752 831.6L639.715 831.534L639.677 831.468L639.64 831.401L639.602 831.335L639.565 831.269L639.528 831.204L639.491 831.138L639.453 831.072L639.416 831.007L639.379 830.941L639.342 830.876L639.306 830.811L639.269 830.746L639.232 830.681L639.195 830.616L639.159 830.551L639.122 830.487L639.086 830.423L639.049 830.358L639.013 830.294L638.977 830.23L638.941 830.166L638.905 830.103L638.869 830.039L638.833 829.975L638.797 829.912L638.761 829.849L638.725 829.786L638.69 829.723L638.654 829.66L638.619 829.598L638.583 829.535L638.548 829.473L638.513 829.411L638.478 829.349L638.443 829.287L638.408 829.225L638.373 829.164L638.338 829.103L638.304 829.041L638.269 828.98L638.235 828.919L638.2 828.859L638.166 828.798L638.132 828.738L638.098 828.678L638.064 828.618L638.03 828.558L637.996 828.498L637.963 828.439L637.929 828.379L637.896 828.32L637.862 828.261L637.829 828.203L637.796 828.144L637.763 828.086L637.73 828.027L637.697 827.969L637.664 827.911L637.632 827.854L637.599 827.796L637.567 827.739L637.534 827.682L637.502 827.625L637.47 827.568L637.438 827.512L637.406 827.456L637.375 827.4L637.343 827.344L637.311 827.288L637.28 827.233L637.249 827.178L637.218 827.122L637.187 827.068L637.156 827.013L637.125 826.959L637.094 826.905L637.064 826.851L637.033 826.797L637.003 826.743L636.973 826.69L636.943 826.637L636.913 826.584L636.883 826.532L636.853 826.479L636.824 826.427L636.795 826.375L636.765 826.323L636.736 826.272L636.707 826.221L636.678 826.17L636.65 826.119L636.621 826.068L636.593 826.018L636.564 825.968L636.536 825.918L636.508 825.869L636.48 825.82L636.452 825.771L636.425 825.722L636.397 825.673L636.37 825.625L636.343 825.577L636.316 825.529L636.289 825.482L636.262 825.435L636.236 825.388L636.209 825.341L636.183 825.294L636.157 825.248L636.131 825.202L636.105 825.157L636.079 825.111L636.054 825.066L636.028 825.021L636.003 824.977L635.978 824.932L635.953 824.888L635.928 824.845L635.904 824.801L635.879 824.758L635.855 824.715L635.831 824.673L635.807 824.63L635.783 824.588L635.759 824.546L635.736 824.505L635.713 824.464L635.69 824.423L635.667 824.382L635.644 824.342L635.621 824.302L635.599 824.263L635.576 824.223L635.554 824.184C633.935 821.324 634.14 818.214 636.028 815.624C637.94 813 641.65 810.823 647.17 810.128C655.964 809.02 673.552 806.808 688.941 804.872L709.002 802.349L715.22 801.567L716.924 801.352L717.369 801.296L717.483 801.282L717.512 801.278L717.519 801.277L717.521 801.277C717.521 801.277 717.521 801.277 717.45 800.52L717.521 801.277L717.521 801.277C720.79 800.866 723.171 802.184 724.301 804.179C725.43 806.175 725.403 809.015 723.514 811.863L723.509 811.87L723.508 811.871L723.507 811.874L723.506 811.874L723.244 812.269L723.244 812.27L723.169 812.384L722.184 813.87C721.33 815.157 720.1 817.013 718.591 819.288C715.573 823.838 711.444 830.064 706.997 836.768C698.102 850.178 687.936 865.502 682.853 873.163Z" fill="#FC6D21" stroke="#271A58" stroke-width="1.5"></path> <path d="M694.274 824.547C694.905 824.148 694.905 824.148 694.905 824.148L694.905 824.147L694.904 824.146L694.903 824.144L694.902 824.142L694.901 824.14L694.899 824.137L694.897 824.134L694.895 824.13L694.892 824.125L694.89 824.121L694.887 824.116L694.884 824.11L694.88 824.104L694.877 824.098L694.873 824.091L694.868 824.083L694.864 824.076L694.859 824.067L694.855 824.059L694.849 824.05L694.844 824.04L694.839 824.03L694.833 824.02L694.827 824.009L694.82 823.998L694.814 823.987L694.807 823.975L694.8 823.962L694.793 823.949L694.785 823.936L694.777 823.923L694.77 823.908L694.761 823.894L694.753 823.879L694.744 823.864L694.735 823.848L694.726 823.832L694.717 823.816L694.707 823.799L694.698 823.782L694.688 823.764L694.677 823.746L694.667 823.727L694.656 823.709L694.646 823.689L694.634 823.67L694.623 823.65L694.612 823.629L694.6 823.609L694.588 823.587L694.576 823.566L694.563 823.544L694.551 823.522L694.538 823.499L694.525 823.476L694.511 823.453L694.498 823.429L694.484 823.405L694.47 823.38L694.456 823.355L694.442 823.33L694.428 823.304L694.413 823.278L694.398 823.252L694.383 823.225L694.368 823.198L694.352 823.171L694.336 823.143L694.32 823.115L694.304 823.087L694.288 823.058L694.271 823.029L694.255 822.999L694.238 822.969L694.221 822.939L694.203 822.908L694.186 822.877L694.168 822.846L694.15 822.815L694.132 822.783L694.114 822.75L694.096 822.718L694.077 822.685L694.058 822.652L694.039 822.618L694.02 822.584L694.001 822.55L693.981 822.515L693.961 822.481L693.941 822.445L693.921 822.41L693.901 822.374L693.88 822.338L693.86 822.301L693.839 822.264L693.818 822.227L693.797 822.19L693.775 822.152L693.754 822.114L693.732 822.076L693.71 822.037L693.688 821.998L693.666 821.959L693.644 821.919L693.621 821.879L693.598 821.839L693.575 821.799L693.552 821.758L693.529 821.717L693.506 821.676L693.482 821.634L693.458 821.592L693.434 821.55L693.41 821.507L693.386 821.465L693.362 821.421L693.337 821.378L693.312 821.334L693.288 821.291L693.263 821.246L693.237 821.202L693.212 821.157L693.187 821.112L693.161 821.067L693.135 821.021L693.109 820.975L693.083 820.929L693.057 820.883L693.03 820.836L693.004 820.789L692.977 820.742L692.95 820.695L692.923 820.647L692.896 820.599L692.869 820.551L692.842 820.503L692.814 820.454L692.786 820.405L692.758 820.356L692.73 820.306L692.702 820.257L692.674 820.207L692.646 820.156L692.617 820.106L692.588 820.055L692.56 820.004L692.531 819.953L692.502 819.902L692.472 819.85L692.443 819.798L692.414 819.746L692.384 819.694L692.354 819.641L692.324 819.589L692.294 819.536L692.264 819.483L692.234 819.429L692.204 819.375L692.173 819.322L692.142 819.267L692.112 819.213L692.081 819.159L692.05 819.104L692.019 819.049L691.987 818.994L691.956 818.938L691.925 818.883L691.893 818.827L691.861 818.771L691.83 818.715L691.798 818.658L691.766 818.602L691.733 818.545L691.701 818.488L691.669 818.431L691.636 818.373L691.604 818.316L691.571 818.258L691.538 818.2L691.505 818.142L691.472 818.083L691.439 818.025L691.406 817.966L691.372 817.907L691.339 817.848L691.305 817.789L691.272 817.729L691.238 817.67L691.204 817.61L691.17 817.55L691.136 817.49L691.102 817.43L691.068 817.369L691.034 817.308L690.999 817.248L690.965 817.187L690.93 817.125L690.895 817.064L690.86 817.003L690.826 816.941L690.791 816.879L690.756 816.817L690.72 816.755L690.685 816.693L690.65 816.631L690.614 816.568L690.579 816.505L690.543 816.442L690.508 816.38L690.472 816.316L690.436 816.253L690.4 816.19L690.364 816.126L690.328 816.062L690.292 815.999L690.256 815.935L690.22 815.87L690.183 815.806L690.147 815.742L690.11 815.677L690.074 815.613L690.037 815.548L690 815.483L689.963 815.418L689.927 815.353L689.89 815.288L689.853 815.222L689.816 815.157L689.778 815.091L689.741 815.026L689.704 814.96L689.667 814.894L689.629 814.828L689.592 814.762L689.554 814.695L689.517 814.629L689.479 814.562L689.441 814.496L689.404 814.429L689.366 814.362L689.328 814.296L689.29 814.229L689.252 814.161L689.214 814.094L689.176 814.027L689.138 813.96L689.1 813.892L689.062 813.825L689.023 813.757L688.985 813.689L688.947 813.622L688.908 813.554L688.87 813.486L688.831 813.418L688.793 813.35L688.754 813.282L688.715 813.213L688.677 813.145L688.638 813.077L688.599 813.008L688.56 812.94L688.522 812.871L688.483 812.802L688.444 812.734L688.405 812.665L688.366 812.596L688.327 812.527L688.288 812.458L688.249 812.389L688.21 812.32L688.171 812.251L688.131 812.182L688.092 812.112L688.053 812.043L688.014 811.974L687.974 811.904L687.935 811.835L687.896 811.765L687.856 811.696L687.817 811.626L687.778 811.557L687.738 811.487L687.699 811.417L687.659 811.348L687.62 811.278L687.58 811.208L687.541 811.138L687.501 811.069L687.462 810.999L687.422 810.929L687.383 810.859L687.343 810.789L687.304 810.719L687.264 810.649L687.224 810.579L687.185 810.509L687.145 810.439L687.105 810.369L687.066 810.299L687.026 810.229L686.986 810.159L686.947 810.089L686.907 810.019L686.867 809.949L686.828 809.879L686.788 809.809L686.748 809.739L686.709 809.668L686.669 809.598L686.629 809.528L686.59 809.458L686.55 809.388L686.51 809.318L686.471 809.248L686.431 809.178L686.392 809.108L686.352 809.038L686.312 808.968L686.273 808.898L686.233 808.828L686.194 808.758L686.154 808.688L686.114 808.618L686.075 808.549L686.035 808.479L685.996 808.409L685.956 808.339L685.917 808.269L685.877 808.2L685.838 808.13L685.798 808.06L685.759 807.991L685.72 807.921L685.68 807.852L685.641 807.782L685.602 807.713L685.562 807.643L685.523 807.574L685.484 807.505L685.445 807.435L685.406 807.366L685.366 807.297L685.327 807.228L685.288 807.159L685.249 807.09L685.21 807.021L685.171 806.952L685.132 806.883L685.093 806.814L685.054 806.746L685.016 806.677L684.977 806.609L684.938 806.54L684.899 806.472L684.861 806.403L684.822 806.335L684.783 806.267L684.745 806.199L684.706 806.131L684.668 806.063L684.629 805.995L684.591 805.927L684.553 805.859L684.514 805.792L684.476 805.724L684.438 805.657L684.4 805.589L684.362 805.522L684.324 805.455L684.286 805.388L684.248 805.321L684.21 805.254L684.172 805.187L684.134 805.12L684.096 805.054L684.059 804.987L684.021 804.921L683.984 804.854L683.946 804.788L683.909 804.722L683.871 804.656L683.834 804.59L683.797 804.524L683.76 804.459L683.723 804.393L683.686 804.328L683.649 804.263L683.612 804.197L683.575 804.132L683.538 804.067L683.502 804.003L683.465 803.938L683.428 803.873L683.392 803.809L683.356 803.745L683.319 803.68L683.283 803.616L683.247 803.553L683.211 803.489L683.175 803.425L683.139 803.362L683.103 803.298L683.067 803.235L683.031 803.172L682.996 803.109L682.96 803.046L682.925 802.984L682.89 802.921L682.854 802.859L682.819 802.797L682.784 802.735L682.749 802.673L682.714 802.611L682.679 802.55L682.644 802.488L682.61 802.427L682.575 802.366L682.541 802.305L682.506 802.245L682.472 802.184L682.438 802.124L682.404 802.063L682.37 802.003L682.336 801.944L682.302 801.884L682.269 801.824L682.235 801.765L682.201 801.706L682.168 801.647L682.135 801.588L682.102 801.53L682.069 801.471L682.036 801.413L682.003 801.355L681.97 801.297L681.937 801.239L681.905 801.182L681.872 801.125L681.84 801.067L681.808 801.011L681.776 800.954L681.744 800.897L681.712 800.841L681.68 800.785L681.649 800.729L681.617 800.673L681.586 800.618L681.554 800.563L681.523 800.508L681.492 800.453L681.461 800.398L681.43 800.344L681.4 800.29L681.369 800.236L681.339 800.182L681.309 800.128L681.278 800.075L681.248 800.022L681.218 799.969L681.189 799.917L681.159 799.864L681.129 799.812L681.1 799.76L681.071 799.708L681.042 799.657L681.013 799.606L680.984 799.555L680.955 799.504L680.926 799.453L680.898 799.403L680.87 799.353L680.841 799.303L680.813 799.254L680.786 799.204L680.758 799.155L680.73 799.107L680.703 799.058L680.675 799.01L680.648 798.962L680.621 798.914L680.594 798.866L680.567 798.819L680.541 798.772L680.514 798.725L680.488 798.679L680.462 798.633L680.436 798.587L680.41 798.541L680.384 798.496L680.359 798.451L680.333 798.406L680.308 798.361L680.283 798.317L680.258 798.273L680.233 798.229L680.209 798.186L680.184 798.143L680.16 798.1L680.136 798.057L680.112 798.015L680.088 797.973L680.065 797.931L680.041 797.889L680.018 797.848L679.995 797.807L679.972 797.767L679.949 797.726L679.926 797.686L679.904 797.647L679.881 797.607L679.859 797.568C678.24 794.707 678.445 791.596 680.333 789.005C682.246 786.38 685.957 784.203 691.479 783.507C700.082 782.424 717.29 780.26 732.346 778.366L751.973 775.897L758.056 775.132L759.724 774.923L760.159 774.868L760.27 774.854L760.298 774.85L760.305 774.849L760.307 774.849C760.308 774.849 760.308 774.849 760.239 774.115L760.239 774.115L760.308 774.849L760.308 774.849C763.923 774.394 766.567 775.851 767.824 778.071C769.081 780.292 769.045 783.443 766.955 786.592L766.951 786.599L766.934 786.624L766.869 786.722L766.617 787.101L765.653 788.555L762.136 793.856C759.183 798.307 755.143 804.398 750.792 810.957L748.023 815.133C740.061 827.136 731.625 839.854 727.173 846.564C723.982 851.374 720.411 853.798 717.317 854.337C714.263 854.869 711.57 853.589 709.951 850.728L709.929 850.689L709.906 850.649L709.884 850.61L709.861 850.57L709.839 850.529L709.816 850.489L709.792 850.448L709.769 850.407L709.746 850.365L709.722 850.323L709.698 850.281L709.674 850.239L709.65 850.196L709.626 850.154L709.601 850.11L709.577 850.067L709.552 850.023L709.527 849.979L709.502 849.935L709.477 849.89L709.451 849.845L709.426 849.8L709.4 849.755L709.374 849.709L709.348 849.663L709.322 849.617L709.296 849.571L709.269 849.524L709.243 849.477L709.216 849.43L709.189 849.382L709.162 849.334L709.135 849.286L709.108 849.238L709.08 849.189L709.053 849.141L709.025 849.092L708.997 849.042L708.969 848.993L708.941 848.943L708.912 848.893L708.884 848.843L708.855 848.792L708.827 848.741L708.798 848.69L708.769 848.639L708.74 848.588L708.71 848.536L708.681 848.484L708.651 848.432L708.622 848.379L708.592 848.327L708.562 848.274L708.532 848.221L708.502 848.168L708.471 848.114L708.441 848.06L708.41 848.006L708.38 847.952L708.349 847.898L708.318 847.843L708.287 847.788L708.256 847.733L708.225 847.678L708.193 847.623L708.162 847.567L708.13 847.511L708.098 847.455L708.066 847.399L708.034 847.342L708.002 847.285L707.97 847.229L707.938 847.171L707.905 847.114L707.873 847.057L707.84 846.999L707.808 846.941L707.775 846.883L707.742 846.825L707.709 846.767L707.675 846.708L707.642 846.649L707.609 846.59L707.575 846.531L707.542 846.472L707.508 846.412L707.474 846.352L707.44 846.293L707.406 846.233L707.372 846.172L707.338 846.112L707.304 846.051L707.269 845.991L707.235 845.93L707.2 845.869L707.166 845.808L707.131 845.746L707.096 845.685L707.061 845.623L707.026 845.561L706.991 845.499L706.956 845.437L706.921 845.375L706.885 845.312L706.85 845.25L706.814 845.187L706.779 845.124L706.743 845.061L706.707 844.998L706.672 844.934L706.636 844.871L706.6 844.807L706.563 844.743L706.527 844.68L706.491 844.616L706.455 844.551L706.418 844.487L706.382 844.423L706.345 844.358L706.309 844.293L706.272 844.229L706.235 844.164L706.198 844.099L706.162 844.034L706.125 843.968L706.088 843.903L706.05 843.837L706.013 843.772L705.976 843.706L705.939 843.64L705.901 843.574L705.864 843.508L705.827 843.442L705.789 843.375L705.751 843.309L705.714 843.242L705.676 843.176L705.638 843.109L705.601 843.042L705.563 842.975L705.525 842.908L705.487 842.841L705.449 842.774L705.411 842.707L705.372 842.639L705.334 842.572L705.296 842.504L705.258 842.437L705.219 842.369L705.181 842.301L705.143 842.233L705.104 842.165L705.066 842.097L705.027 842.029L704.988 841.961L704.95 841.893L704.911 841.824L704.872 841.756L704.834 841.687L704.795 841.619L704.756 841.55L704.717 841.482L704.678 841.413L704.639 841.344L704.6 841.275L704.561 841.206L704.522 841.137L704.483 841.068L704.444 840.999L704.405 840.93L704.366 840.861L704.326 840.791L704.287 840.722L704.248 840.653L704.209 840.583L704.169 840.514L704.13 840.444L704.091 840.375L704.051 840.305L704.012 840.236L703.972 840.166L703.933 840.096L703.893 840.027L703.854 839.957L703.814 839.887L703.775 839.817L703.735 839.747L703.696 839.678L703.656 839.608L703.617 839.538L703.577 839.468L703.538 839.398L703.498 839.328L703.458 839.258L703.419 839.188L703.379 839.118L703.339 839.048L703.3 838.978L703.26 838.908L703.22 838.838L703.181 838.768L703.141 838.698L703.101 838.628L703.062 838.557L703.022 838.487L702.982 838.417L702.943 838.347L702.903 838.277L702.863 838.207L702.824 838.137L702.784 838.067L702.744 837.997L702.705 837.927L702.665 837.857L702.626 837.787L702.586 837.717L702.546 837.647L702.507 837.577L702.467 837.507L702.428 837.437L702.388 837.367L702.348 837.297L702.309 837.227L702.269 837.158L702.23 837.088L702.19 837.018L702.151 836.948L702.111 836.879L702.072 836.809L702.033 836.739L701.993 836.67L701.954 836.6L701.914 836.531L701.875 836.461L701.836 836.392L701.797 836.322L701.757 836.253L701.718 836.184L701.679 836.114L701.64 836.045L701.601 835.976L701.561 835.907L701.522 835.838L701.483 835.769L701.444 835.7L701.405 835.631L701.366 835.562L701.328 835.494L701.289 835.425L701.25 835.356L701.211 835.288L701.172 835.219L701.134 835.151L701.095 835.083L701.056 835.014L701.018 834.946L700.979 834.878L700.941 834.81L700.902 834.742L700.864 834.674L700.825 834.607L700.787 834.539L700.749 834.471L700.711 834.404L700.672 834.336L700.634 834.269L700.596 834.202L700.558 834.135L700.52 834.067L700.482 834.001L700.444 833.934L700.407 833.867L700.369 833.8L700.331 833.734L700.294 833.667L700.256 833.601L700.218 833.534L700.181 833.468L700.144 833.402L700.106 833.336L700.069 833.27L700.032 833.205L699.995 833.139L699.958 833.074L699.921 833.008L699.884 832.943L699.847 832.878L699.81 832.813L699.773 832.748L699.737 832.683L699.7 832.619L699.664 832.554L699.627 832.49L699.591 832.426L699.554 832.361L699.518 832.297L699.482 832.234L699.446 832.17L699.41 832.106L699.374 832.043L699.338 831.98L699.303 831.917L699.267 831.854L699.231 831.791L699.196 831.728L699.16 831.665L699.125 831.603L699.09 831.541L699.055 831.479L699.02 831.417L698.985 831.355L698.95 831.293L698.915 831.232L698.88 831.171L698.846 831.109L698.811 831.048L698.777 830.988L698.742 830.927L698.708 830.866L698.674 830.806L698.64 830.746L698.606 830.686L698.572 830.626L698.538 830.567L698.505 830.507L698.471 830.448L698.438 830.389L698.404 830.33L698.371 830.271L698.338 830.213L698.305 830.154L698.272 830.096L698.239 830.038L698.207 829.98L698.174 829.923L698.142 829.865L698.109 829.808L698.077 829.751L698.045 829.694L698.013 829.638L697.981 829.581L697.949 829.525L697.917 829.469L697.886 829.413L697.854 829.358L697.823 829.302L697.792 829.247L697.76 829.192L697.729 829.137L697.699 829.083L697.668 829.029L697.637 828.974L697.607 828.921L697.576 828.867L697.546 828.814L697.516 828.76L697.486 828.707L697.456 828.655L697.426 828.602L697.397 828.55L697.367 828.498L697.338 828.446L697.309 828.394L697.28 828.343L697.251 828.292L697.222 828.241L697.193 828.19L697.165 828.14L697.136 828.089L697.108 828.039L697.08 827.99L697.052 827.94L697.024 827.891L696.996 827.842L696.969 827.793L696.941 827.745L696.914 827.697L696.887 827.649L696.86 827.601L696.833 827.554L696.806 827.507L696.78 827.46L696.753 827.413L696.727 827.367L696.701 827.321L696.675 827.275L696.649 827.229L696.624 827.184L696.598 827.139L696.573 827.094L696.548 827.05L696.523 827.006L696.498 826.962L696.473 826.918L696.449 826.875L696.424 826.832L696.4 826.789L696.376 826.746L696.352 826.704L696.328 826.662L696.305 826.62L696.281 826.579L696.258 826.538L696.235 826.497L696.212 826.457L696.189 826.417L696.167 826.377L696.144 826.337L696.122 826.298L696.1 826.259L696.078 826.22L696.056 826.182L696.035 826.144L696.014 826.106L695.992 826.069L695.971 826.032L695.951 825.995L695.93 825.958L695.909 825.922L695.889 825.886L695.869 825.851L695.849 825.816L695.829 825.781L695.81 825.746L695.79 825.712L695.771 825.678L695.752 825.644L695.733 825.611L695.715 825.578L695.696 825.546L695.678 825.513L695.66 825.481L695.642 825.45L695.624 825.419L695.607 825.388L695.59 825.357L695.572 825.327L695.556 825.297L695.539 825.267L695.522 825.238L695.506 825.209L695.49 825.181L695.474 825.153L695.458 825.125L695.443 825.098L695.427 825.071L695.412 825.044L695.397 825.018L695.383 824.992L695.368 824.966L695.354 824.941L695.34 824.916L695.326 824.891L695.312 824.867L695.299 824.843L695.286 824.82L695.272 824.797L695.26 824.774L695.247 824.752L695.235 824.73L695.222 824.709L695.21 824.687L695.199 824.667L695.187 824.646L695.176 824.626L695.165 824.607L695.154 824.587L695.143 824.569L695.133 824.55L695.123 824.532L695.113 824.514L695.103 824.497L695.093 824.48L695.084 824.464L695.075 824.448L695.066 824.432L695.057 824.417L695.049 824.402L695.041 824.388L695.033 824.374L695.025 824.36L695.018 824.347L695.01 824.334L695.003 824.321L694.997 824.309L694.99 824.298L694.984 824.287L694.978 824.276L694.972 824.266L694.966 824.256L694.961 824.246L694.956 824.237L694.951 824.229L694.946 824.22L694.942 824.213L694.938 824.205L694.934 824.199L694.93 824.192L694.927 824.186L694.923 824.18L694.921 824.175L694.918 824.171L694.915 824.166L694.913 824.162L694.911 824.159L694.91 824.156L694.908 824.154L694.907 824.152L694.906 824.15L694.906 824.149L694.905 824.148C694.905 824.148 694.905 824.148 694.274 824.547Z" fill="#F99841" stroke="#271A58" stroke-width="1.5"></path> <mask id="path-13-inside-2_10_137" fill="white"> <path fill-rule="evenodd" clip-rule="evenodd" d="M683.111 804.598C700.468 802.953 716.583 801.425 716.583 801.425C723.57 800.762 727.484 807.426 723.626 813.418C723.627 813.42 714.37 827.806 704.571 843.032L693.664 823.497L683.111 804.598Z"></path> </mask> <path fill-rule="evenodd" clip-rule="evenodd" d="M683.111 804.598C700.468 802.953 716.583 801.425 716.583 801.425C723.57 800.762 727.484 807.426 723.626 813.418C723.627 813.42 714.37 827.806 704.571 843.032L693.664 823.497L683.111 804.598Z" fill="#D65116"></path> <path d="M683.111 804.598L683.012 803.08L680.678 803.301L681.843 805.388L683.111 804.598ZM716.583 801.425L716.682 802.944L716.682 802.944L716.583 801.425ZM723.626 813.418L722.418 812.588L721.889 813.41L722.375 814.236L723.626 813.418ZM704.571 843.032L703.303 843.821L704.466 845.903L705.779 843.861L704.571 843.032ZM693.664 823.497L694.932 822.707L693.664 823.497ZM683.21 806.117C691.889 805.294 700.257 804.501 706.455 803.913C709.554 803.619 712.111 803.377 713.893 803.208C714.784 803.124 715.481 803.058 715.956 803.013C716.193 802.99 716.375 802.973 716.497 802.961C716.558 802.956 716.605 802.951 716.636 802.948C716.651 802.947 716.663 802.946 716.671 802.945C716.674 802.945 716.677 802.944 716.679 802.944C716.68 802.944 716.681 802.944 716.682 802.944C716.682 802.944 716.682 802.944 716.682 802.944C716.682 802.944 716.682 802.944 716.583 801.425C716.484 799.907 716.484 799.907 716.484 799.907C716.484 799.907 716.484 799.907 716.483 799.907C716.483 799.907 716.482 799.907 716.481 799.907C716.479 799.907 716.476 799.908 716.472 799.908C716.465 799.909 716.453 799.91 716.437 799.911C716.406 799.914 716.36 799.919 716.299 799.924C716.177 799.936 715.995 799.953 715.758 799.976C715.283 800.021 714.586 800.087 713.695 800.171C711.913 800.34 709.356 800.582 706.257 800.876C700.059 801.464 691.691 802.257 683.012 803.08L683.21 806.117ZM716.682 802.944C719.69 802.659 721.863 803.945 722.92 805.744C723.97 807.532 724.051 810.052 722.418 812.588L724.834 814.248C727.059 810.792 727.112 806.984 725.423 804.108C723.741 801.243 720.464 799.529 716.484 799.907L716.682 802.944ZM722.375 814.236C722.164 813.456 722.383 812.646 722.394 812.627C722.398 812.621 722.404 812.611 722.405 812.608C722.407 812.607 722.408 812.604 722.409 812.603C722.409 812.602 722.41 812.601 722.41 812.601C722.411 812.6 722.41 812.601 722.408 812.604C722.405 812.61 722.399 812.619 722.39 812.633C722.372 812.66 722.346 812.701 722.311 812.755C722.241 812.864 722.137 813.026 722.001 813.238C721.729 813.661 721.329 814.282 720.819 815.076C719.798 816.662 718.335 818.937 716.566 821.686C713.027 827.186 708.263 834.589 703.363 842.202L705.779 843.861C710.679 836.248 715.443 828.845 718.982 823.345C720.752 820.595 722.215 818.321 723.236 816.734C723.746 815.941 724.146 815.319 724.418 814.896C724.554 814.684 724.659 814.522 724.729 814.412C724.764 814.357 724.791 814.316 724.809 814.287C724.818 814.273 724.826 814.262 724.831 814.253C724.833 814.25 724.836 814.245 724.839 814.241C724.84 814.239 724.843 814.235 724.846 814.229C724.848 814.226 724.854 814.216 724.858 814.21C724.87 814.191 725.088 813.38 724.878 812.6L722.375 814.236ZM705.839 842.242L694.932 822.707L692.396 824.287L703.303 843.821L705.839 842.242ZM694.932 822.707L684.379 803.809L681.843 805.388L692.396 824.287L694.932 822.707Z" fill="#271A58" mask="url(#path-13-inside-2_10_137)"></path> <path d="M736.979 333.931L746.115 411.435L775.214 414.923L765.009 375.064L791.12 386.013L782.447 258.431L770.193 350.032L736.979 333.931Z" fill="#F99841" stroke="#271A58"></path> <path d="M378.521 421.936L429.165 495.71L413.169 536.212L380.405 468.696L358.384 491.354L306.288 402.653L354.147 448.996L378.521 421.936Z" fill="#F99841" stroke="#271A58"></path> <ellipse cx="439.899" cy="542.858" rx="32.1262" ry="53.5436" transform="rotate(-16.8671 439.899 542.858)" fill="#F99841" stroke="#271A58"></ellipse> <ellipse cx="755.725" cy="447.101" rx="32.1262" ry="53.5436" transform="rotate(-13.9989 755.725 447.101)" fill="#F99841" stroke="#271A58"></ellipse> <path d="M657.525 744.358C765.068 722.364 778.62 566.302 755.592 442.52C701.854 153.671 350.195 250.862 427.795 501.259C453.33 601.27 527.014 771.049 657.525 744.358Z" fill="#F9D8CA" stroke="#271A58"></path> <path d="M565.831 533.839C562.175 520.1 553.417 510.554 546.269 512.517C539.121 514.48 536.29 527.208 539.945 540.947C543.601 554.686 552.359 564.232 559.507 562.269C566.655 560.306 569.486 547.578 565.831 533.839Z" fill="#271A58"></path> <path d="M680.502 499.099C676.847 485.36 668.089 475.814 660.941 477.777C653.792 479.739 650.961 492.468 654.617 506.207C658.272 519.946 667.03 529.492 674.178 527.529C681.326 525.566 684.158 512.837 680.502 499.099Z" fill="#271A58"></path> <path d="M522.92 516.155L573.151 507.948" stroke="#271A58"></path> <path d="M639.678 488.825L684.825 465.324" stroke="#271A58"></path> <path d="M603.827 526.726C621.91 534.569 639.387 541.055 640.089 559.993C640.752 577.877 620.117 582.547 606.913 582.426" stroke="#271A58"></path> <path d="M579.985 603.96C591.385 622.545 623.606 648.516 661.296 603.722" stroke="#271A58"></path> <path fill-rule="evenodd" clip-rule="evenodd" d="M755.838 442.802C778.867 566.585 765.315 722.646 657.771 744.64C527.26 771.331 453.576 601.552 428.042 501.541C350.442 251.144 702.101 153.954 755.838 442.802ZM714.552 445.663L609.445 483.238C622.002 503.656 652.464 544.267 688.143 535.45C716.687 528.396 717.642 472.653 714.552 445.663ZM583.274 492.88C588.839 513.107 590.494 566.823 556.454 572.94C522.414 579.057 489.301 544.112 475.023 525.229L583.274 492.88ZM490.129 571.36C507.623 624.05 572.688 737.9 653.568 714.991C739.765 690.576 744.135 564.027 736.152 502.004C727.126 553.541 674.564 589.381 605.331 507.537C607.067 548.597 592.553 576.093 570.723 587.769C548.339 599.741 518.263 595.082 490.129 571.36Z" fill="#A576FF"></path> <path d="M657.771 744.64L657.671 744.15L657.671 744.15L657.771 744.64ZM755.838 442.802L755.347 442.894L755.838 442.802ZM428.042 501.541L428.526 501.418L428.523 501.405L428.519 501.393L428.042 501.541ZM609.445 483.238L609.277 482.767L608.696 482.975L609.019 483.5L609.445 483.238ZM714.552 445.663L715.049 445.606L714.977 444.98L714.384 445.192L714.552 445.663ZM688.143 535.45L688.263 535.935L688.143 535.45ZM556.454 572.94L556.366 572.448L556.366 572.448L556.454 572.94ZM583.274 492.88L583.756 492.747L583.621 492.254L583.131 492.401L583.274 492.88ZM475.023 525.229L474.88 524.749L474.19 524.956L474.625 525.53L475.023 525.229ZM653.568 714.991L653.432 714.51L653.432 714.51L653.568 714.991ZM490.129 571.36L490.451 570.978L489.096 569.835L489.654 571.518L490.129 571.36ZM736.152 502.004L736.648 501.94L735.66 501.918L736.152 502.004ZM605.331 507.537L605.712 507.214L604.769 506.1L604.831 507.558L605.331 507.537ZM570.723 587.769L570.487 587.328L570.487 587.328L570.723 587.769ZM657.871 745.13C711.916 734.077 742.281 689.335 756.255 632.01C770.229 574.682 767.852 504.645 756.33 442.711L755.347 442.894C766.853 504.742 769.214 574.627 755.283 631.774C741.352 688.923 711.169 733.209 657.671 744.15L657.871 745.13ZM427.557 501.665C440.333 551.703 465.158 619.219 503.137 670.9C541.116 722.581 592.339 758.532 657.871 745.13L657.671 744.15C592.693 757.439 541.818 721.846 503.943 670.308C466.069 618.77 441.285 551.39 428.526 501.418L427.557 501.665ZM756.33 442.711C742.876 370.395 710.763 322.185 671.324 294.501C631.889 266.819 585.172 259.692 542.577 269.467C499.983 279.242 461.501 305.92 438.532 345.858C415.56 385.803 408.128 438.973 427.564 501.689L428.519 501.393C409.155 438.91 416.581 386.033 439.399 346.357C462.221 306.674 500.462 280.158 542.8 270.442C585.137 260.726 631.56 267.81 670.75 295.319C709.936 322.826 741.932 370.785 755.347 442.894L756.33 442.711ZM609.614 483.709L714.72 446.134L714.384 445.192L609.277 482.767L609.614 483.709ZM688.023 534.964C670.412 539.316 654.04 531.485 640.447 519.926C626.86 508.372 616.137 493.166 609.871 482.976L609.019 483.5C615.31 493.729 626.097 509.036 639.799 520.688C653.496 532.335 670.195 540.4 688.263 535.935L688.023 534.964ZM714.055 445.72C715.597 459.183 716.127 479.813 712.719 497.94C711.015 507.004 708.331 515.411 704.319 521.98C700.311 528.542 694.996 533.241 688.023 534.964L688.263 535.935C695.562 534.131 701.07 529.218 705.173 522.501C709.272 515.79 711.986 507.252 713.702 498.125C717.134 479.869 716.597 459.133 715.049 445.606L714.055 445.72ZM556.543 573.432C573.878 570.317 582.05 555.08 585.207 538.294C588.368 521.49 586.557 502.928 583.756 492.747L582.792 493.012C585.556 503.059 587.355 521.468 584.225 538.109C581.091 554.766 573.071 569.446 556.366 572.448L556.543 573.432ZM474.625 525.53C481.781 534.995 493.663 548.494 508.035 558.865C522.399 569.23 539.327 576.526 556.543 573.432L556.366 572.448C539.542 575.471 522.893 568.353 508.621 558.054C494.357 547.761 482.543 534.346 475.422 524.927L474.625 525.53ZM583.131 492.401L474.88 524.749L475.167 525.708L583.417 493.359L583.131 492.401ZM653.432 714.51C613.277 725.883 576.977 703.334 548.453 671.193C519.942 639.067 499.333 597.495 490.603 571.203L489.654 571.518C498.419 597.915 519.089 639.613 547.705 671.857C576.306 704.086 612.979 727.007 653.704 715.472L653.432 714.51ZM735.656 502.068C739.642 533.039 740.542 580.115 729.693 622.477C718.842 664.846 696.279 702.374 653.432 714.51L653.704 715.472C697.054 703.194 719.774 665.24 730.662 622.725C741.551 580.203 740.645 532.992 736.648 501.94L735.656 502.068ZM604.949 507.86C639.609 548.834 670.232 560.51 693.429 555.276C716.62 550.044 732.112 527.974 736.645 502.09L735.66 501.918C731.167 527.571 715.864 549.19 693.209 554.301C670.56 559.411 640.285 548.084 605.712 507.214L604.949 507.86ZM570.959 588.21C593.017 576.412 607.572 548.691 605.83 507.516L604.831 507.558C606.563 548.503 592.089 575.774 570.487 587.328L570.959 588.21ZM489.806 571.743C518.043 595.55 548.339 600.308 570.959 588.21L570.487 587.328C548.339 599.174 518.484 594.614 490.451 570.978L489.806 571.743Z" fill="#271A58"></path> <path d="M362.555 195.729C336.878 201.292 340.879 434.338 346.089 550.165C346.574 661.375 116.93 1152.67 339.209 1128.5C553.771 1105.18 434.426 603.324 460.887 532.141C487.349 460.958 472.472 391.362 464.934 343.746C454.923 280.51 438.401 281.88 428.181 287.441C427.914 226.11 414.417 143.615 384.581 174.215C382.079 170.813 379.528 169.049 377.041 168.894C365.355 168.166 362.514 186.48 362.555 195.729Z" fill="#A576FF"></path> <path d="M362.555 195.729C336.878 201.292 340.879 434.338 346.089 550.165C346.574 661.375 116.93 1152.67 339.209 1128.5C553.771 1105.18 434.426 603.324 460.887 532.141C487.349 460.958 472.472 391.362 464.934 343.746C454.923 280.51 438.401 281.88 428.181 287.441M362.555 195.729C388.232 190.165 387.342 298.815 386.609 353.822M362.555 195.729C362.514 186.48 365.355 168.166 377.041 168.894C379.528 169.049 382.079 170.813 384.581 174.215M404.576 344.009C407.785 246.259 396.769 190.792 384.581 174.215M384.581 174.215C414.417 143.615 427.914 226.11 428.181 287.441M428.548 371.65C429.043 358.001 428.419 310.797 428.181 287.441M398.369 371.782C414.648 384.042 446.682 422.292 444.585 477.208" stroke="#271A58"></path> <path d="M255.991 900.968C253.702 908.545 248.48 946.596 246.155 964.674L303.419 910.238L316.318 951.007L392.194 886.606L426.028 978.403L440.897 963.781L454.105 1001.6C461.779 985.467 464.677 954.962 465.167 941.726L453.965 888.624L437.465 908.728L404.142 833.039L332.753 890.313L340.786 860.955L255.991 900.968Z" fill="#F99841" stroke="#271A58"></path> <path d="M826 604.07L759 748.07L812.5 657.07L826 706.07L948.5 502.57L985.5 604.07L1226 190.07L1200.5 125.57L985.5 516.57L964.5 433.07L826 662.57V604.07Z" fill="white" stroke="#271A58"></path> <path d="M828 975L732 861.07L835.5 1024L846.5 975L916 1109.5L946.5 1056.93L1210 1320L1264 1303L941.5 1012.5L916 1049.5L846.5 922.5L828 975Z" fill="white" stroke="#271A58"></path> <path d="M933.088 723.5L788 790L891.798 767V801L1056.96 739V790L1330.5 739L1350 661L1100.54 739V676.5L918.178 767L933.088 723.5Z" fill="white" stroke="#271A58"></path> <path d="M507 745.57L607 801.07L527 769.07L533 817.07L357.5 705.57V785.57L155 620.07V693.07L1 610.07V517.57L128 635.57V551.57L340.5 735.57V654.57L517 785.57L507 745.57Z" fill="white" stroke="#271A58"></path> <path d="M500 889.5L623 847.07L539.5 895.5L575 920L400.5 1002.5L454.5 1018.5L259.5 1143L328.5 1178L6 1384.5V1292.5L259.5 1178L202.5 1143L400.5 1027L354.5 1002.5L534 911.5L500 889.5Z" fill="white" stroke="#271A58"></path> </svg> 