<?xml version="1.0" encoding="UTF-8"?> <svg xmlns="http://www.w3.org/2000/svg" width="280" height="44" viewBox="0 0 280 44" fill="none"> <rect x="155.453" y="0.251953" width="123.722" height="43.0338" rx="21.5169" fill="white" fill-opacity="0.1"></rect> <path d="M174.603 27.8463C177.723 27.8463 180.047 25.544 180.047 22.2519C180.047 18.9598 177.723 16.6575 174.603 16.6575C171.483 16.6575 169.159 18.9598 169.159 22.2519C169.159 25.544 171.483 27.8463 174.603 27.8463ZM174.603 25.8667C172.731 25.8667 171.311 24.4251 171.311 22.2519C171.311 20.0787 172.731 18.637 174.603 18.637C176.475 18.637 177.895 20.0787 177.895 22.2519C177.895 24.4251 176.475 25.8667 174.603 25.8667ZM186.416 27.6311V18.8522H189.902V16.8727H180.779V18.8522H184.265V27.6311H186.416ZM196.323 15.2374C196.323 17.3891 197.507 18.6586 198.97 19.6699L200.67 20.8533C201.767 21.6064 202.585 22.4671 202.585 23.8011C202.585 25.0921 201.746 25.8667 200.412 25.8667C199.099 25.8667 198.238 24.92 198.238 23.3923V22.3379H196.087V23.5429C196.087 26.3186 198.023 27.8463 200.412 27.8463C202.8 27.8463 204.737 26.4262 204.737 23.5429C204.737 21.4558 203.553 20.2293 202.112 19.218L200.369 17.97C199.314 17.26 198.475 16.5069 198.475 15.2374C198.475 13.9464 199.25 13.2578 200.39 13.2578C201.595 13.2578 202.348 13.9894 202.348 15.6462V16.5714H204.5V15.5816C204.5 12.6769 202.692 11.2783 200.39 11.2783C198.152 11.2783 196.323 12.4187 196.323 15.2374ZM209.273 11.4934H207.122V27.6311H209.273V21.9722L214.416 27.6311H217.149L211.705 21.7785L216.761 16.8727H213.9L209.273 21.6494V11.4934ZM223.634 28.836L227.873 16.8727H225.721L222.622 25.8882L219.503 16.8727H217.351L221.611 28.8145C220.923 30.4928 220.191 31.289 218.836 31.289C218.319 31.289 217.824 31.1814 217.415 31.0523V32.9458C217.824 33.0749 218.427 33.1825 219.029 33.1825C221.676 33.1825 222.73 31.3966 223.634 28.836ZM239.287 22.9835C239.308 22.7468 239.33 22.5101 239.33 22.2519C239.33 18.9598 237.092 16.6575 234.037 16.6575C230.981 16.6575 228.744 18.9598 228.744 22.2519C228.744 25.544 230.981 27.8463 234.037 27.8463C236.511 27.8463 238.383 26.6198 239.05 24.4036H236.726C236.296 25.3718 235.435 25.9528 234.123 25.9528C232.315 25.9528 231.11 24.8554 230.852 22.9835H239.287ZM234.037 18.551C235.758 18.551 236.941 19.6268 237.2 21.4342H230.874C231.132 19.6268 232.294 18.551 234.037 18.551ZM249.032 21.757V27.6311H251.184V21.3267C251.184 18.1637 249.441 16.6575 247.095 16.6575C245.675 16.6575 244.492 17.3245 243.825 18.5725V16.8727H241.673V27.6311H243.825V21.757C243.825 19.6268 244.815 18.551 246.428 18.551C248.042 18.551 249.032 19.6268 249.032 21.757ZM258.574 27.8463C260.015 27.8463 261.263 27.1577 262.103 26.0173V27.7172C262.103 29.7828 260.941 31.2459 258.961 31.2459C257.283 31.2459 256.121 30.1916 255.841 28.5778H253.668C254.055 31.3535 256.142 33.2255 258.961 33.2255C261.909 33.2255 264.254 30.9877 264.254 27.7172V16.8727H262.103V18.4864C261.263 17.346 260.015 16.6575 258.574 16.6575C255.626 16.6575 253.41 18.9598 253.41 22.2519C253.41 25.544 255.626 27.8463 258.574 27.8463ZM258.832 25.8667C256.96 25.8667 255.561 24.4251 255.561 22.2519C255.561 20.0787 256.96 18.637 258.832 18.637C260.704 18.637 262.103 20.0787 262.103 22.2519C262.103 24.4251 260.704 25.8667 258.832 25.8667Z" fill="white"></path> <path d="M4.32009 30.998C2.11517 32.2716 0.53125 31.2103 0.53125 29.3225C0.53125 27.3128 0.53125 21.2828 0.53125 21.2828C0.53125 21.2828 0.53125 15.2528 0.53125 13.2431C0.53125 11.3553 2.11419 10.2939 4.32009 11.5676C7.75422 13.5507 18.0556 19.5021 18.0556 19.5021C19.4253 20.2932 19.4253 22.2714 18.0556 23.0625C18.0556 23.0635 7.75422 29.0149 4.32009 30.998Z" fill="#00C1FF"></path> <path d="M15.658 30.9973C13.4531 32.2709 11.8691 31.2096 11.8691 29.3217C11.8691 27.3121 11.8691 21.2821 11.8691 21.2821C11.8691 21.2821 11.8691 15.252 11.8691 13.2424C11.8691 11.3546 13.4521 10.2932 15.658 11.5668C19.0165 13.5067 29.0919 19.3274 29.0919 19.3274C30.5962 20.1961 30.5962 22.368 29.0919 23.2367C29.0909 23.2367 19.0165 29.0574 15.658 30.9973Z" fill="#BCEC30"></path> <mask id="mask0_5060_4113" style="mask-type:alpha" maskUnits="userSpaceOnUse" x="11" y="11" width="20" height="21"> <path d="M15.658 30.9973C13.4531 32.2709 11.8691 31.2096 11.8691 29.3217C11.8691 27.3121 11.8691 21.2821 11.8691 21.2821C11.8691 21.2821 11.8691 15.252 11.8691 13.2424C11.8691 11.3546 13.4521 10.2932 15.658 11.5668C19.0165 13.5067 29.0919 19.3274 29.0919 19.3274C30.5962 20.1961 30.5962 22.368 29.0919 23.2367C29.0909 23.2367 19.0165 29.0574 15.658 30.9973Z" fill="#6FE4FF"></path> </mask> <g mask="url(#mask0_5060_4113)"> <g filter="url(#filter0_f_5060_4113)"> <path d="M4.32009 30.9985C2.11517 32.2721 0.53125 31.2108 0.53125 29.323C0.53125 27.3133 0.53125 21.2833 0.53125 21.2833C0.53125 21.2833 0.53125 15.2533 0.53125 13.2436C0.53125 11.3558 2.11419 10.2944 4.32009 11.568C7.75422 13.5512 18.0556 19.5026 18.0556 19.5026C19.4253 20.2937 19.4253 22.2719 18.0556 23.063C18.0556 23.064 7.75422 29.0154 4.32009 30.9985Z" fill="#99D100"></path> </g> </g> <path d="M37.5916 24.8712L37.9757 23.9965C38.2376 23.4018 38.709 23.2443 39.3027 23.6817C40.4375 24.5213 42.3057 25.1336 44.8024 25.1336C46.9325 25.1336 47.8404 24.5913 47.8404 23.944C47.8404 23.2093 47.0896 23.0169 45.85 22.8595L43.0215 22.4921C39.6169 22.0373 37.9059 20.8128 37.9059 18.6787C37.9059 16.3871 39.7741 14.5679 44.104 14.5679C46.5134 14.5679 48.0673 14.9352 49.08 15.3201C50.1974 15.7574 50.3545 16.1247 50.3545 17.0344V18.2239C50.3545 18.9586 50.0926 19.2035 49.3768 19.2035H48.5737C47.8404 19.2035 47.5959 18.9411 47.5959 18.2239V17.839C47.1245 17.6816 45.9547 17.4542 44.5929 17.4542C42.2009 17.4542 41.0486 17.8915 41.0486 18.6262C41.0486 19.1685 41.747 19.4834 43.0215 19.6583L45.7976 20.0256C49.1498 20.4455 50.9307 21.4601 50.9307 23.9091C50.9307 26.393 48.5737 27.9849 44.3659 27.9849C41.2756 27.9849 38.7963 27.0053 37.8011 26.0957C37.452 25.7458 37.3996 25.3085 37.5916 24.8712Z" fill="white"></path> <path d="M68.2482 27.7742H66.8166C66.1182 27.7742 65.8912 27.6692 65.542 27.1445L62.8532 23.1736C62.4691 22.6313 62.1723 22.4914 61.3692 22.4914H58.6804V26.7946C58.6804 27.5293 58.4185 27.7742 57.7027 27.7742H56.6726C55.9393 27.7742 55.6948 27.5118 55.6948 26.7946V13.8849H54.7346C54.0013 13.8849 53.7568 13.6225 53.7568 12.9053V12.0306C53.7568 11.2959 54.0187 11.051 54.7346 11.051H57.7201C58.4534 11.051 58.6979 11.3134 58.6979 12.0306V19.5875H61.1073C61.9104 19.5875 62.1898 19.4651 62.5914 18.9053L64.8436 15.4242C65.2103 14.882 65.4373 14.777 66.1356 14.777H67.5673C68.353 14.777 68.4927 15.4067 68.0562 16.054L65.542 19.8674C65.2801 20.2348 64.9658 20.6196 64.669 20.9345C64.9833 21.1969 65.4198 21.6342 65.5944 21.8966L68.7371 26.5322C69.1736 27.1445 69.0165 27.7742 68.2482 27.7742Z" fill="white"></path> <path d="M73.3574 30.1527V29.2955C73.3574 28.5608 73.6193 28.3159 74.3351 28.3159H75.5748C76.3255 28.3159 76.6922 28.1585 76.9715 27.5637L77.1287 27.2314L71.1924 15.9835C70.8258 15.3012 71.1226 14.7939 71.8908 14.7939H73.2352C73.9336 14.7939 74.2478 14.9164 74.5097 15.4237L76.989 20.5316C77.5651 21.7036 78.2111 23.0506 78.7175 24.2226C79.2413 23.0856 79.8349 21.7736 80.3936 20.6366L82.9252 15.4237C83.1522 14.9339 83.5014 14.7939 84.1998 14.7939H85.5441C86.3298 14.7939 86.6092 15.3187 86.2425 15.9835L79.4857 28.8407C78.7 30.3276 77.8096 31.1498 75.7843 31.1498H74.3002C73.6018 31.1498 73.3574 30.8874 73.3574 30.1527Z" fill="white"></path> <path d="M104.5 21.2851C104.5 25.4134 101.445 27.9849 97.3244 27.9849C95.5436 27.9849 94.1817 27.5476 93.2214 27.0053V30.5389C93.2214 31.2736 92.9595 31.5185 92.2437 31.5185H91.2136C90.4803 31.5185 90.2359 31.2561 90.2359 30.5389V17.6291H89.2756C88.5423 17.6291 88.2979 17.3667 88.2979 16.6495V15.7749C88.2979 15.0402 88.5597 14.7953 89.2756 14.7953H91.7898C92.5231 14.7953 92.7675 15.0577 92.7675 15.7749V15.8448C93.7452 15.1976 95.2293 14.5679 97.3244 14.5679C101.445 14.5854 104.5 17.1568 104.5 21.2851ZM101.392 21.2851C101.392 18.8711 99.4545 17.5242 97.0451 17.5242C95.3166 17.5242 93.9024 18.2589 93.2389 18.8536V23.7341C93.9198 24.3289 95.3166 25.0636 97.0451 25.0636C99.4545 25.0461 101.392 23.6991 101.392 21.2851Z" fill="white"></path> <path d="M120.767 20.2701C120.767 21.0048 120.505 21.2497 119.789 21.2497H118.759C118.026 21.2497 117.781 21.0398 117.781 20.2701C117.781 18.3459 117.048 17.4888 115.302 17.4888C113.643 17.4888 112.264 18.5209 111.496 19.7803V26.795C111.496 27.5297 111.234 27.7746 110.518 27.7746H109.488C108.755 27.7746 108.51 27.5122 108.51 26.795V17.6287H107.55C106.817 17.6287 106.572 17.3663 106.572 16.6491V15.7745C106.572 15.0398 106.834 14.7949 107.55 14.7949H110.064C110.797 14.7949 111.042 15.0573 111.042 15.7745V16.6141C111.967 15.5821 113.381 14.585 115.791 14.585C119.318 14.585 120.767 16.6841 120.767 20.2701Z" fill="white"></path> <path d="M122.62 21.2847C122.62 17.4363 125.868 14.585 130.18 14.585C134.458 14.585 137.688 17.4363 137.688 21.2847C137.688 25.1507 134.44 28.002 130.18 28.002C125.868 28.002 122.62 25.1507 122.62 21.2847ZM134.72 21.2847C134.72 19.0456 132.747 17.4188 130.18 17.4188C127.561 17.4188 125.588 19.0631 125.588 21.2847C125.588 23.5413 127.561 25.1856 130.18 25.1856C132.764 25.1856 134.72 23.5413 134.72 21.2847Z" fill="white"></path> <defs> <filter id="filter0_f_5060_4113" x="-1.04082" y="9.43941" width="21.6959" height="23.6878" filterUnits="userSpaceOnUse" color-interpolation-filters="sRGB"> <feFlood flood-opacity="0" result="BackgroundImageFix"></feFlood> <feBlend mode="normal" in="SourceGraphic" in2="BackgroundImageFix" result="shape"></feBlend> <feGaussianBlur stdDeviation="0.786034" result="effect1_foregroundBlur_5060_4113"></feGaussianBlur> </filter> </defs> </svg> 